<mxfile host="65bd71144e">
    <diagram id="5L6IEZojf5HVLF-PpF6Y" name="Page-1">
        <mxGraphModel dx="1183" dy="866" grid="1" gridSize="10" guides="1" tooltips="1" connect="1" arrows="1" fold="1" page="1" pageScale="1" pageWidth="3300" pageHeight="4681" math="0" shadow="0">
            <root>
                <mxCell id="0"/>
                <mxCell id="1" parent="0"/>
                <mxCell id="4" value="" style="rounded=0;whiteSpace=wrap;html=1;dashed=1;dashPattern=8 8;" parent="1" vertex="1">
                    <mxGeometry x="70" y="40" width="530" height="230" as="geometry"/>
                </mxCell>
                <mxCell id="5" value="Base de donnÃ©es&lt;br&gt;FileSystem" style="shape=cylinder3;whiteSpace=wrap;html=1;boundedLbl=1;backgroundOutline=1;size=15;fillColor=#ffcd28;gradientColor=#ffa500;strokeColor=#d79b00;" parent="1" vertex="1">
                    <mxGeometry x="150" y="48" width="150" height="80" as="geometry"/>
                </mxCell>
                <mxCell id="6" value="" style="rounded=0;whiteSpace=wrap;html=1;fillColor=#d5e8d4;strokeColor=#82b366;gradientColor=#749263;" parent="1" vertex="1">
                    <mxGeometry x="220" y="143" width="364" height="110" as="geometry"/>
                </mxCell>
                <mxCell id="7" value="Core routes" style="rounded=0;whiteSpace=wrap;html=1;fillColor=#f5f5f5;strokeColor=#666666;gradientColor=#b3b3b3;" parent="1" vertex="1">
                    <mxGeometry x="241" y="160" width="120" height="30" as="geometry"/>
                </mxCell>
                <mxCell id="8" value="uvicorn" style="rounded=0;whiteSpace=wrap;html=1;fillColor=#d5e8d4;gradientColor=#97d077;strokeColor=#82b366;" parent="1" vertex="1">
                    <mxGeometry x="241" y="200" width="120" height="30" as="geometry"/>
                </mxCell>
                <mxCell id="9" value="sqlalchemy" style="rounded=0;whiteSpace=wrap;html=1;fillColor=#f8cecc;gradientColor=#ea6b66;strokeColor=#b85450;" parent="1" vertex="1">
                    <mxGeometry x="444" y="160" width="120" height="30" as="geometry"/>
                </mxCell>
                <mxCell id="10" value="" style="curved=1;endArrow=classic;html=1;entryX=1;entryY=0;entryDx=0;entryDy=52.5;entryPerimeter=0;dashed=1;dashPattern=12 12;exitX=0.5;exitY=0;exitDx=0;exitDy=0;" parent="1" source="9" target="5" edge="1">
                    <mxGeometry width="50" height="50" relative="1" as="geometry">
                        <mxPoint x="418" y="161" as="sourcePoint"/>
                        <mxPoint x="398" y="111" as="targetPoint"/>
                        <Array as="points">
                            <mxPoint x="438" y="141"/>
                            <mxPoint x="420" y="90"/>
                        </Array>
                    </mxGeometry>
                </mxCell>
                <mxCell id="11" value="Backend" style="rounded=0;whiteSpace=wrap;html=1;" parent="1" vertex="1">
                    <mxGeometry x="80" y="225" width="100" height="30" as="geometry"/>
                </mxCell>
                <mxCell id="14" value="" style="rounded=0;whiteSpace=wrap;html=1;dashed=1;dashPattern=8 8;" parent="1" vertex="1">
                    <mxGeometry x="175" y="444" width="278" height="159" as="geometry"/>
                </mxCell>
                <mxCell id="16" value="Frontend" style="rounded=0;whiteSpace=wrap;html=1;" parent="1" vertex="1">
                    <mxGeometry x="188" y="564" width="100" height="30" as="geometry"/>
                </mxCell>
                <mxCell id="17" value="" style="rounded=0;whiteSpace=wrap;html=1;fillColor=#e6d0de;strokeColor=#996185;gradientColor=#d5739d;" parent="1" vertex="1">
                    <mxGeometry x="185" y="452" width="200" height="92" as="geometry"/>
                </mxCell>
                <mxCell id="20" value="" style="whiteSpace=wrap;html=1;aspect=fixed;fillColor=#f5f5f5;fontColor=#333333;strokeColor=#666666;" parent="1" vertex="1">
                    <mxGeometry x="293" y="452" width="92" height="92" as="geometry"/>
                </mxCell>
                <mxCell id="21" value="" style="shape=image;verticalLabelPosition=bottom;labelBackgroundColor=default;verticalAlign=top;aspect=fixed;imageAspect=0;image=data:image/png,iVBORw0KGgoAAAANSUhEUgAAASwAAACoCAYAAABaK9MPAAAAAXNSR0IArs4c6QAAIABJREFUeF7sfQeYVcWy9dr5pMkMOWdBkCAZA0EEFQFBJEnOIEFyziAISM6ZS5CoiCRBkCAIkiWIBMlphkkn7Nz/642+H+9VGIYzMHPf3t8HDHO6q6pX9Vlfd+/qKgb2YyNgI2AjkE4QYNKJnbaZNgI2AjYCsAnLngQ2AjYC6QYBm7DSjatsQ20EbARswrLngI2AjUC6QcAmrHTjKttQGwEbAZuw7DlgI2AjkG4QsAkr3bjKNtRGwEbAJix7DtgI2AikGwRswko3rrINtRGwEbAJy54DNgI2AukGAZuw0o2rbENtBGwEbMKy54CNgI1AukHAJqx04yrbUBsBGwGbsOw5YCNgI5BuELAJK924yjbURsBGwCYsew7YCNgIpBsEbMJKN66yDbURsBGwCcueAzYCNgLpBgGbsNKNq2xDbQRsBGzCsueAjYCNQLpBwCasdOOq4Bqat1rT9wq+WqqmI0NIHodTDDX96vVL588dPX3k+Lfq6T3ng6vt2aRFvV6vaqnyld7JnivnS6GhYRkNonrv3Lp27861yz/snzVp1rNJt3unJwRswkpP3gqCrY0/n7WkbLVaLaQM2ZCkGeBEAoZjYRAWhk7AERZqfBx+ObD/h6O7t078bd38zUFQ+9Qicrfs2vHN9+q0zF+kdDmnJwIiAwT8GmBqcDh4gDegyYlwwcSxPXt2zm/X5K2nVmJ3SHcI2ISV7lyWMoMzVXin2OBpU44Z4Rl4WXAgTjMgOF2AqUPTNJisAJYXQQiBSAjcMOHWFcg3r/h+/Gb9zK8+H94vZZqfrlft0VO+KPPWu11DcublEzRAMVlLgGAC1k+EgECByZngGANOBpA0DU6fjHF9etf6ffuqbU+n0W6dnhCwCSs9eSuFtoYVr5Fn0spVlxNEJ+JZFppIv/omTJ2SkwiGYWDCgMkYIBzAWB8TMJoBJxiEcQyM2BjsWLNywtbx/VOFuN4aNnHiW/U/7MVHZIJPYwBWhKo9JCmWBQgD6MSEyekgLAHzx8yltvOaiRBVR7ihYVTX9pWufr/uxxRCZXdL4wjYhJXGHRQM8yYd/C3RCM0SojrdCPAAxwOs4kUoL0AweDCE0pcBDToU6FABGJwAk+UBwoPRTYRxLPiAF0nXLsZuWDyv+4mVc1YEw7YCjTs0bv5Jj3lROfN4YhQVBu+CbjDgTAZOnoGTcqdGLdLBCiwIz0I3DRimCV3gEa+YEAQJbp1BGDGg3vxd7/VaASEYttky0h4CNmGlPZ8E1aJaoyfPrdWiY/s4TYLBsiC6AYfhAxt73Xdw+5YVN3+9fMYE8YVEhGfJU7BIsQLFX6kSkT1ntCo64DUZKAwPRTfAMUCYJEHUVXByAFd+OX1oasPXKjyLse1WbNjxUtkqbzGucCR5/dDBgOEEgDEhcQxEQwbjTUTsjSs3rv1ybvuF82eOXL96/RwRHZ6XS5YoUqhs+a45y7+WKzagQ2R4EJ8PBaPd2LNu1ZbFXZq8+yy22X3TJgI2YaVNvwTNqjm/PyB3GBEaccFBVyyKhqtHfzw8veGb5f5JSWS5WkVqNPhoQIWa7zZjwiLhMxnIpgmDMOAIwINAIAxELRHzxw1ufm75zOVPY/CrTTo2+rhP71WaJxQKHwbN5MCDgcAAHDEgsQZ8sXfid2/esGj7Nyv74+hR7Z/kvz9v4zcVa9V5z6sSCBwLN0PAJ91Hj/er5MLls9eexi67bdpHwCastO+jFFtYvdeoCW916tIn4PZAVQg8BgF375bWr0JeMblC3x44dXTNj5oMQkgEEjQDokeE12+AJYAkEfBmPE7s3Lbly3YfJ2tF02r2ypUlq77VmA+JRHxAg8YyMAwDLpYBK/vBehOTtq1ZPX7nxAFjkmvjiAMX/O6cBZxxAQ0MQxApEPz01fKFX/Zo1za5Mux26QMBm7DSh59SZOW4/efuk5y5M3gZFoymIxPLYMuMqSO2TRww/GkFNpq8fHmld+s28zM8AgwHzinAKyuQnCacagD6b1evDalRKtfj5A7fcehXd95CBf2MBE1hIfA8wCjgTAWZ3E7s+mr9ktVdm7V6WtuKf9y1TbvhExYk8E4ETMDNGghcOe0f9WZJ99PKstunbQRswkrb/km5dUWKiFM3HlTiJAdUmHARA474GPQumTvFPs9W5b1XOg4asym6YJGct3wqOI8LiiIj1MGDDfjgDngxtucnFW/u2njwUcPFSpWKDp4597TmDGcMPhwhHjf8CYCbA0IFDbcvnLwyeeSwOr69W06ndMATDl4kWnR2+EUJ0DTkFnS0q14hOy6cvJlSmXa/tIdAiidv2huKbdGjCBRv079ty0Ej5icQWKEKHk7HtcP7z82o/3aRZ0Xqg9Fz5r7duFn7OMLCz3BgeA48o8OpqQhT/Fg8eXLrHxdMWEz15P247Qedhw9ZHwiJhJeGK6giBI1HFGHg0DV899WC2RsGde78rDa1mbP6hyJv13k9hnEApoEsUPHl5DEDDswY89mzyrb7px0EbMJKO74IqiWNpq1aWLJGndaaIMGEBkFUsWPp/IW7B/cKyrnOy3Vb12g9aNB2NWtW3POriHSEArIMF8dC0BSsWTRvWLw3wduyf79JDzQGKucAMVmEcEBIQEFmfxLG9u5U+5dd64ISSV+mS7/BzfoNHXVHYyEKDrhkGSe2bty4qnuTD4IKrC3shSJgE9YLhT/1lLdbtuOnwpWrlg3oBIxAwHMyZgzq1er68vlLgqm1354TtzMXKZY5NtZnxUOJogjG0MAaKiS3y4qo9xsMJBcHyIBblqFfv3hzcPWP8gJnaYBVUJ7MNRu8OWjOot13NAas4EIIYXD90A+/TW9cpWBQFNhC0gQCNmGlCTcE34i+W49ey1ikZA6/akASGPDwo1ftavlw+sjlYGtrt2jjvldqvlf5ZmISnA4P/H4/JLfHCvCkrxMV+nZRdMGlq7j70/6T0xtXKxFsG2hA/MzLccYdQ4DJSQjleQQunk0cXrVoWCroskW+IARswnpBwKe22pE//hbLZckVaZgsRJbABdnsloduyFLneWfSkqVVGjRqrpg8iMAhYMAiLJFlwBMdbkHE3q/WbvmmS8NkhT+kxMoZ5++TWMENjZfgJCy4e9f1/mVz2lHvKQEzjfaxCSuNOuZZzRp37HdfIDTaxbEOcJqCcFYjXQuEPbxJnEpP6xV7jr5U/o1S8RpAz77pfT8ar+XSCS4d3vvLvCZvFksl1ZbYL45eI0lhGaBLTrA64Iy/S/qVzJyqY07N8diy/xMBm7D+S2fFuNPXdZ8nimMZCZzfjwxE07sUjUy11UbVnhPGNeryaf87CgNNYME6AUWhgaUmPKaBbA4eu1b/6+sl/VvUTS3IPz/wW0DNmM2hSk6YJuDxxqDfy9H2HE8twF+AXNuZLwD056Fy9MmrshyRSWJMAQ5VR5g/iXQtkSFVVhulO/Yf0rzH4JGK6IbMAPQejayacDpZwFQt0uIVE5EssGXJ7JmbxvXumhoYfHHgkl/JlM2ZRFPl0Gs6vgfoXyTKnuOpAfYLkmk78wUBn9pqhx/7TdUz5BAYU0IoANeDGHQpFfzVRqHGbZt1GTlhOQmJwN0k3cqn5ZI4CLoBMAZ0wURA0yGybgiajmjoWDV9wuDvp41M9tWb5GI188h1U86Ylbmn6OAFEW5/jDGwaDSf3P52u7SPgE1Yad9HKbJwyE/nkszMuT0scUCSNWRlDLQuRNPdBe8JK1M57/glGy55HeGIZwgYXgAMHRl54F9jhw/UDC2x+dCBM+5qJngpDJpPR7QoIcQfwLjOretc2b16U/CsAWYevWGdYQV4GnsGcPdvaMPL5Ej2vclg2mLLSh0EgjqBU8dEW2pKEPh05093QwqVzGgaAiRVRxaYaPNOlfy4+OOllMj7uz4TDpwmfHQeeBkBcInwJyUiu8eFTQtmzt8xvEd72qfywKHD6nfqMfyuyoETQ8HKQAQDRCjxaPVezcy48tPdYNkz9+x9EiO44WdE8DRR4Y2L8WNfLxgRLPm2nBePgE1YL94HqWJBm9Vbz+epVLWQqouQdAMR0DG2c+t3b3y3ckswFA78dt+tbK+UynJPYay4J56YiCAajn61ZvPST1vWflRHvVETlr/TuU+z32IUMAwNswAcvAbl5pWYkZVejg6GPVLxSoVmfb3j/C2Ngc47IBCCu6d+vjS9Xrn8wZBvy0gbCNiElTb8EHQrPpq9clvxmvXe1okDjGEijNGx5LMhQ48vmDDqWZU1n758e7k69WrcUXXAHQY50YssgojbRw5d+fyjN/L+nfymM9cfLlv7gzJ+FvCbBAEiI1pgEP/Tvp/H1atR5lltKvhR2+afTpyx9K5sghWckAzgl+82H1rWsfYzJRl8Vrvs/sFFwCas4OKZZqS9M272lDcatuyuEAmmacItEGxbMnvtrhHdGj6LkRU6Dx7SYeCwkddkBYrkgMYw8OgGxMuX0b9q4cfOp6Ff/3zfUaBABtnlgsKx4DQZeRiC775ctnhN/86tn8Wu1/qOGFm3c88hSaZIUwEiRCfYu37F8q8GtGj+LHLtvmkLAZuw0pY/gmbNK236tG41cPRC+gXWYMIhEpz9/ptf/9WqXuGUKnGXq1l8xpcbTt5TCWJNgAtxQTNMZALQp0LRDLh5PvZJsseevEUCnjDwbhdUv4lI6HCqPkwcObjZ5ZWzUpwnvsG0xbtLv1//TYV1glFNROgM1k2bOGDvrIF2toYnOSUdfW4TVjpy1lOZWqZa3mmrtlyihKWwBKxoIHD5F4x/s2SKfT7uwAWCyIyQRSdMXoRKAFEAZo0ZNSH25OFv8mSKitQ0r+AO82iayYUYKsApJIEQnUnyJiXFeONjpAL5Kg0cM2kOhzD6QhE0hx9kLyJ4HZ1rVMqC38/eeapx/tG426Y9V6NLls6pEQmCziBKJRjQpnGZhAPrf06JPLtP2kQgxZM3bQ7HtupRBGadSyIJrAcyLX4jGHD776Nf4SzJ8nl4mTIlihQtViY6W+6CIRmz58tZqOTbETnzu0ynB16aY0sANANw0rJgcgDRnGkdpCfJiWAEESzvBjE5wDDBGKp10G7wjJW9AXwIlIBkkRUlPbcT0BJjQHwPAucP/rgx4faNKwk3r/169fLv564f+C5ZhDPyyAWCzFnhV4BwTkK4X0HHop5kjdWeNekHAduh6cdXT23p8G+OBTyFSzru64DoBDIKGoY1rVvrwZ4t/7/YaImKJSq89tr7eQoWK+OJjHolR4GXcnAuB5yhHpgsZ62CWFYEo7GQFcCk5CcCCaoKySmCo1tDHRB0HSxRYbAmTJaBxlMmY6zCp7TNw0KoLEwwMIkAgwEMqzoiAIau1PxgTR0OVgBDV14g4BgGsqrg3v0byoMHdy7H3r71y72LV3898/PhPQm7N+/6X0Dylg6b9v0P8Q/AWyQaQgDm+lXSr0qhVInsf2pH2B2ChoBNWEGDMu0Jajtrw97CNeq95qNZg3UCJxQc3rR2m5YQE1O2fMVmGbJkBR8aisSADoc70iKae171YaEJRQFobgedtUpoiSYDkQMUDSCUBqhM0wBrclYzieZ3ofxEr+YQAwFGg0ZMCCz3sNKOwYM1GDCEAWEY0OSjtKgz7SuIQFIgEaLEQ+Bc0FWLw6AZdCtLEOphkRSfCAfPIUx0g/cHwMfH4s7VK4lXrv3+Q6xieis2+KhxQBCh06Kq/xNzdv3H3SdmNqtZMu15xbboWRCwCetZ0EvjfV/qNLBPi97DJ/g5ATKtTCOxcDEqVL8fDmcovH4FAu+ESRhopgm/qkB0SeBEFqZOY6bo6kqAJLKIj5HhFB0WwzC08jLRLOLSCf2ZBWcYoMdRHK3KytEtIwPyR0UcxiQWYTEmA5NhYDAsdFpemmWs1ZnX54Mj1GURoCkDDpojnhIaJS1NBc8YEIkDhkmgWglyCDx0C8oCmqJYW9AEk4fBsXDQuPYkH7Ysmz3m8Og+g9O4i2zznhIBm7CeErD00DzLO++/XrpqzT5FK77xnidbQSgGD1qfVJbpXsuAIHIgGgOO4WDqD1c5okhv1RCw0GnRerA8A9UwQcDALyvImCEUSXE+RDgdUJPiYSTFQ9XkQKLsD2iKGqN7FVnxexM0WfEbhMBgCUOsmvcAz7HEwYlOSZLCHC6PS3Q6w1mn5OR4kY8KiXRwDjcSRM7KTBoqcfB7LU6CRHPRSwSqNxFOLgw+A1BCAYUAql+GSxTAsixUVQdv/Qx4E/yIDJVAEu/i7I+7t53cvmXpuXUrV6cHv9k2PhkBm7CejFG6aCGVejt/nSZN+r1coVzb0KyZ4Zd4aKwAJcBDV4AwJy3xDngJvRjMwkn3Y7oBQt8gmjoYTUGYJELQCe4+iEGMqhjRuXJzGiFWeXhNk+E0FODm9avDXy+ZO5ig9P3y+33hZV6tnMgJkIgDRAV4AiTevUtccgyTN0dm8GIY7skqfB4H/DAssvL5VTCSCFMDeHqOxgAMT6BDgWb64RZYeOgZm1/G0T0HNm9YtXxc0t6vfwym7bas54uATVjPF++ga6vQvEvrN9//YFCe4uXzBlgRftOAKjDwcwZ0k8DDuwAdINrDQ24iAayuIjMjwPQmICbuFq79/tv5y2fPfXvm5Kn9sVtXfQV8yDVd2+Nc4fLlCsi0TD0HSIJmlfHq8e67WXHu6O1gD2TSb7dJghgCUxUgcqK1vfTdueUf06RSFH7/XY6u9F7lAq+UeCN/uQpvZcierWxkhminMzIa8awAlYZPBEy4OHpN6OEYfWYADMNAMABBMRBK3zp4E5B099rV3d+sm7Z72pjJwR6DLS/1EbAJK/UxThUNpdsO6l+vdasxYtYIFqLDqvNn6hxCQiToDOAzZDAcPeTmwDI8fLIOXuLhcQBxFy9j1fAxLW7uXLTs74wr137okKYDhoyMYzgENBVOHsjAKvhq4bTx340c0j81BvRy1+7Nmvcdttyve8DR1ZM3EVECgz0rl83+dkjXvy0D5q72QfXGA4Z/natIMRevAoZswuFkkeA3YPC0MvXDA39DUyFxPDgGUGQfwkMc8N2/h92bNkzeNrRbr9QYjy0zdRCwCSt1cE01qW90HdyzZuOWk8Nz5cNdVYHsMqHIGsJIKJw0j7psgmMNON0mNF1GzN0YhGbMBFXyQDEJBKug6gMMLJGJHjCRvzN01rGbxB8SjUQaiMAz8BAFiWeOXxxZu1KBVBsYgI5rthzMU6Z6eR9988gbEE0FHkPGJw1rF8GxQ+f+TvfgYzcIF5XVWkUxmgaP6MDt27eRM3dWeAOK9ebTYOg2kQHhWBAaqkFfEDAsPAyB5H2ATYvmj/tu8qCBqTk2W3ZwELAJKzg4prqUAh80erdp115LovIVyZAECfRLrfGAxqgIE0Ww92V4TA6hLg6JsTdx7KfvN27ZtG7Og+82fzd4x0+ylKewaDhDrC9rqBrA4sEDu539csb0fze81by1B0pUe6diksqDoSfxjIEwPYAB9Wu/lHR6z/nUHuiE4zGEREXBS18QsASCaOLqsb3HF9atUerfded6t8kH3WauWB9Pt326jHDORNKta2TQ651EqZSUu1b9uoOKVajQMmuhl3BfVqAzAhiWJpuHtY2kbxndxASve2H6YvGvGRM7Hls8a25qj9GWn3IEbMJKOXbPrWfXhRu+eanSa+/FaCaEiAyIl2UIDhd0Q4eme5HNEwZnjB83T585umH9iqnn1k5b/qhxjcZOXVG+aZsmsRAgqxpyhLhxZvumk3Nb1PlLua2QV6tUGrt6w/54xgGOcYBo9FxIw0/frl+5unvTps9jwBX7TPjkoy59pnlpLJYL8JpAOO/H0kGdWp5ZvGzpoza0nbH62zxv1X/Hz/Pw8DpCDT9O7Njy/fyOjas92s5T7d0qH7RsO7homYpVRUckAjoL1WStmDH6ItPBA4aahDBWx+VDB45MHtOvKs6epe8q7SeNIWATVhpzyKPmuCq/W3rw5Fk/iBGZ3TLLg5NYKxZJVwPgBRM8dBDNi71fbVqxdeayXv+UDC+6Yo3Xh65e/8NNnYVBBIQyBNz9qxhYruBf/D9s+0GvK39xtyq4oMoGHLSAROABupfM/FznSZ+tP1/OmLd0niQTUDkToQ4d+t1ftaFliv8le+jnu84TM19++GnRC82LMFPBFz2617+6aeWGf3Lre4M/n/DGex/0EaKyQZckJBqAX1HgdAhgiYZIJw/j3l3MHz60+bkNC/9C/Gl4qvyfMe25TsT/M6gGYaBluvbr3a7fsM/v6zwCEKDI9FU+B8kIWBHrbl7H5nUr5mzq26NTctQNP3BGR6bcHOdywZA1RCGAhSMHdTmxZMYs2r94q05tWw8ePf+2ysIVFg5N1pHDwWP+gL4dfl76+bzk6CjVpFX7Ku/V7ZQhW67CYZHRDl3XaVFV+ea1y+f27Ny26PTC6TOSIyfstbdLjZ236WjAQS9u0/qGOtzwYs+qxdM2D/y0O5VR6J02NftOmbH1OkwoHIGoJcLpj0f/UkWSNafrDJsyokyNd/s7s+cWKTESgYdqEJimDklTkJ1nsX/96sXL+rR5prQ3yRmv3Sb5CCTLuckXZ7cMBgI1h0+Y0aBd1y63fDp0KQSsCCg+HZEiizDdjyPbNu2e37lp9T+v4iVHZ8Nx8xa+2bBF6xiTrrJM0Ndq144cODvzo5pFaf/+PxwmUt7CYENCcO9uAjK6nUg4derq5HfKPDHmqsRH7Zo27dRlVsb8hULv+3TI4GCyklW5hqXFn6EjVGLgu3cDq+dM6350weRpT7K5/byvNuZ97a26iTRK3iFYZ3PK9csYVPbhqvDjWRv3FXurVmVZlKw7jBk5BUe3b/h2btuW7z1J9qOfN5uycFXFOh82itUZmA43NHo4T+NrVR+iGB3Hd36zZ3Hnj6s8jUy7beohYBNW6mGbIslvDR43sU6rDr1iafBkaDjikwJW9eSMIU7EXDijLho/rv7NLSs2P61wK4Xw2m3n70KEIghwigSiLwGfFork3un32YjqnbsMvqEaEENC4WBgrVbGtGpRIXHPN4cep6vBsC/mv9u8XVtFknAjLglCWIR1T9Cg92oMelUH1mVmpwhwqhcRrIGzh/btnNK09ltPGsOM87Ek0RkGmeUg+xKRw+3EqW++3jy/84AGky6ckANOt5WdwcPoyMJ4MaRN43dv7N721CmgpbKVC/YcNWVztpdLFrgRJ8MR5oIkAYZXRUZexZEtX29f0LFZzSfZa3+e+gjYhJX6GCdbQ8nW3dt0HjJmQRzh4SM0qwFBmIOH05Tx83dbvl/cpuFfDpOTLfiPhsO2HL4ZUvTVrHHmwywKLgBbly9fXKPG2624DBlhOBgk+v0IZRTc/Wn/rpkfv09Xcf/4tJo4d83rDdt++Ls3AMMhgYg8fIoGnufhYBnoAfNhqXoO8AcSERHqhJqQgDCRx6l9B3YuaP140qo1ePzI8m16DPEKInhVgxsm3IaGRYsWrmrauVvjRJ1AM1lE0Sw2v/0SO+itYhmeFpNH238wdv6CKo1atolleDyQZYR4HPCYOsT4+9i7evm0r8f1s7aj9vPiELAJ68Vh/x+ap/9yh8SzHhCnGwYxIEFFpKlg5axpw/dOHjbiWU2t9unQAW937DXW7wyFplsRC3DThZABEAcQUA2Eujk4vQ/Qt9ZbBZRLxy7+k85iTbs3+WTY6BX36YrNIUI2TLA06RULKDT7A89bRMXoBKahWff86GqLXpKmV2icDIOV06aMODR5wPDHjWvYydtEDssIiWHBmjS3lg5W4K2tG418EEQGIRrw88p5i9YN7tDmWTEq0W5Au5a9+s/zuUPh002wxEQ4S+BRkjC0XetK9+yrPc8K8TP1twnrmeALXufms1btKv3OR1UTGQYBlViH6pHEj5UTRvXbN2fShGBpmvXbPZIghcCnO2DStC/mwzQvlLA4Q0UGgcPuZUtXbezXpsnjdE45G0cecE4rUwLNbUUfGiZAF2/0/zQrg0nfRoKxvvSsaVi6rIxYNF8VMRGqKuj5Ei369c9P+U+HdGvUY+DUJFWAZnJg+Yc6NCpLgHXeFG760PfD13Lj+PGrwcCp6Lsfv91l4uRtPlcYEjWqh4dgepFw/vTlz2tVyhcMHbaMlCFgE1bKcAtqL0/xihknrtty9w7jgiEIMBUTWR06di6fN3/j4E+s+n7BetotWrUjb8Xqb8liFDSWkgnA8UBCIAFu6Ajx+dC/ZK7Hzosyjdq1azh6xrx4K8UDjcOkKWb+P2nRDA8GrVL/hxSWJvGzSIq2tVL2WU+IFsD26ZMn7Zo+rPfjxjd636k4NkO+cIPGntE3ehyg6gQix8DJENw+efDEtDqVgpr7qkTjDp07jf585k0iWuEPDKMi2lAwtX3bj65sX7MmWP6w5TwdAjZhPR1eqdL67b4jv3ivS58ed3QOhOERAh3yhVP3RtR8ldZ3COqToep7pcYvXn30hiZBEWjEJE3/QveFMjJKHPatXLrwyz7t2j5Oab+V356ILPvWKz5RsNLTWNn2/ngoKVkk+AdBEZpOmSHWFRnr6OxPErMISwHz+69Xetd45W9Lg/0ps1iTji27TZq9+EYiTXzD0auT0KkeLYAoYmLm0H7Nz62eGfSYqW6Lv/opW/V3y9JyZk6WRzSr48ymdd8t+OTjGkF1ii0s2QjYhJVsqFKvYe8vvzsT8nKpInzGSMR7VWRmgY3DBrfZv+TzRamhdcCmAzdDipfNmoCHF4J1v4xwkYdH9qJb0cdv0ag9478/oSDny2IiQy9WP7Twz9UUJSy69ROtlddD8qJbRJp4T6dbz/9ddQEeXUGkNzbQrlQ2ev7/2Gfw7l/jXLkLhis6QPNtMayKCJoT/vLlmP5ViwSlGOu/G5Ch/NulBqz7+uhtnYWDCBD9Xrjib97uXalw1ifZa3+eOgjYhJU6uD6V1NHbTtx3FCmaIQYEGmMTieBmAAAgAElEQVQgs6mhT67QVPNNoY86N+0waea/7mgmRJGFaAIeleDghjXr1/Zp1OBJxk86fIVokbngBU0C+JCs/vxDCYr+oTnc/1xt0e2h9scWkbb7s41LV5CF+NSWhaJohuXHPoVaDmzdfviYhYmUAOmqTfMiu1PEtzO/GL15fP8hT+qf0s+HHLtK9Aw5rcyoNFe8lHAr0CMZBJtSfXa/xyOQal8KG/jkIzBp59kHWv68ETd1GQ6HhMzEQK8cqVfxpVSr3s0aDRuz/AEjQFFUeHgRoRrB7pXL5mwZ0eqJkfMzztwnSUIYAqxgpUmmWz56bmUxlHVBjyYFZMBav324FaQnV3+mhrAmnUmshIBZGL/ausCTCat4h+GdG386dKZfZACBxnRpCNN92LZg9pTtEwb2TD7aT9dy5IkbxBuaCQJ4KxmgkHDD7F06h5Wo2X6ePwI2YT1/zP9D45AVu34VypcuKIeEwvDRLSGDtWOGd/5x3rjZqWHesE0Hb0tFSmROFBzgRcD0wYplciTEoUuJyCfOibEHzulcdG7Oz0vWdo8w9M0fzVZDaYleKjatvO1g6Ak5ax20cyb7vwfzdEyU15xmAI746/5epQvT6IrHPkP3nPc7chdy+kxAMQhCBMChJEJMuKP1LFv4L3cMnyQruZ9HVqpVfviqTQfp2SInMOADBphrZ+8OrV48c3Jl2O2Ci8ATJ2dw1dnS/g6BD/p+9kXZTh17xAkOsAEgguXgu3w+YcRbxcKDjZhUolyBWWu2XbgvePCAroI4zorHcpmwViwH1i6a8eXQbp88Tm+XFVt/zleucukkzgGZpVVwrFTxf5DWQzKi51V0ZUULUNBJJlgrrofhDFb4A8vAafqg/n761+FVKz22GnWl5p07fDx6+pzrKk0+T9M1E7h4BqKuIErQMHVo705nl8ydE2ys2q/Y/HO+cjVK+zjBCgEJISp+27Fx54JOjZ4YpR9sW2x5DxGwCSstzIRChbJO++7Hm/dNBxjdCRfDgFMCOLJpw6I1/Zs9czDko0NsPW/VlqJv1KrlF9wImLy1JnI4AE0lcOoBOL330atU7sfOi1KturRvN2Tc3BiGRwKt/uyg5eH/2Ab+se+j9x9l1YojhUMC5AQFgiBYZ2b0TMsry8gUwuLbOWMn7Rox4rFhDWO/P5rI53klhB7y+5QAwsOcUANWSR04mAD8V3+7Nq76q7mC6coSPYcMbNq9/xjZcEGzxqQgs2Di844tPryyde26YOqyZSUfAZuwko9VqrZsMm/5rrI1G1S952PhdongVMCtyvhq5sRRu2YNGRos5RN/uU7UkCj4AgwkhwPEoNWXafFTAolnEGoqOLB25ez1fdr+bVriP+0Yvfekj8uay6W5QuFVTKsCD2sSS57AM1aJMJXm4KMdTMAl0pJhgM+nWlV7aG0eSYlXBxXJ9NgD91e7fNqjdf9RX9xIJOA9bogSEBeXCKcUalX6oSs4l5KEAR/ULq6e3ns6GDhF1WxUb+DsBRsCghOqzEJigDDJxK1fDl0YW7NSoWDosGWkDAGbsFKGW2r04ueevavFhWREvALrzV0oD4QIBr6cO+2L70d/+umzKi3duvenzUaOnvTAYGAGABcrItQJxCR4YYa6H4YmqCoiAono/XLGx86NQo1bN+z7+Ywvr8T7IUVGISFJhjPEYa2m7t0zwLMcPE6aZ/6Pw3Yryp1AYAmIpiLU7cDqOZMHHxrda8zjxjX2xCUi00Nv1g2YJnQ9HhwvguU9tPwgJAcQwZg4uX7Nl0t6NW70rBgVa9GjS9cRY2c84EQryp3TCMJ5+hb1Afq2/ahC4oE9j70M/qz67f6PR8AmrDQ0Q4o36dymxYjPFngFDwSWgT+gQzN9yOBi8dvO7bvmtfnwsZeRnzSUsXvO3vNnyxZNI8bDCA9JB9YtXbCgdr3abbXQCHgZBiwNkOQIftm4+qtFnzSt9ziZ74+eOvvdZu06PtAYaAIHr6LD4Hi4nAIMeqWFBpDSfFY0XQsHiDDBGzoc0HHq0KGtC5tWe+dx8msPGD2mcqceAx8QAR4iglNkOFkvps+YPax9j0EjVMJCA+DSDYQnxqPTqxmeaT6/M2jK4oadurS85Q9A5UXrvmWYICJE8+PbxTOnbbYvPz9piqX658/k4FS37v+ggqoDx3/2Yefu/W4k+CBFRECmCeVYwCV7IcTGGnMHDW1wbgctxfWUT4k3w6es3BiXGBoKn2Yg3OThCCShZ7XXPFVbN+tZt123UQ8MFjJDqzgryC3o6NqgTgHl2J5/vABNLWj2+YJZ5d+p3QkuNxIMHcThgayb4DkBgYAGjmHgFFm46B3AgBcuXcW5o0e2zGj6zrtPGsGkk5fJA2ckHKFhkGOSkCPUia3L5q74enDXZsN/vkHEqGyQDQI3y8ATUDB1YPcWF76e+7eVgB6rq1y1IiPHfLEpc/7C+WI1DUQQoMp+RDhd8MDEoe2bt8xv3+CJ9j5pPPbnz46ATVjPjmHQJdQa9vkX9Tp06XFbVqE6XFA0HZyiIbMgIDwpgFMH9u78YtJn9XHxp8TkKn970NRJbzZr9akWEgJF1eHWdNz/9eTVL94vbyXo+2z/ZRKWJw/uqQ/v6jm0RFw/uv/wzIbvlnuSjqKN2jZo1rb9wswFCoXGKzoCJq1Uw0OkxTFAQJSA9UaPlZO8Xy6Y0/vAnMlPLPTw4fQlGyrW/6henC6AmAxcmgyPPwGfvJLVmrN1piz/ttL7H74TgARdNxAlcLhxdP/JiQ1e+0ue+ifZ3mjakpVvvF+/sVfmoDICdBogYWoI4wHen4iTu3fvmN+58dtPkmN//nwQsAnr+eD81FoqdOnbo0nPPl/EsE7InAQ3z0NLVBHC0ku/JlTix85N6+fu6NWhY3KED915WnflLcj5TAaSICAEBhaPH9LvxKxxViaIMq0Gd2rZe9isWA6QeRMCTzM3mJjVt1ejcysWfJkcHUXrNqtfo/YHnbLlL1DRGRHp1HST1heUY25c/eXYnt3zf5iXvFTLGavVLD5w3oqTCZIHPp1BCMsjxJ+ELfNmTt8xeWA3aotQqVb5L1atPxjHiIj3qQh3OeFMuIfexTIla05X7jVsXP1WbfsxYeFMggxoxAnJzVnbcEH3IYtkYs+61Yu/7NPZTpGcHOc/pzbJcu5zssVW828IRLz1QaWe4ydud2fK4U706WB5ETzLwqd6wbhEhDAGsvgC2PXlypVrl6/sG7hw8ObfgpivTI75O/Zcu01YEMkBMyAjVPGhV7G/nvmM3Xo+1pkvb2SSyMKvy/AIBOz9m/6Brz45sDOYzhv+3YGLfO6X8skSzR/Bwa1pcN+5Ln9aqaDzUT39d/1MxBwFwIeHIjHOj3yhTizq27H7keXz/jEFc7Ox0+a8Wq1mByFLZsRoKkxOgGZwEDg3GINAhAq34cOUob2aX1m9JOgXqoOJ0/9FWTZhpQOvt1m0ZkvZajVq0QovCTReKiIc9xL98DicCFV0OIgKFn5c+PX02Q3r1024uXj2X8phvd977Kwqzdt3UsIjEGcY1luvOwf3XpnasPpfsiSElq5Sbuqabw7dIQL8hAcrsXByMr5fMXfujr49krWSe1Y4C7dr3bLb6EmL47w8ZCLAdLCI1FSs7PNpu6Pr5i14VH79ibNWl/+o1UexKguOYRHNMbj8w3fHpzWv9Zcaho7Kb1dv1r7H4KLlXntD5RwIEBOMi4Os+SEIDBhNh9NgEMax+PXg/oNThnxSBRcvKs86Frt/8BGwCSv4mKaKxFx1mrzTqmfv+ZG5CmSlZKILDvhl3br9Qt/ASaIJ3QhY50bqvfu4uGvfup2bv516a8+qAyO+PxnryVUgIp5GCjudkAKJ2DJx3MADsz8b9+/Gtpm5YkvRau/VShJC4WeAUA/A3L+N8S0b5ks4sv9yqgzuEaETfrsoxzNOySVmtJLzEVNB3NkT5794v/JL/647pNyblUes+GZfguC2EgUGYmOQWeTQ/eVIDi+Vy9e+Y/shuUq88nGmQi/jVhID4hCtIFCNVshWk+ARORhKIjK5HFBjHyQsnTa196nF0/5Ciqk9Xlv+0yFgE9bT4fXCW7/Vc0z3KrXrfhaVI7fDBx6mS0RckgaXQwDDEMi6AclkEMVxMFUFv8ffhBgVDt4dhrikJES43Mhgauiay/2Pvp9x8haJCckAmRXAygRZHQzuHj94cVS9iqlaqr7N8o1bXqpRq1YMjZonIpyahuwsi1ZVXs+D3w/9/nfgj9h7mQg581hXNkzNAM8ReOMfGNHRYVycNx5wuhDQGTCSC4TeZzQMOGg1a46A1/xAYgL2bv12+pqBXa2zMftJ2wjYhJW2/fOP1r3RbuAndZu3GsJEZokmTidUXbNWD6YoWRVr6GGPSghUpwGF6DANBi5RAhfQwMTdx/wRg2rd2LRk298pKNKmb9e248ZPj6O5p7yw8k6FEANrZ0wav+uLfv1TA7KcddtU+2TcxJ1xjABTckGUGLhkFd/NmTNv14TuHf5OZ64aDWp90Gfk2si8L7kNzYAgcZANw3rLabAmRAfNRqGBXr8mBk3RbCCEBwRFBpPwgOzevGn61yN62YUlUsOhqSTTJqxUAvZ5iX3lw84fNWzbbmzmvPnyJpqA7HAhYHK0KA4MEOgOWiCHgJdpznYGPBhIDK1mYwUE4P6te7h8/vzB67+d//HKxV93X92w8FsA3Edf/3QwR9HiZSSBlqwHPAIQonrxSa3XM+Li8fvBHt/0k/cM1ZOB1QljXZyOkxMB34O4iWXezQycVflq779VrETJqsUKF38zZ9685T2ZosGGhMNLJCtLK0frH9IgVRZWQQzCsVbWU3qpm1MUhDlYsKoPd6/8emf/9i3Tdk0e+R/b4WCPyZYXfARswgo+pi9G4isVsjVo2mJA6dertxLCM7hM0QVFYBFrqNblZCfN9OKDVbGG5YCALsPldliFTnWfhnCJhR7wItQh4X5iHK56/YGMufM6/drDMl00J3GkwMD729kLw6sWDep9upZzVm0uXq3uu37GAVMFHG5AFYDrF88EMhHTGZ0hCkZUBPwGA81PILmd8NO7zzCtGC2eYaD5VEiSCJWutAQOuqbDzbAI03SY8bH45eiBb79Zs3zSnR827X4xDrK1BgMBm7CCgWIak1HorYaVKr1Xp2eWkiXrCwVy425AhUcMg0RTM/gAjwuITfRDcIhgNRNhLhGyXwHH0XISOgSHhCTZD9bhAsNxUOj7Mh0IdQCsrIEoPtOUExXfg5iEhAexDzRTVwNET5QNzW9oukk0PVFUCBHpHlUnBJL1VsDDexwuwSWFSm7J6XCK4SIveFxh7jAhNIr1s+FUM00tb2UUZRymdWFaVPwQJQm3fTI43gMHw0DxP7xDqOg6eDcPWQ5AoCV0TKqKh2jqMJIScPXEsd3Ht25d/PPqKXZ4Qhqboyk1xyaslCKXDvplrNeiae+5c/91Xwd0hUW4IIBPMuGiJeRdgC+ggOdFyIoGjhOsZHy8k0GCNwCHQ4RpmvS+MViGt1YxOj3U5jloNK0LT/NbmRBY+rcBhaVUR6zf8YSBy+QhEMZK3GeCQGEAhTGg0uykjGmt8jiWQFF8ECWa6sZpFUWl15A4DvAmBeBycuAIgWEY0DgRDokGz5rwcCyIqsLp4GFypnV9SabvCeldSI1GqbPYv2Xj2vVdGjdMB26yTXwKBGzCegqw0lvTeuOmL6/crEWzWJ0BT3h4DBbn9+7dfvvKxctFShR8I0fBfEWckZngNwAf3W5RuuGFhwn2aA4oQ4dAiEUuiqKAF0WL2HwBPxwOB3RVg4t1wDBM6Dx9QylDckkgNEmfqlspZ3hw1raNCqHFIxRDg+gUIcsynJJgvbUjhOqmd2EYq6grrcdKAjJcogBCDPACB422MzR4BBZu1oT/zk3cvnr1lysXrp68ei/heqNevfrHBWQ4eQ5uouLeheNXxtZ87bHVeNKbP2177QR+/9VzoO+abRejS1fK5wUPt+RAJAF6N21YJ37v2k3/O/CXSmcp8tprtUuUf+2NsIyZX3GHZ8wXnSmzw+12Q1VVEIMmtWLAOZ1I8PlhsjwITY1Mt230QFsDpRqrtiFdadGTbhqJz4sCGI6HJtNVmQjNr8MhOSAIdCv3x3ZO4qErgIPe36OcRrd0rAkHTIiqbpGZSQjux9y9effuzZu3b1799cKZoz+ePbJ/J479tSr1+LPxxAwPg+pXIZkBRMKP9gUf3ju0n/8eBGyH/vf48j9GMvXgFSJH50ISLbvFEESYfnxSKCRZPo8sWa1IrvyFimQulK9ESKbMOTLlzFOx8Kvl89/1qtA5ydq2qTIQ5QJ0r4EIBweiKTBNPwSPgDjVC8Hpgkk4K6aKVQCJF+Dzm5BppLmTR4BaIgKKDwiDgsCt36/dOHFk1+0L584YvqRbl879eujq4R1XkuOiMT9fTVQjs4SYBgdG9SKnm0XbOlVfxskjZ5LT326TPhBI1uRNH0Oxrfx3BOadTiD3+FCo0sNagbj7uzK0Uh5HSpEas/v0DVfuQtliFQ6MwFqrJdlrYvOqpRNPfbdjXaSbD82WIYQnrBJiCCzj1XXGYHjiTVQTec5jJMUlxLmjs708aNSIRapThJ/ebaTFo5N0ZGUCge6FQp9Yn/CfbG+9YtvJrGUqF3e43WBUIIzIWP3FmP77p48en9Lx2v3SHgI2YaU9nwTFoohK9SqPX7J6XwwrQqV5ijUDN47t+3VBoyqPLfjwOOWekq9FT1+38d594kCc4QYjAQK9IB1IwLB6tSNxen/ck4wfsud0UljO3B6vyFgJ/0QiIJvbhck9O31wafWcjU/q/0+fVx09fV6tNl3bJfgBU9ERDg0/f7126ZoBLVqmVKbdL+0hYBNW2vNJUCyq+Mmgbo16DZ4aozqst38ezsDpXV9/s7Jd/fefRcErrdo2aztw7PKAI9raauqsDl5JgvDgXtLQsoVDHyf70zVbT+QpU/6VRIZHvK7DJYqI1DXs/nLVjK8GdHpspZ4n2Zy/1SedOoycMMtLx2sQREoMrh3Ye2JKkzdKPqmv/Xn6QcAmrPTjq6ey9J0pMxZVrNu4lcqGWYUhwiHjm3nTZuwZN/CZiIEa0XL2ooWv1mrS+o4fIJIEiQecahKSLp/7beTb5Qr+naEtpi/Z+EqN9+oqrnAkqbAKUYSoOvzHf9g3tEH1159qcH/TWHjt7VJjl646qksRCKg0ql+G7/zZOxPeK53lWWXb/dMOAjZhpR1fBNWS+kuXb3/5zVo1VNMFB8sjwgxg1qDerc6vnL8kGIq6r9lxuGC5KmViDB6aCThMHVGCgd8P7vlpfJOa5R/VUbXn0Ikfdu/TK4lxIs6nQRIdoKVytFtXrg99PW/OYNhDZcy4fJ/cNySYghs8PWO7e1MbWCp7qhRZDZbNtpynQ8AmrKfDK920brtxy9Ecr1YspZtuK3tDBl3BqK6tqt7cviZoV1NG7/zpDpfr5UyK6LJSwUgGkEkAdq5dtnFV3xYfULAKdO7cof3A4XMCZjgYU7AKxYay9NJjLPq0rpdLPnrgWrBAnXbydxLnjkBAdMIEi3B/AgYWjrLneLAATgNybGemASekhgldvt3ze6aXS+fSTCckjSAjVLN9rTdz49KR68HSF17izfCRK1bGyZ6MiFdZsIQmwQM8uopvVsyfe/jc8W/6TZ+w+Z5iwiFmgJmoI5pwiORUjB3UocH5NUvXB8sWKmfK4fNeX1QWt5d3wuAERMgJZED+cKs0ov38dyBgE9Z/hx//YxR9vv/pcljel/OohgMOg0EUE9A6FHAHfXuUtfr7Jbt8PuEYsuZBQOMhBBiIYMBAtUIWAjxBkqJCZESEgEV2gcGs0QM/PTzn8y+CDf34fSfvslnzZ0xgRBCeR6TmQ69Xi4cj7nJCsHXZ8l4MAjZhvRjcU13r0H2nbog5CmTTdAlOMAg3fVrHgp6gExYdSInOnVs27T9icZwmwM2GIT5RgTtCgl8zwPEsvXEDB0Pgkn3Y9a9FMzaP6PHMB/9/B+Do749dc+cskiPe4EBEHlGmH/2qv5pbvnLuaqoDbit4LgjYhPVcYH7+Sob/cOoGn6NgNsOQQCNFQ5GkdSoQmiqERUf3SsdevToPHTfxfpIJMURCQAZUg1Z9JvDwDPhAAk5u+3bDik+b1k8tNEZ9f+J6SI4i2RN1HkRkEGXK6F2jlE1YqQX4C5BrE9YLAP15qOz33ZHLnvzF8piaBOF/znfCOa/eOV8I/THVnqqTlq6oVrtRE5mIYP7IukCT6NHsMvcvn/99QtWX8qSa8v+55TN239l7zkz5o320eIUARGoBdC3/sr0lTE3Qn7Nsm7CeM+DPS123r384FVmsXDGYEngahyUG0PWdSrlx7niqbI8KdR/cr03/wZ+ZuoQknwZwAnjWuioIf1I8IiMdOLpz23crW9erkVoYTDhyxYfQbC6FFWBwQLiaiB6Fw+w5nlqAvwC5tjNfAOjPQ2W7NVuPZnv1zVIgDiubQignY1yXlvVvf/vlhmDr/3jSoq8qNGlS52ZAAWtKEHkJqm5A4Dgr24Mk8fArfkQIDO6ePHHus/crFgm2DVTe5FO3iV+KgMbTKC8gVH6AXkXtsIbUwPpFybQJ60Uhn8p6689aur5k7YYf0LeEWkBHphAGKz4fNvLI1DHDgqm6x+rtJ/NXqFzcrxH4aVVpjwt+vwIHx4JhWegSB69fBU84OGjiUd6AHntLHdOxc3n/wa3Hg2bLS6WzzNq279Y9lYUuSGBMAubO5YSRFfOHB02HLeiFI2AT1gt3QeoYULrXgKGNeg4Z4dWdVnEG0ZDx08ZVm7/6tHXtYGjMVKxa3r5fTDomFigUlkBYMDrNNspA1VWEOwV8t3bdnD17963qPX70D5wnHKrGQTUMMIIJD6MiSpOxdNJngw7NnjQ2GPaUbN2zY5MBI2YHnCFQAbCqjNiTR36dWe/1FF/2DoZdtozgImATVnDxTDPSnFVqlJv0rw2HbvpYcJITgqFCvf7bzVFvvJz9WY0s22nIp0269ZgEdwgeBHTwDqdVmcfJmAgxFWxeuGDMt6O7D6Z6QkrXztBvzpT7rpx5ERsgkGiqZTkAj4PAYQRwdt+eA3NaNKj8rDZ9OHnZ+rL1G34QRwgCgQByRURgx+L5y7YMaN/iWWXb/dMOAjZhpR1fBN2SSScvEzU8h1V2ntEVRBANPd9+MxyXj6YskLJIEfGT4dOPFKzwWvF7hgGVcBAgwMEDamICPIaMxeNHfXBuxcz/SBPTf+fJq1G5C+dUwUAHA8HFQ5e9iHIJuH/porZm3oJWZ5dOWZFSEEb/eNkv5MjlvB9IgtshIdoEZgzo0eT8qrmrUirT7pf2ELAJK+35JGgW9f9yy+moUq+//MBgwbI8MroF7PzXgmnf9Gv31MVDq/QdMbZe244DvJwDiYSF4XSBlqFgVA0RjImIgKx0aPJuXhw/cOufBtBt4ebv8lWtWj0eLAyTgWYaAE/g5Blw8QmIu3zpyMT+A+rg3L7bTwNC9tqta/WdOmtLrG6A9QhwwQSu3USf8vns+f00QKaDtrZD04GTUmpi2WYdO7Qa9cWcON5hVUMOxPkRoiei3ytZku33Um26d/iwTftxjoyZIjTJiQTNBCu5oRgmRNNEFE9w9ofdR+Y3rVk2OXZW7j3203rtO04yeA9UTkASTZfMErgJzeMeQDhj4sj2bRsXdJnbENijJ0dm969/up21aMnMqshD1pMQoilIOnbq+JjG1Uslp7/dJv0gkOyJm36GZFv6KAJTT90h9zk3IHkg0rxV8CPh6rlTo9949ZXHIVW686D+9Vu17evOmCXCbxJoDAtd18GBhcDTLaYJj6Fgy4JpfbZ+Pnji06AeWfzN7N2nzfjBmTVPXl10wWuYkCQWAb8XYR4nDF+8VRnn7KGD362dP39s/J7Ne/5Jfv1py9ZU/fDjD+/7DRg0WBU+RBsGZnfrUfuXLcs2P41ddtu0j4BNWGnfR89kYfUBE0bV7dBtsB8SEhUNHicLVkmE78Yl3/5vvx7/28H9uxnO9EVkzF4ke77CpYpWfL1axtwFX+EiMsBrACrHQtU1sKaJCKcDRkI8IiQJty5dPjuid8cqOPXjvZQaWG/Cosmv12nUk3U7EesLgBFoRR5A02WESBJ0bxIiBAH3r1z2P7hx7cjFX04fvHrl0iWeA5svb65ixV+v2iS8cKnIBxqtIiaBM2kFawO/7f/hxIwm79mZRlPqmDTczyasNOycYJk2/odjd52Zc2UM8C4YvGARl9vhgJMWTpUT4OIYaISHznAIEBZ+WtZeFKwVCy3cTLN3hvAELlUGFx+Dr5ct+2Tn1DEzgmJf6eo5uw8cvqZg0eLlArTalyjBp+lgBBGE4awiqgLHgCMmWGJA5OkKjwHRNXg1HV64QRgGHhaI4HQI3vvo0rBOfuWXo5eCYp8tJE0hYBNWmnJHKhlTvLh73tKN3jh6wS48GqrgsIqn6gbg5kxwrAlVIzAYFgbzcErw9F6NrkNkDLhMDbwvHif2fr9gadcW7VLDymLNu9Rp1rLd1MhsuXN5TcAQ3fDqJogkQieAQatKc4wVPkEMBQw9+2I4q05YiMhAvXcX2dw8Zo8Z0vLostlLU8NGW+aLR8AmrBfvg+djQf5yofO+XBVDQqMEH3j4WA4mrcZMSy3zHHRaUJ6WgCcE0FWEcixcmgHRm4Sfv9s+f1GfVu2fh6GvtujQ+MPmHUaEZstZgPGEITagQKfVqDkeBmiFaFqvDGAYAhEsJFphWvYja4iAySMGNz++cMry52GnrePFIGAT1ovB/YVpbfXF4iWl36zaggkJASQ3Ev2yVfBU1RWrLLzLIcD0eY3LJ04eO7Fv77ID00cFZ+v3tCMuVibvR606DixR6bX3nWEZolmHA7JOaZWF5HSAMIDh88OhKvjl0I/b544d0hyXTqR5jrkAABB4SURBVKX4PO1pzbPbvxgEbMJ6Mbi/cK1lO3Rvni1XgYpR2XMU0DTTNAKBm96Yu9dO/3h4z6Udq75/4QY+akDRCpGlS5SqnT13rsLhYRG5ABb3Yu7evXPr1v7j/5oR1DTLaWrctjH/gYBNWPaksBGwEUg3CNiElW5cZRtqI2AjYBOWPQdsBGwE0g0CNmGlG1fZhtoI2AjYhGXPARsBG4F0g4BNWOnGVbahNgI2AjZh2XPARsBGIN0gYBNWunGVbaiNgI2ATVj2HLARsBFINwjYhJVuXGUbaiNgI2ATVhqdA/379+/J8zxvGAahyRNM06QXk4ksy3E3b968d+HChR9Onz4dl0bNf25mtWvX5uPo6OiMpglcvXr10qpVq776d+WlS2d1fViv/YBXXy1X2R0SFqrqhnbl6rUb23bsWLb6X0s3PTdjbUXPjIBNWM8MYeoIIITQtAR/8Q8lLZZlrQwL9N+YmJiYoUOHfjpnzpx0laGAknHv3r0HEUK448ePH6tRo0a1lKJ46tSpk4UKFSouiiL27dt3/PXXX/9LWuQNG9aurFe3XmMqn6aQZ3kOmqZBEARQkouLi43t1KlTw7Vr16at+5MpBeS/vJ9NWGnUwY8SlizLcDgclqU0TTHP01rOeJga5n9YbcSIEX1GjRr1VGmKX+SwJ0yYMKpPnz6DKQEfPnz4lwoVKhRLqT2HDx8+VaZMmWI0Lc73339/uHr16uX+lLVy5cqljRo1as78keMLAF2t0od5FEdVVdG1a9dW8+fPX5JSO+x+zwcBm7CeD85PreVRwjpz5syFs2fPnjUMg3e73SQ6Ojp3+fLl//dLnpCQEB8eHh7x1EpeUIcRI0YMGTp06EhKWAcPHvy5cuXKZVJqCl1hvfTSS8Upie/Zs+dglSpVKv4hiyOEWEUsKCElJCTELly4cNaFCxfO5ciRI0P16tU/qFix4puU9OnqbPbs2bM7d+7cOaV22P2eDwI2YT0fnJ9ay6OE1b9//x7jx4+f+qiQOXPmzG3Xrl17urJQFAVut/tvfTl27NgRRYsWfTNTpkwev9+vnT59+uz69es/37t377m/Mypv3rxh3bp165s3b94y4eHhHirfMAzftm3bvp0wYcKUxw2kbt26tT7++ONW2bNnz+vz+RAbG3tt586dX82dO3fZn/369u3btUyZMq81aNCgIf3dpUuXbk6bNm2kx+MJuXDhwsV169Z9/TRgnTx58mTx4sWL0z4HDhw4VLly5Qr058GDB3cZOXLkjD9WV6RKlSpZ9+zZc+dR2YMHD+45atSoSR9++OG769at2/o0eu22LwYBm7BeDO5P1PonYdFVyMSJE4f269dv1KOdGjZsWGXlypW7OI6zfFi+fPlXfvrpp1N/tqlbt26NjRs3bqPbnz/PvP7cGlGZCxYsmNGhQ4dPHpVJt1CNGzf+mK5IRFH89/MzaztVvXr1Yrt37z7z7wM4ffr00aJFi5aiOh7dbtF2t27dUhs2bFjqwIEDZ3SdJjwGOI6zVj50dfPnv3v37j34xhtv/LlCeiJGtMGZM2eO5c+fvySVs2vXroPVq1e3+vfp06c7JVg6VqqzXLlyeU+cOPF7soTajdIsAjZhpVHXPLrCGj9+/ID+/ft/9qipHTt2/Hj27P/X3pUANbldYX5kE5W+CAHEpaKoRUgxLLIvGnlqZVEHBIupTF1QS+sSQECFhyBoVGhHcYMZQMSHAiqLVqkgO0JIRAUZWcXK4qDggkZBSOek+TOBp0SYUczMuTOOSf577jn3u/f/OOfc8yenkz59+kRAODR37tyfmpubhb/obG5uPu/u3buP+/r6CCAQRUVFQU1NDZdCoczU0tLSgv5AElFRUaxffvklGmQ8PDzWJiYmpquoqMCeELx69aq7ubn5ibq6+u+mTZs2FwgByK+rq6tTU1NzmqQtDx484NFoNDoQlby8vAAOBMgDgsHBQQLe5+Tk/NvZ2flP5Lwk83KDg4MgQxQUFNxZsmTJ0tEsCY/Hq6LT6SYgU1xcXGZnZ2ctms/K1NTUG/C6r69PQBBED5vNPpWQkHCuqanpv6PRgX1/HASQsH6ctRhiCXljQ0jGYrH+HhMTI/6qYvBy4uLiMqZPnz4PPBUgBCEziVp5eXm+sbHxEiUlJUF1dTWHTqeLE9FxcXEx3t7eOxUUFIj29va306dPVyPlDA0NtXJzc0vPnDmTdPDgQbFHx2Aw4PP2vr4+eRUVFYGVldX88vLyRpDbsmXLurNnz16CkzfQx2az9+3duzcKrq1cudIiISHh2oULF075+fkdJPVERET4BQUFsYEAKyoqKq2srMT2jXY5Hjx4UEmj0czAiywpKSlzcHAQEha058+fv9DU1FQXhbXiw4pXr171V1ZW/ic1NfXXhISEC6PVif3HDwEkrPHDfkTNkoRFchF5HA8hDhAOOcDFixcTvLy8/kq+B1m4SUFu2bJlhnl5eY8klb18+bJr6tSpGvCZpGc2kkGtra11s2bNWgDjenp6/nz58uXb0B/IcfHixUvAs8rMzLy2evXqtdIgjYqK2h0QEHAcvKqSkpIKW1tbC2kyX7oOhGVgYGAGpF1YWFju4OAgDil1dHRU792716SpqakN8uD1ASYS3C7X3d39JjQ0dPPJkyfTxmoDyn0/BJCwvh/Wo9I0nLDIEGtYWYOgtraWa2RkJD5ls7GxmVNcXNwo/PUbOTm5w4cPB0C9E/we1sDAwMCHDx9eBwQEhE6ZMoUKJOPq6mqblZVVKmmcj4+Ph4mJiaW2tvYcXV1dnUmTJk3S1dWdPzAwQIBH5+Hhwbh8+fIdkOnq6urQ0NDQhrDO19d3w+nTpy9Km+ihQ4f8g4ODj0A4e/fu3UpbW9sxe1j379/nGBgYmIJdUNbAYDB+M1ZkZGSIu7s7U09Pb66IuAjAU7I8ZNeuXeuQtKSt3PhfR8Ia/zX4rAUC+AkbOTl5qHSHmxGO5dXU1NRFoZ8AclBeXl426enpZZIDeHl5rUxMTLwOHgf8I3Nckn2A9OCGhbyUm5ubS0ZGRjZcZzKZ7jExMbHq6upUsr/ImxMWW5LhpyRhDQwMDPb39xPKysqCVatWOdy4caNIGqRsNnv3nj17jsN4HA6nYvHixcKTvbE0DofDNTU1Nebz+TAW197e3nSkcfbt27fL0dHRxd7e3gHya0DsYAcU4VKpVPG8x2ILynx7BJCwvj3GY9JAEhYkwAMDA/925MiR0ydOnPinr6/vP0QV8IKIiAj/AwcOHJdU4Obm5pSWlkY+biIoKysr/PTpk5KCgoIiQRBKBEF8UFJSGpwwYcJEgUBAhIeH+165cqXUzs5uZmFhYasoSS7g8/kCDoeTV19fX1tXV9e4f//+YAqFMk0UEoo9LInTTIGbm5vd1atXS6RNOCIiYldgYKAw2V9aWgong+K8kzTZ4ddramqqFyxYYATeUmFhIc/BwUGYgP+aVl1dXUl6p/39/QIlJSX5r5HDPuOHABLW+GE/omYRYQlDFzabHRQUFHQEBFpaWupnz56tB0lmKGkwNTVV4nK5/eRglpaWfygrK6uFE0JIghP//3lkqS01NfX82rVrN8AjKx0dHc91dHSGnAQ2NDTU6enpLXj//r3c9u3bfz5//rwwh9XW1taho6OjBUTm5+fnEx0dHSdNWVhY2O6QkBCozCfKyspKra2tbaXJfOl6Y2Nj/Zw5c+ZBXur27ds8R0fHIYTFZDKdk5OThR7k8Obu7m6fkpJyR1FRUXgyamVlNbO8vLxtrLag3LdHAAnr22M8Jg0kYcFNHRISsi88PDwSBrKzs9MtKChoEtUXES0tLVx9ff0hYRDIgqdEEIRg69ata+Pj46UWY3K5XK6xsTEddJw7dy7ax8fHT9Lwjo6OdiqVqg3hk7e394qkpKRcuF5VVXWLRqM5QnjJ4/HumJiYSH0uMDIy0s/f3x8ImHj48CHH2Nh4zDmsrq6uLg0NDQ0IWfPz80tWrFghJr/Y2NhjmzZtYjU0NFRD2cXwhTh16hR7+/btME/4wwChN3pYY9qt308ICev7YT0qTRKEBfVSgcHBwVAGIGxxcXHHNm/evAdew4167NixIdeLiopu2draOpKJ+tDQ0CAglt7e3neLFi1ihIeHH3zz5k338uXL//jo0aM+GKegoCDPyspqCXhYXC6XY2pqKiQRZ2dni9DQ0H+ZmJiYgRcFY3p6eq5IT08XEtbGjRv/Eh8fn0gmsK9du3Y1Pj4+sqen5wWdTjeOiYlJr6+vrzA0NBSf3vn5+a0LCwv7VVVVVZhDMjMzo3C53Neurq7mmZmZFV8C6uTJk5FMJnNjVlZWzuvXr3ttbGwYRkZGRmT/6OjoKBaLFQzvY2Njj+zYsSMAXosOKgQ5OTnXWltbm6lUqpq+vr4FjUYTPt4ETwp0dnaC57pgVIuEnb87AkhY3x3yr1NIEhbcTCdOnNjn7+8vrG0iW1tb22MNDY15ZKW4srLyEO+Az+cPiIpAhSIwjrKyMikufPiXz+e3qampzYAPt23b5gknfCTJkdXnZCkF/A9hFxCTh4eHuKwBZKuqqvLpdLoDWTJAllSQJ5rwvr29/dmMGTNmkQaQpRdwDQ4HoIm8nC+GsN3d3S8oFIq6qEBVKEfqgsMJBQWFIRg8fvz4sZ6eHoSLBMwH5k/OB/TB40OqqqowL4GTk5PZ9evXuV+3OthrvBBAwhov5KXoHcnDAtGFCxdOrq2tfQ2JcyCK+vp6+JoVcdhjbW2tk5KSkj9z5sx5UO9E3tggCzdvR0dHg42NzaJnz57xSVPS0tLOuLi4bCWr2slvN0hOTj4zefJklTVr1nhD3/Xr1zumpqbmSU4hIyMjafXq1UwgEZIURKUVgqdPnzYO916OHj0axGKxDoHtZHgLOTcGg2Gan5/PGw6PpaWlXklJST3k7sALBB1AnqDj3bt3L5lMpmtmZuaQE1MYIzk5+eyGDRu2wGsRBkIsRAQHOcGGnTt3bsjOzub8oFsBzZJAAAnrB90O5ubmC+Xl5QehVqqurq4DChyHmzp//nwNdXX1nyZMmAD9JhUVFT0c3sfFxYVuYWGxUldX9/dAbp2dnc9yc3Pzb968+dnTPAaDMWfNmjXb4JGcJ0+ePA0KCoLcmQCKMPX19Wf09PQM8ng8YZX75xqLxdqhr6+vO3HiRDXwqrKzs9O/9KA15ONcXV3/TKVSZ338+PFtU1NT8+HDh09LfA3MEBU0Go2ydOnSdUZGRvNUVFTUent73+bl5d26dOmSMDwdqTk5OTGg5IFCoWhCPVljY2MLh8PJLigowOcLpYH3A11HwvqBFgNNQQQQgZERQMLCHYIIIAIygwASlswsFRqKCCACSFi4BxABREBmEEDCkpmlQkMRAUQACQv3ACKACMgMAkhYMrNUaCgigAggYeEeQAQQAZlBAAlLZpYKDUUEEAEkLNwDiAAiIDMIIGHJzFKhoYgAIoCEhXsAEUAEZAYBJCyZWSo0FBFABJCwcA8gAoiAzCCAhCUzS4WGIgKIABIW7gFEABGQGQSQsGRmqdBQRAARQMLCPYAIIAIygwASlswsFRqKCCACSFi4BxABREBmEEDCkpmlQkMRAUQACQv3ACKACMgMAkhYMrNUaCgigAj8D/DHn4n1JzIVAAAAAElFTkSuQmCC;" parent="1" vertex="1">
                    <mxGeometry x="175" y="456" width="150" height="84" as="geometry"/>
                </mxCell>
                <mxCell id="22" value="" style="shape=image;verticalLabelPosition=bottom;labelBackgroundColor=default;verticalAlign=top;aspect=fixed;imageAspect=0;image=data:image/png,iVBORw0KGgoAAAANSUhEUgAAAfQAAAH0CAYAAADL1t+KAAAAAXNSR0IArs4c6QAAIABJREFUeF7s3Qd4VUXCPvD3tNvTSYFQAoRiAEGxYWGjqNjFgooFewMLKiqKFaXZFeyLIlbEQlGxi2svuIrSWygJIb3detr/mRPdv1v8JJCE5Pjmeb5ndz/uPWfmN3Pve8+cOTMS+EcBClCAAhSgQLsXkNp9DVgBClCAAhSgAAXAQGcnoAAFKEABCrhAgIHugkZkFShAAQpQgAIMdPYBClCAAhSggAsEGOguaERWgQIUoAAFKMBAZx+gAAUoQAEKuECAge6CRmQVKEABClCAAgx09gEKUIACFKCACwQY6C5oRFaBAhSgAAUowEBnH6AABShAAQq4QICB7oJGZBUoQAEKUIACDHT2AQpQgAIUoIALBBjoLmhEVoECFKAABSjAQGcfoAAFKEABCrhAgIHugkZkFShAAQpQgAIMdPYBClCAAhSggAsEGOguaERWgQIUoAAFKMBAZx+gAAUoQAEKuECAge6CRmQVKEABClCAAgx09gEKUIACFKCACwQY6C5oRFaBAhSgAAUowEBnH6AABShAAQq4QICB7oJGZBUoQAEKUIACDHT2AQpQgAIUoIALBBjoLmhEVoECFKAABSjAQGcfoAAFKEABCrhAgIHugkZkFShAAQpQgAIMdPYBClCAAhSggAsEGOguaERWgQIUoAAFKMBAZx+gAAUoQAEKuECAge6CRmQVKEABClCAAgx09gEKUIACFKCACwQY6C5oRFaBAhSgAAUowEBnH6AABShAAQq4QICB7oJGZBUoQAEKUIACDHT2AQpQgAIUoIALBBjoLmhEVoECFKAABSjAQGcfoAAFKEABCrhAgIHugkZkFShAAQpQgAIMdPYBClCAAhSggAsEGOguaERWgQIUoAAFKMBAZx+gAAUoQAEKuECAge6CRmQVKEABClCAAgx09gEKUIACFKCACwQY6C5oRFaBAhSgAAUowEBnH6AABShAAQq4QICB7oJGZBUoQAEKUIACDHT2AQpQgAIUoIALBBjoLmhEVoECFKAABSjAQGcfoAAFKEABCrhAgIHugkZkFShAAQpQgAIMdPYBClCAAhSggAsEGOguaERWgQIUoAAFKMBAZx+gAAUoQAEKuECAge6CRmQVKEABClCAAgx09gEKUIACFKCACwQY6C5oRFaBAhSgAAUowEBnH6AABShAAQq4QICB7oJGZBUoQAEKUIACDHT2AQpQgAIUoIALBBjoLmhEVoECFKAABSjAQGcfoAAFKEABCrhAgIHugkZkFShAAQpQgAIMdPYBClCAAhSggAsEGOguaERWgQIUoAAFKMBAZx+gAAUoQAEKuECAge6CRmQVKEABClCAAgx09gEKUIACFKCACwQY6C5oRFaBAhSgAAUowEBnH6AABShAAQq4QICB7oJGZBUoQAEKUIACDHT2AQpQgAIUoIALBBjoLmhEVoECFKAABSjAQGcfoAAFKEABCrhAgIHugkZkFShAAQpQgAIMdPYBClCAAhSggAsEGOguaERWgQIUoAAFKMBAZx+gAAUoQAEKuECAge6CRmQVKEABClCAAgx09gEKUIACFKCACwQY6C5oRFaBAhSgAAUowEBnH6AABShAAQq4QICB7oJGZBUoQAEKUIACDHT2AQpQgAIUoIALBBjoLmhEVoECFKAABSjAQGcfoAAFKEABCrhAgIHugkZkFShAAQpQgAIMdPYBClCAAhSggAsEGOguaERWgQIUoAAFKMBAZx+gAAUoQAEKuECAge6CRmQVKEABClCAAgx09gEKUIACFKCACwQY6C5oRFaBAhSgAAUowEBnH6AABShAAQq4QICB7oJGZBUoQAEKUIACDHT2AQpQgAIUoIALBBjoLmhEVoECFKAABSjAQGcfoAAFKEABCrhAgIHugkZkFShAAQpQgAIMdPYBClCAAhSggAsEGOguaERWgQIUoAAFKMBAZx+gAAUoQAEKuECAge6CRmQVKEABClCAAgx09gEKUIACFKCACwQY6C5oRFaBAhSgAAUowEBnH6AABShAAQq4QICB7oJGZBUoQAEKUIACDHT2AQpQgAIUoIALBBjoLmhEVoECFKAABSjAQGcfoAAFKEABCrhAgIHugkZkFShAAQpQgAIMdPYBClCAAhSggAsEGOguaERWgQIUoAAFKMBAZx+gAAUoQAEKuECAge6CRmQVKEABClCAAgx09gEKUIACFKCACwQY6C5oRFaBAhSgAAUowEBnH6AABShAAQq4QICB7oJGZBUoQAEKUIACDHT2AQpQgAIUoIALBBjoLmhEVoECFKAABSjAQGcfoAAFKEABCrhAgIHugkZkFShAAQpQgAIMdPYBClCAAhSggAsEGOguaERWgQIUoAAFKMBAZx+gAAUoQAEKuECAge6CRmQVKEABClCAAgx09gEKUIACFKCACwQY6C5oRFaBAhSgAAUowEBnH6AABShAAQq4QICB7oJGZBUoQAEKUIACDHT2AQpQgAIUoIALBBjoLmhEVoECFKAABSjAQGcfoAAFKEABCrhAgIHugkZkFShAAQpQgAIMdPYBClCAAhSggAsEGOguaERWgQIUoAAFKMBAZx+gAAUoQAEKuECAge6CRmQVKEABClCAAgx09gEKUIACFKCACwQY6C5oRFaBAhSgAAUowEBnH6AABShAAQq4QICB7oJGZBUoQAEKUIACDHT2AQpQgAIUoIALBBjoLmhEVoECFKAABSjAQGcfoAAFKEABCrhAgIHugkZkFShAAQpQgAIMdPYBClCAAhSggAsEGOguaERWgQIUoAAFKMBAZx+gAAUoQAEKuECAge6CRmQVKEABClCAAgx09gEKUIACFKCACwQY6C5oRFaBAhSgAAUowEBnH6AABShAAQq4QICB7oJGZBUoQAEKUIACDHT2AQpQgAIUoIALBBjoLmhEVoECFKAABSjAQGcfoAAFKEABCrhAgIHugkZkFShAAQpQgAIMdPYBClCAAhSggAsEGOguaERWgQIUoAAFKMBAZx+gAAUoQAEKuECAge6CRmQVKEABClCAAgx09gEKUIACFKCACwQY6C5oRFaBAhSgAAUowEBnH6AABShAAQq4QICB7oJGZBUoQAEKUIACDHT2AQpQgAIUoIALBBjoLmhEVoECFKAABSjAQGcfoAAFKEABCrhAgIHugkZkFShAAQpQgAIMdPYBClCAAhSggAsEGOguaERWgQIUoAAFKMBAZx+gAAUoQAEKuECAge6CRmQVKEABClCAAgx09gEKUIACFKCACwQY6C5oRFaBAhSgAAUowEBnH6AABShAAQq4QICB7oJGZBUoQAEKUIACDHT2AQpQgAIUoIALBBjoLmhEVoECFKAABSjAQGcfoAAFKEABCrhAgIHugkZkFShAAQpQgAIMdPYBClCAAhSggAsEGOguaERWgQIUoAAFKMBAZx+gAAUoQAEKuECAge6CRmQVKEABClCAAgx09gEKtFeBESMGoVf/Qw869LAHcmrr8fqtU1Kw7pu69lodlpsCFNg1AQb6rvnx3RRoLQEZvQvTOwzd92RP55z+mX17X4nsbJSFkhCSFeRu244lt4/zYOlSvbUKxPNQgAJtS4CB3rbag6WhQKNAfr4X6d1CCCR3lPsVHNbngEPO92d3GpTwBBCzZcjeEGpNE+GQCl80jPzSUnw9eSwDnf2HAn9hAQb6X7jxWfU2JlBQ4IGamurv2fNv3fv3Pyy7V4/LvJnZiGkeVOs26mwvNq7bMkft2X9YUnrH3ChMGD4TafEI+pRX4vP7r/RjyZJYG6sVi0MBCrSSAAO9laB5Ggr8l0CnwQGkpyYhrUOu3D/vmIw+fQ/O6t1/uNcXQMiOQ4vUILF9a2LLyhUTKotLv6/fXLIaA4cdm3faOc9UB1MQ9UiQ0IBgXTX2qIvgi/uuYaCzm1HgLyzAQP8LNz6r3uoCEvIKvUjT03NyuxyYntdrcJcB+0xAejqsFD8iqoqKhjjKt2x+u+rnnxZh1Q8LgEgFqqq80DQbmd369Tn/mq/jeX3krZIXhmwixasjpa4aOdur8e0jNzHQW71JeUIKtB0BBnrbaQuWxM0CeYW+DkMHnKt16zm02+ADzrQDqYCZQLYcRWz7Vmz46edJW1au+zy+feUXqEyyUPQfQ+f998/OvvSqZ5IOHnrMBl0CkjKhmDr0db9s75ualJ1RXoUvHr2Vge7mPsS6UeBPBBjo7CIUaCWBU2e9Zstdu6PclLCyqDhauuqXcfjxvYXIzCxHebmEJUuM/1WUlAEHp1lHnnBDl1NOmVCkytD9IUgG4I3GUT/3uaMGHHnku9mxGD6cwUBvpabkaSjQJgUY6G2yWVgoNwoceNKow8pi4ep1ixf+swn1k9Ujzh1SMO6Gz4vT0hFXFWgwkGo0YOOnn92FL+dP2++8G8IdIOGdKdODWLoo0oRj86UUoICLBBjoLmpMVsWFAkOGpw84+9olNXsMHFCfkgRTb0CWFIO0/Psv18167ih8sXd42GuHmQHTwKLJ00JY9n7YhQqsEgUosAMCDPQdQOJLKLBbBAYPDsiHjbop79izbilXQvClhRCr2Ypu0e1YO2N6r3hdeRH8fuX4866PwTawaNKUJKxY0rBbysqTUoACu12Agb7bm4AFoMD/ECgsVOFJ2a/n9Xd/UZXVExFdghytR3ctirWvzhqjPzDpceddgw9POfG662skj4z5t01moLMzUeAvLMBA/ws3PqvehgX6D8vuM37c9w39BnXeJvugyR5kxuqQ8vNX3y2/5LT9/lXyvQ7JHHHDxDLbI2HBrVMZ6G24SVk0CrS0AAO9pYV5fAo0VSB//+SM0aMnpx129BWl3gBMrwdyfRV6xmqx7IG7B+DtN3/51yH3LcwZMf7GbbYKLLjzxhCWLeM99KZ68/UUcIkAA90lDclquERALP/ada9D+tx0x4dbQumwND+UcBXyjAqsf3PO+bEHHngOgP2v2u4/LPvEG24oBSwsuPNBTopzSTdgNSiwMwIM9J1R43so0FICBw/rPfDKiau35Q9EmeSFBxa6mA0wv1ywoOjN6WdgSdH/X6s9L8+H5E7JJ9xxx3ZbF7PcH2Kgt1S78LgUaAcCDPR20Egs4l9EoLDQpx1z0qyuJ55z5kYxV13SEIxG0LF6C9Y8dtueeOedn/9NovMQPzLV0Am331FmN8SwaMq9vIf+F+kqrCYF/pcAA539ggJtQ0Dxn3XRqR2vuPGVDUoQUP1Ik2Rk1pZjzZwnT8VPHy/8r73OxRV6Vs/gcRNvrrAr6/H2fQ8x0NtGW7IUFNgtAgz03cLOk1LgPwQOG9Gz4Lwx6+ryB6FU88GSLHRDBPho4VMbX336it+FuQLA/PXdCg4+OPm48XdVWaXVW96Z9kjv/1oDntAUoMBfRoCB/pdpala0zQrkH+3tePFpL6UedPjJ25UUJFQFfrsBSVtWYsP9k/Lw5cebfit7QUFBaMWKFf9/8ZjCwtRjxt2xySwum/je2NMe/bcJc222wiwYBSjQEgIM9JZQ5TEpsOMCUuCSm8d0PfuCmVs8Adi+JPgTUWRUbMX6V589xZw9Yz7EFPZf//Ly8nxFRb+bGHfQQUnH3HzPXu8ce9A/dvyUfCUFKOBGAQa6G1uVdWo/AsNPHzhgzDU/bk7PQiw1FbJpo0N9DQLffPbE6rdmX/lHO7D9q4JiRbk/2KWt/SCwpBSgQHMIMNCbQ5HHoMDOCUgdH33pI2nAfocaqWkI6zrsSA26VVVj5Q3jk7H6i/qdOyzfRQEK/BUFGOh/xVZnnduCgNTxursnppxy1l1bNR/iho401UJWtB6/PHDfPpj/3NK2UMh2WgYZBQUqVqxINKn8gwdr//UkQZMO0G5eLP/+Nk6TSs0RoSZxtfaLGeitLc7zUUAIjDhvUP+LrvhnaXZ3VMoS/JqO3EgNogsWTds6dfxNbQJp5EgF5eVS+xnSv0PGSeuGyXk9ClK65OV7MrOGhzKyuliKx6fIHkiqBgUKZEiQxFp7UgIxsxaJWCSSqKgqCpdVfBQp2b7SKi39Aa88+k2baIPmLMSwkzLQseewUPf83hmdcoZpKal7edM7pBiKAllWAUmCJEkwJBuWbcOSDeixGCQjEbfqa0oi5eVrE6Vln8XLS7foW8q/w+JnVzRn8XisXRdgoO+6YZs/Qu75Fx3W85izP4onZcLj8SChR5BABKatI5CUBE9UR6AsjO/mvnxA5YKn2vwXWbeTRg7pdeIZXxqp2dDrY6ha9cutKyePu7vNN8RvBSwo8OSNmbRa2W9oXpHtgerTkG5WwfvL0i1Fo1/sDsz77bG0VqvSEY++FpO69vbCo0KXbDQYUUiKBM3rgTfcgFDJBix88WmtrYW7/+QLD0rrnT+88x79Lw7m5uY0eP2ogIQ62Yu4x4eoLcMUYaWokCUVKhRIlg3YJizogMeAYpvwJUwEDAtB3UQgHoNSVwNPXc0/N3z5+dNlvyx/HV++WdZqjdGMJ1JOPvfYrD0GHtlp4D5X+XK6oFZSUK2bMFUvrEAQdZYBU5EhSYoT5hZk2JBhwobtPB1pQYUFr5VAQDeRZBkIGRa0SBRquAHhjevfK1/x07ztK394E1+9V9WMReehdkKAgb4TaO3tLXs88OwSe6+//a1CC0L2yDAkC6YSg6pJiEXqEbIkZFkeVH780eMlt146po3XT+58+ujhHS8Y9055SiYkAwhVbsPPj90/GO/N/aGNl90pXub4uyamHnPm3WVJHaB7/JDrytG1ajNWPPvkXpg/+8fdUYeD535tV2Z2RURTEFeAOBJQvSoSuon0eBi9q8vw3ohD2sb3xXEju/r2+tvo3EH73mVndEBUVWBKMkxFga4oMGQFlqzAkBTYsgJblNqWnaty27Yh2Y1L4ZviPy0LkmTDY4v/AxRbgmJbgBkHEnH4dB2ZGhDbuP6btZ+8N9Wc8+CC3dE+TTrnYcflJu8/9JKO+x1yG7I7o15RELclmJIEOFfiCmxLRUKyoKs2TKdVxSh8o9Pv/2RZuNmwDN35T9m2oEGCKsvQoMOMVyJDtWFXlCLxw/fTt956/YQmlZUvblaBtvEBbdYq8WD/JnDQCZ0Ouvue4vXBLJRKKuCRAbE0iRUFJBOKJgOxOEKmitzy7Vhx+00p+GZxXVtWzBl54bEZY69/a10gHdC8SI/Wo3fZBnx67025+OKLkrZcdgw/aeCgCbf/WOTNRdQTgmpG0CVRh4YFr03Yet/103dX2QctXGZvSs9F3OuFrqnQ7Rigiu95Dck11ehbVoRvTzp4t35fhIaf0i95aOHNaYP3PzOakYMyS4XuT3LCCiKcJQuQZWfo2Lm4NM3G/y2e+hNBJf7dElejItgah91tW4YqideIYWbDCXxb/PuvEeeRJSDSgBQjhhw7AalodWT9J+9dVPfsjJd3V1v90XlDB56UlTH0wFs7DTn0ikjHLthkSaj3emCqsjMiIbb0kZ2xHxm2pDgGwsR2/u3XpnUcJXFTotFA/BCSJGd0wxKstgXb+tVVtQAlAej1SDZ19CgrxY9TbmlzozhtrZ1asjy79QPakhXjsRsFgtfdc0PHEaOmbwukIiyuPPw+wIoDehyS3wc7EW/8oNsyOtVWIfzKM6Oqn5jySlv2Sz36lL06XHjdD6Vde6PBF4QqGcgs3wD/j1+/sOGrD8/DvNYfst4hr8JCtc/Vt+sVnXqgzpMFK64jV66Bb/kPm9acP6LHTk9U2qGT/98vyn/rB7skpwcisgaIAGj85neCMCVajz7Fa3dfoA87KSPjkGNu63LQoVc1aCFUygbsVC9qTR22FITzC1WEsPJrsIsgFyGuiF+u4r8ajYEuXvbbFahlN95PNyVneNlUjMYfMOLDYIqreAmqrcC2JdiGCa9XgqZH4Y/VIkO2ULNm5ZrihfMvwBvPfdEM/Lt8iMDYmy/qftSJT+tZ3VCSMGFrfsS9MgyP4LEBwwIME7BUKB4NpioBhgHn8twZsBBeIvjFqIXtBLr4oSOL/+788BHD8Y0/dkzxMvEmywI0BRBX7XoUvaq2YcXVZyfh9wsf7XLNeICmCDDQm6LVDl/b54UlZkX3PeT6UCoS4vvNiDeOrokPsWlC1jRY4oOteJETrUfK9//YsHrJ3N5tNhR/a4PL7zg778wLni/yBQGfB5mqieSNq1Dxygtn1M6ZObctNlWnOx56Vj38uPMqkzMRSajIhIEOZSuw4uH7+uO915fvzjJ3f+d7uzgnHwkR6OKq9rdAh4KUSB36FK/GtycNbfXvi5Qx407N/dsx86K5e6BWS4XsDaImHoaBMLSUIAxLdGoZYre5367IFdGnLQN2IgGoznBU41WnqJdlwzYb1+lRIDmTwQxx1SmLq/tfW0AElfFrqHsC4qIeppUATAMKTHjMBAKJOHL0OGo++fDB4tuvvHa3tV1hoa/XUee8pe5/4LCy5BTUyAGYig+KCF5LB1QdMBPOMLumeaGYEmKxGKDZgNcLxMXtBftfoxaNP4BsZ6RCFkFuWdDkXyfNOWsOm86EOTEUbykKTDHiYYupCDr61JVh2bXnZ+Gfn5XvNo+/+Ilb/QP6F/du1eqHRpxdWHD91E+WwQcjGIDpUWDHY86Xm0dWoeuNQ2e2GHI0ZWTZcXSu2oQf7p3WGx+8tLZVC7sTJ8u++6lZgWNHXLBZUmCaJjqYMWRu3YiVTz+Wj8Vz1+/EIVvuLaMuObj3JWM/qwjkIKb4YUTC6IEoSl97+oKaR6Y+23In3rEj93znW3trTk/oYgqUuLIVw9POt4OKtGgdehWvad1ALygMZV143lPq3oNHRVOzYNp+xMUENzF6LmZli9sCsShg65BVGbKY0GWJ4WAJkrjSlFVnFLnx/rkz/t54FS+uQG3TufqUVAW6+Dez8apUJLq4N+xcp0sSbEWCZfz6o0D86JVlKIoXVsKAkjCRrknwVVUgtK1o04oXZw1r9T539NGZOaOv2qz0GeCrlzXUxURZ/YAmLsvFn6izuIrWIBs2rFjcGXXQAj4kVAlmIgZZ3HoQV+/iStyZGCfDctAaDU0xvO78z1+NnOH5X38gCSMD8Kg+aAkLXbdvwsrxF+VidRu/7bVjH4l2+SoGertsth0rdO+7H5xtHXrKuZs8ydDFF5UqQ2S3bRhQbdX54tNNE6rPB6MhilRFQnq0DOWLF0ysn3zt1Da/LviBJ2X1uGLM9tpu+YiH0hGLR5ADHVWffvhG5PoLRu7OIex/a6H9j+7cddxVW2K9ChCWg5ATNjpaOmq/+PCV7dePHrVjrdmyr8p/+9dA/3VymXM28e0gyUiLNrRuoB95fPfeZ479Nt6nf4eyQDKiigaIH6JOUIurbBHgPudKW1XikCUDmmlDTujwAfBKgGoYMOMR+L1eJPQYjETcuWKVxdWluH3sfB4UWAE/dBtQTQ2wVYhr8KhkI6LJSIjhZGcAQAI0n3N1a4Z15/yqqsHWdXhlAzlWBJkl6/DNrMeGYNHcr1u2pX49+pDh6fnjr6qs7bM3ynXVGZ1QkpKg2jISsTgkRXVG3mSPAimuO5P7QjbgNw3Yegy2GCZXxe+hOCxTXMX/VurGiXOK6oPs8TgTDROwEIMMS22ceJgQo/W2BUOMcKg+qJIGKQ7klW/BqmvO7Y5VXxe1igFP8l8CDHS3dorCEan7XH1N9abMPNQmd0BC3Ff87QtRN6BKCgznHpj49lOBiIGAbEGJ1qBj6WasmTw9iKWLIm2eZ+QFQwZdcPmX1Rm5qPL4UG9GkV1fB7z66kXbH7t9Vlsof/c7H58TOurYc9aJq6BgAEmxMLps2Yzv75naBd8s3toWytj7re/tzR27Q/8t0J0wbwz0lEgY+SXrsXTEgS3/fXHiWQP6X3D5spr0bqjzpSIiQtYrgjUBKOLqUFwpip+aQSAebxw61mNIMXR0sE2E6uqQ2LyhMrJx3RN6WcnP5ZvWrtY/mP/HTw4cP6qfEkrq1SErr2tWj/yzg3m99413yECpx4MKCdDFnJN4wgl7DzTnx5j4MaB4vTAl2/lBbMRq0EENI6thO5Y//dTReHn2uy3cplLv5+aX6AMG5myT0hCTvAASjVfR4oeP7IEnmAI9moCsGwiZMXTQo0gL18Lcsn5F1eo1L9Zu3bLKrK1eXv/uC6v/oKwSDjl6j7SOnXrKGR26hrp2GxTIy7vQysmWwoEQ6rwKoooKU1Jg6SLhPegZqcH6a0YX4IevV7Zw/Xn4P2w00rhPYPBgTR589EUFo897bLM/CXWat3FY0SfumSWgKhqUeML5lW0GxBdWDLLigWyZkOwE8sJ1KH7o3mMjrz/5TnvA6XLbA39PHnbshduS0lHl9SApGsOAkq348rH7BuLdl5ftxjpIOPeakQPPvGjutmAaGrwqPGoM6dXbsW3Oc6dFZ8+ctxvL9m+nFpPitnbqAh3ikS9xG6YxzMXQa3q0AfnFG/HtyUNaNtCHnzRwwNXX/1iV2RlVCCEKH3yKHzEjBngSQEA8Txd1Aj2gJUOLJ+BJ1KKDbCG2tbhh42efXoufvnkDH71Z+esk9X9tatMk55Fjjko9YMjZGYP2PqvO44cUSkFMByIJAz5vCLKqIZIQnx8TnmASDCkOK1qBDI+FLttL8OOsJ4Zj7nPvN+mcTXhx/qS/v2gOPfDM0qQ0RHUVUiAZthh9cEYexJxXHZotIWjoyAYQXrcqUfzdPy43f/nxdXw4rxYYqez0WgdHjchD375HZuy1901Zvfvm1YpRi1Aa6rQQsiqLsemys/YqQGLFiqau0teE+vOlfyzQsh9Qyu82gU5Pvr9BH7R39xq/BN15bEdc5aiAbiJky2hYt644vVvX3DqPmBRkQhHfBuKumyIjO1KH0CeLP1w/4ZIjdlsFmnjiPvPetSs79kStNwOarSA7WgPvmn8Wr5r+ZE+sWxxv4uGa5+WHHZfbc8x1WyN5/VBje+FXgNRIKWq++nBW1fVjL2oWzbvGAAAgAElEQVSekzTPUcSkuJKOXZz7p+JeauMCI41fD5mxCPK3bsLnI1sw0I89fY9+l41ZUZHdBZWqD5CDUGQ/4tE4AqEgIuJeNozGSdWRegTicXQ241CWfffLhn98fF14xddLmrzU6/9FJ5aBlTNyup548vm+PfrdaXXpjkrVi2rxS8d5EsADSTzjLkYJdB1yUhLsaD2yEEXy9s1Y+9QD+2P+vG+bp3V+d5Szxx6Rf+7F7ydyemBzOAop5GuccR6ToCkeWDCh6hGkm2Gk15Zj1dyXLjZLVz+Pxc36GZBQWOjV5Mw9ew076nylb7/LKvLyEKzbjnVjzhiQr+tr161bt3s+c80O3r4OyEBvX+21Y6U99Ow+Aybdt2qF1w/TI2atiElvEpBIICAmFNWH0fDhu/fkHXnsDSViuD05CYloFKqmwTANpBpx9Kgsxg/335yN999vHytkHT+qX79rrv9lu78T4r4keOwEOtSWomr+CxPLH548ZcfgmvdVne6e+YZ6+AknbZZ9CPqT4KsuQ171Riy9b2onfPbetuY9264d7feB7jyj7Ez5/jXQoxHkFxfhs5EtNOS+/wnZfa++amusd191KySYvoAz70r8CPUpXsTqI84Qt0eyINVVo6tPhla+BSvmv3qG+fcHWv6JhmEn98g45tjHMw/825FlPj+q4AG8AWeGuHj6S1iJe+/OkHcijI5SDClb1mDVrAd7YNGijbvWMv/+7vyFS+yqTj0RRgiW6ocuixELC6rmh5QwgWgDunhsKKuWbl/74t8Pw+IFLbs8a36+Vys4vCCp8OCZ/XtkH7h08tUdw9+tKG3OOvNYOy7AQN9xq3byypFK7s1D78TRp07clpLm/GIXz+F6nIlCMeeRG6uidEvdq/Ou6n/BxW9uCXZArZjVLJ5V1Q1IlokUCQhEalDy1huXYfqEJ9tJxdHhxrvHpxxz2r3b/emwPF54ovXoVFOMFU8/PBhvvNCaq8jJGHPHZT1PH/3otmC6c6/Ra4fRtbYUax6aehAWvPJlWzPt+fb3dnHHbmJ9OFiKBOXXwWpLkpEZa0D3kg345uSWWVimz1Ov/2jsccDACl8IEduA5ZFhinvj4mo4ocKv+RCN1iMdFrpE6hFe+sV76xa9eBGWtOr8A1k576rT+p117suVqVkos70wtAC8igexhnogPeTc0xeLsCSLsY26cgQ3rywqPvO4ns01OTPl0qtPTzrzslfK03Khi1vmYhZ6Ig5vyIcY4pCsOLJiUaQVrdm+avqd+2HpF5tbrZ/tuWewV5fuQ9a+veDDVjsnT/RfAgx093UKqd8Ln1rVfQeiRAyji+dvxVLW8TiCUgJJ8Qi2fv7JPXjv7Xv2HndjxfoO3VHrD0FSxeM7OryWWPrSgFeSoa3+Sd8+4a5kFC2JtRemPnMWrWro2a9PmZYCWVGQlqiDZ81P2zY/e3/X1lqHXBt++t75V920tCSzC2rVIHyqhZyGEsS/eO/JbdePvawtWua/9b29tWN3xMTSoL+uoiZuVttQ0SFehx4lG1pkYZmMyQ9O8+936I21yd0Q04KQTB2WZsAQq5CJR6ZMFWrCQJYMpNdVofj9d6ZVTx+3+zavOfbcwf0vvPz7quyOqPUnwYAXpqrCMMLOIiuyqTo/oMWNruxYFfQP3phRfvuEq5qjzfs9+nxJ2d6FHStCmbBjCXg0DzySgoZoHZCqQYvWokf5dqye+cjeWDjnn81xTh6jfQkw0NtXe/1paZVzrz2l33ljXisOdECleC5FEpOJvEA0ipRYDF2NMH5+auYRWP7lpwMvmPBZ2V6H7L89lAwgBtvQ4VH9MJyJcxLyY2GsnnLLgcZbc7760xO3lRcce3r//cZc8/PGjO6o9QXhV+LOJLSGt96cXn7PxJZfZzr/aG/BNeetTQw6oEtJINVZeS0pXI0BW1fjywcnBvDVV9G2QvX7cuyWQB95wcEFl135WUlKFhrUZFjiGW9xlavJsFVn5SNIioKkumrkl5ah6K1F11Q9dcdDu91v6Jm9Bl5/1Zry7I4olXyA+EFsJBp3cDOUX58cMZGUqEO32ir8+Ogjw/HaM7s2SW7ISP+wuyZEliV3Rrk3qfHxO3FTxBaPnsaBoIXMaAMwb/6U8qlX3dLmHznd7Y3ozgIw0F3WrtkPPf++Z59Dj6hWQoj5vDDkiHMPXSz8lVxThdzSrVg+88E01G8JZw742zlpF183a3NQrIcddibXaFoydGf1qAS6Wwbkd+Y/vX7SZZe0J6bca++8KWnEOVO2BlOdZ2hTrQR6Rqvw1T13DcZbLbiBy+DBWuqwk2/uPmLUHUXwIuYLwoaO3OoybL7vrr31xa+02aum3RHovZ56rTbcb3DyNn8ybI949EoBEmIJVrEGq3hETYeqN6B7rAG1L706vuyx2+9vM/3w8NP3KLj2qhWV2XkoMxUEAgEk4oaz6YkkNkBSdCixCDqLtdB//C6y8cUHMrBk50e6lLMuO2mfS695Y403HdWqD56AhkQ0BrHAuuJTYRr16Fxbja03TOyCb95oE49Ctpm2+gsVhIHupsYePjy951WTKyuze8KEH1HZgiEe97HjkKCgc0MD4ovevK3srWcfwLJlYfQflt1nygOlpZ1yEVF06GIBDUVcrXucdZ8zovXI27YJS5+4KYT33w+3Iyop6+HnPvANOXRYpSl2mNMgRbeha802/HLdpclYvbq+Repy5MjBva6/8fvStE4wlGTIsQi6q1H8MuepiZixeybm7Wg9WzvQk6687foeZ5x3T5EnFbWa1jiHwzQhwd+4jacVg9eKonO0BuUfvP1Q3Z3XXbOjdWm1151w5tA+Y67+VDxmV2N7YHn8zprxplhqVU44WxXLdSb2sHVsef6R8RWPTdnpHyShG++5LevoU+4sC6ShQfNCVm1neVtJViHpYuGYKAIrf9xccd4x3Vqt/jxRmxNgoLe5JtnpAsnJV44f0+Gsq2YU+zOc/VegydC9OqCH4TGB/GgD1k2evGfindk/O2fJy/NlXjl5tnbA0NNrkzwIi3vuhnhkyOc8khNoqEWe1YDlT91/FmY/+NJOl2x3vPGk0wd2H3Xhj/Gue6FC9sJSwsiN1yH48YfPrLhlySU7/RzuH9Vl8GBtj0tu3lI+cJ/simAqEDXQQ7Egf/dh8bpXnszflauz1uBr1UAvLMwZOG7Ktu3ZeajxBhET661LYgU2sb9KEqxEHJpmIMeohf31Z19vGXvWgW11CDl4w23X5592/j3LdQ+MUEbjXuti7oEdhqR6Icc05OhRZGz6EcsevS8Lny1u+jrnQ4b4k0+6dEFo6DFH1Kg+JDxeGPFayAEfLN2ADwpSI1HUfbxoVmT29LHgI2Ot8ZFpk+dgoLfJZtm5QvWds6C0Zo8DsrerSbATJjSvBkuOQzaiCBpxhFav2Lr13gf7YtnvrrZHXXl8rwsuXbg9KwN1is9Z8QmWWNPZ4zzPmizVQ/np06Kyabf0bW9fFCmXXHVJ5tlXPrlRDSI1PRNyTRWya8ux8pVnzjCfbcbHnQoLVXXv4RN7nHLWHcW+ZMTEDPt4PTpXbUXJQ5P2Cr/zf6xUtnNN3ezvas1A7zjhzruzTr544gpdge1VYai22DsEsDUoRhBSIoY0TwO0dT+ieOYDXfGP97c0e4Wb8YB5T7xUUrPXYR1r/GmNS7CKWfpie+KEDo8SgtrQgI5KDBsXvHiLNe2myU0+9eDBgfTLJ6+WBh/cud6QYGniiXyxyZJ4TM5EkseHrNowihfOnRa7d9zE5ppV3+Ry8g27XYCBvtuboJkKMPKCgwdcOf6zdWqys665s4tUPAZJsRDUo8jUw9j62itX6+++9MS/LcAxcqSy16grjQ25eagNJAFaMsSyWIqpONuSxq0qDJAa8PP4q/vik3f/aJnIZqpEMx+msFBNOe6sF1OGDj+tygo5O0OlKwZ8RSuw/tF7euMfbzXPBjTHn75v/ytu/bY0ozMqxLPTsonsWDm2vzV3YmzqLbvlGfimSrZaoA8qTD1g8tTq1UmdEU5Nh40EDCQad/A0NShmCGm2ibS6DVj7xrOj8Oh9bXorX8f55LMOyL9u6ldFvsxftxYVu5yJzVwUqFEbAVWFLh6hrCrG+kljU/DNN3VNap/8fG/ulBe2VvUc0CFumLBkC4FUPyL11YDXD6U+ip6GhKLX50xPbL1+Iub9/5XZm3QevrjdCzDQ230TOhWQkqY++ffA0CMuaPAnIyI2jhDbUnk8EA+sZiQS6F5Xju+n3JWPj/97F7KMGydN9owYfXNFRifo4bhz/zzJn4xorA5G0EBmzXZ4Fy66fevUCZPaHdfQod0HXH3LhorO+6BSDkAxE+hqh1H/4ZvPldw65oJdvpoZPDiw103Tw1U5fVHhTUZEkpGDCOwlC5aUvvzEkVi6VG8PZq0V6N4rb72i6+nnzCjRMhAWSxFLMUgeydmuE2ELPiUFuWJZ1X+8tWTT9aMOa6tD7f/RplLS9Bfnphx89MgKrwcxsSQgYo37hMclyJChSxI6h2sQffbJ88ufmTK7SX0ir9CXcsvNa+3BQzvHDBMJMwYt2QtdjzrbonoNG5mxBGo/WjSnftaUS1FU1G4eM22SA1/8pwIM9D8lagcvKCgM9Zp+b31F53w0iA0jnFYVNyRVyJKClPIydPh56bdrZz58OFZ/8d8Two45cUCfm+5ftsaTAltsRmHb8OgSbMmArkaRYZvouHwlfnl6itZaz3I3p7pn9EWn5o4eP680KcfZNcsTq0FuXQk2vjnnzOiTD7280+cqLFRTh5/8ePohwy+qkJJh+8ROalHkhMux+t4Jg/DeWz/t9LFb+Y2tE+gjlR4vX1xZ33tgSg180MU2n5Z4fltsuCJBlVQoNQn0jISxccY9Q6KLHm+dncuaw/r4sf0Gjr3mlw2pKajXZMAvdkAT97c90GMJmJoXuUYcgSXvL1s7ftTAJp2yoMCTPnbq59bgQ/ZNKB7EVQumGAEQz+mLfRkSBpJ0Halrl20r+vvUVltvoUl14ItbRYCB3irMLXuS1LOvOD/n8gnPrPclQdeMxhnDYgxTbAupaMitrETFs0+cHX7mnhf/qCQ9X/xoU0XXPl1jKSEYYpJSOAFNVZwVqFJgomN9BKueefJYzL63XWzY8p/1DNw147nc404bvUlMQFZVZMsJKKt+wpbZMwfr7721U6vIpZw15tSsi8fMK03LRsKW4IvFkBeP4OeXZ42xnpj+eMu2evMevVUCfdjJ+w6aPuPbFXIApqSJp8wbV5gVz1TaJoKyhFBNA5Tvvn+v5JoRRzVvDVv+aANnvv596b4HDN7u9UL1+mDGxfaqXsSiUcg+FRl6Ah3LirHsvkl5+PiNTU0pUdKkpycH/zb85gZfEhJ+DxJWpHH3RFuCbMvwWAY6V27Duluv7oyvPi5uyrH5WvcIMNBd0Jb7PP3GT5vy99mzPCUdEGu3Q2/cKcu24Y3G0aOmEisnXJuKpR/W/lF1tStuu7rn2Rc9VOTxIKY0bhUpZuyaYrMH20CybiH+9Scf1s647bj2NjnOqfPhx3XtdtEVmyLd+yLsTYIRi6KbnYD15UefrZ/14OFN3tjjwGO67XPluKKi7nugOpAMxOvRUzZQ987CuaXLPjsL8+b9a4fp9tDFWiPQO904bap00ugJxZ6gM8dD7N4rqR6IXiY21A5EGtArEcNPDz98OF575KP24Pb7MqaMuuKUtKuuem1rSgZkZ49yydnkxhJrrXsBuaEWuTCx/sW/j8PMux9uSv2US246t8+ZF8wu9iajPhCAJbZLFSMBCRtQFGhiid6aMphvzr11+/03392UY/O17hFgoLf3thx2YsEBE6ct/9mXinh6Fgy9HjB0QNPg1eNIjzQg8dWnz1a+NeeS/3O4/JDhHfe7bWrJytQM1KteeNQALLFQhqRA8yhQxKYtxetRPP2mNj/r+A+bdOSog/teccNnpaEOCMdlpHs8yIhUYMXLs6/A49Mf3fGuMFLJvOtvs9KGHXNusScFMdtGphKDd/VP2PTkjO5Y8m7Rjh+rbbyyNQJ94Evv6+u79FUbUjMg2RZksQOgocGyDaiajuS67cgtWle5bOp1nZr8A6stMBYWqt1umqxXduoJPaJCUnzOKIQt1slRTNjxBiTJFqTvv/yy+pJ5Q5v06OTwkzseMv6OktWhLJSJRXg8YmSjcXtbxA1IqozUWBiZxeuw5rGHe+OD15tnwmdbcGUZdliAgb7DVG3yhXLw1ocmZww/YUJFUgdExAIdYvUoVYZX88JbW4neZhTfPzztSMz7+wd/VoNej8z6sObgI4aVayEoYnc2U4Yke2DYNhRNQpdwBWrnzBhb/dg9j/3ZsdrqvydPuvf+3CNPvnYrQjBVD3yIIKd6O1ZMvXswPn5jR4be5Q4Xjj8j5bRzXizLyEFcrNUej6B7rAo/zZpxMuY8+mZbrfv/Va4WD/Qjz+gy4NobN2/JyEV9IAQzEYMstiE1xAROA5rXRKdwOWpfevam6pmTp7VHQ4inKs44b54y6JARUTsZsi8ZuqXDlC2YYk0C2XYmZeZs2YAt4yb5mrqt737PLbJL++6DzZoX8CqAmPiqiomvhjMaELB1ZFtRhL/77IuyMaMOaScTCttlU7fVQjPQ22rL7Ei5Ro5Ueo0eb2zIyoUZCAGG2Pdcg6J44IWN1NoqdNm6Ft+8OVPdkSFg5dxzT0sfe8vc8lAWlLgNyVZhqv7GPZ8VoItRh8yfv4j9cOEpgXb7ZVEw0tN77Glragce1K0ykOxsRJOeqIO28tuizRec2uNP63XECfv0u/za78pz90C1mLOgx9EtEYW94PWnN0+/sl0tkfv7LtbigX7pxMt6nH7243UZ2agQO7mJbx5JauyvtgVF0ZFbVYKNd93SDx+18JafO/LZ2tnXjL3h3LyR582uCnRC3BOAbjfAEiswSh6xag5kM4IelduxffrdB9a/+3KT9khIHXvTuNCoSx4sSUp3Hl2DWMRGPMCveBq3crV0BFQd2WY1ShbNeT58x92jd7YafF/7FGCgt892c0odOGn0iVnX3Dp/U3o2bFvch5ShygFY0YSzlWMvKwr97ZenbZg6fsd2pyosVDvdPEUvy+oB2F6YpgZb9jm7SMGKIjlSiYJELb5+ZPoBeP35b9ot3RFn7DP4lju/W+9JQoPmQ0CzkR4pQ8mi125JTLn1jxf+KCgIZV9+3fPaPkNHVGkdnId9040IUjevxcoHH+2Mr+a128lILRroPQanBM+/7JH0I44eXaNqqDdNaEnJ0HXdCXQNBjxWHdI3r6rbMn5MVruco/Hbh2HYCdl733JX6aZAF1SKoBWTL30aTFsDdB2yZqJ7TQX0Z5+9ZvPfJzdto5nBh6f0vXNqTXlud1SKb26x7bEzq1CFoksQd+xNOwFfohr5Wj3KP/3ovdLXXx+NL78sa7efVRa8SQIM9CZxta0X97z/5fnhAw85sSyUDCshvhxtaIGg88WBuI6+8Wr8fOdVe+LDdxqXet2Bv5R7Hnzac9ARF0WTOqJB90FVAzASccAn1taOIyUcRmTJR4833HzxFbv8DPcOlKelXhK4/Oq79jr7/FuWB9JRYyhIUhV0rqjAunvv3Ud//7ml/33ekUraZX0vTx119oxiXwiq6kN6tA69qzfjH0/NLDQWzfu0pcraGsdt0UDPP9qbf8+d1WW5ef64IsP2epBIJACxMqEuI6QYSJO2Y8vCl57EJ5+Ma+vL5P5Ze+y/8H27KGNPlPtSYUkGZI8CyxQTVcWjpDY61tXA/9bCJzZMvvryPzvWf/57xjWTruhw7IgZWzM7IqyIrVpNQPZAiUvQxF72YjMY23B2GfSHK+AvXh/esPDl4/HSnE+aei6+vv0JMNDbX5s1lvigMzoNuHFi8ZbsTNR4vQhoXmc2bSwag1dT4YmGkbFpxfaiN57K3ZHh9n8xnHH2IQPHjPvHxmAu6uQkKJbX+TKyvRHIsgkfVGRuLsKmidel4cclNe2VT5S7z8xHN9btOyyvOjUH8bCJrPoouq5as/G7B24d+B/P60sYdvo+e149/tttnXugTvPCE21Aj2gNIguevW/tA9Ovb88OouwtGugAerzzi12SnQtDTIbzakiIq1XVDyRUJNkRdDCKsP7FJy/HzMefaNeWhYVqnzPO3lDf/+guZcFMGGISnBgeNxOwRfhqMrKidUj/6ou1q64+s/fO1LXg6ddLooP27Vgkq1CCARhRA5qkwYhZUD1BZxheD9ciJSOIQKQcmQ2VqPjknZkli+dPbPIqdTtTQL5ntwkw0Hcb/a6ceKTiHTvg6j5nXnB/kTeAOlWBzzmchJgB+CQLuYk6rH919uV48LYmf0Hu88rixPqeA7RqTwpko/EeJ1QdhiSW6DTRPR5G5aMzzq577qE/fK59V2rXau894ZQ9u4676aeytE6w5BB8uoGO8QaUfbBgavUdV978r3LsuWcw94Y7lup9B/epsH2QJQ3J8TAytq231t72qB8r5iVarcwtdKKWDHTvYaf3zLtlyrrNaZmImTokTTyyZkJWfJAND5L0WmRG12PNjOn74vXXv2+hKrbOYYcM8Xc47MgJnqMuvK08KRu6CHPbdK6abctwbl9lxcPotnq5/d1Zw8V4edP/hp7YZd8Jt26uTM/CRtOEPzsHsfqoWErK2T/eNm14/EEkGsKQZQVWXQ06B73wbd+KdQvmXoKnpz/d9JPyHe1BgIHeHlrpv8so9Z69uCLSZ8/0Mo8fptcLM9oASTxi5s+AWl2BvvFt+GHKLTn4aOH2plax47V33qSeft6ULf4UqKYXsjP5xoChWLDkCEL11eizfO3GpU/c1ae9LG36Rwae2+6fmHPYMXdXB7OQUFUoiQZ0jpRhzcwH9sXrz3+PkSOVzLz8m/ynnnnXZikZnmAHJMUNpFcWY+2j9+yF+bN/bKpvW3x9SwZ6xmmXj8i8csKbG5LTGq/MRaCLH4likNj2IDVei6ya1Vgx8WpPe+9Pom2Dl199dtoZ454vS+2EhC1uhRmQVRmWKVZ2k5EeDWOPsi344rj9d/7799hzB+972djvyzp1xRbLhqQqsMXtDFlpXEZXtwBNbOeqQgt6YIQN+OqrkWeFoWxY3rD5g0WX1L3w5M6vktgWOzHL5Mw15V97EzjmjP33GH/L11tSs9BgAGpI7K7WANuU4dHSkVxTjvSf3/9m1dizh/zprO3/Vff9j+6cP+2+LUVpWYDlhSRW9UqIYXfATragVpVjnzoDX99xS2/8o/0/79p12qwPAsNPO3xVOIZAiopguBrpm9aGVz/1RDekpPTY85KLvy3J7oI6bzISNSbyrATq58+ZUHnfjdPbW9f5o/K2VKB36jQ4gKOHXeA/f+yMomCas1CRLMuwxFePJSZyqciK1yN760/6slOPEE9Xt/u/lHMvHZZ67vgPt6V3hO5spWpA0TSYzn7vGlKj9egbLsNXd12VhCVLGna2wuppVw/tdv4Fn5Ykp0FNDiJqmzASJiTNIxaQE6v2iGURgXqx5ruGgFeFx9Lhtwyo4VrY27aUbF382lV4bubrO1sGvq9tCTDQ21Z77EhppG5TZj5sHjr8yuKA2K1KA2QJsph8owOK7kW+Hsamp+44veG5R1/dkQP+r9d0nf328nC/QQW18EIJpDrrUVtik/UUE6oRR9fyOGoWL76tatrYu3b2HG3lfZ7DTxzQc+yty8qzuyIcELcYDKTH6rH5m6/nZOXl7aOkZxRU+ZJgQEG2pcKzYtnKogsOLWgr5W+OcrRUoKfmDUpNGXHSlfYpoydtTkqHLFYwlG3YkMVItBPqneJ1SP3ly00rLj4lrznqsruPkXLymT0yrrpz/eaUTOeRNTEaIStiYpztbEucEq1Hr3gVvrv39sF4a+6OrH3wx1U6/dKB+Wdd+KOd3RGVYlW65GTUxcV+QGIFOQmKWNjGWSdfQcKwG59d9/rgkRUo9RXoKoWBNcu3bH77nXHRuU++sbvteP5dE2Cg75pf67+7sDC01/hp9UXZnVDtCULxBmFGo87sWdWUkBQDcrZtwMp7rwjgq6+iO1tA7xW3Xtb5tLMeL/GlIRZKAQwJthkDlAgkWUZytY5uZWVYdueE0L/tr76zJ9zN71NGXTlqwPljXlqf3AH1Xg+8dgKauI60bBiWBMWXjJR4HFnbNuGfM6bvhQ9ecsVQ+2/sLRXo6NMnqcfIi6fGjxo5tjiU2hhszpqv4upcbJkqoVO4Gr5PFy9c/8FLp7THzX/+V9ft+4819tpQB2cY3IIIcllsvgZF8iIYa0DXWCV+efqBI/HCk3+64NOffjQOGd4x/+QLvwrsd2C35VBhhoKN+zkYcUhmAoqmwhBX6s6SdV7nR5R4hl2TDSjxagStGLIVFfHVqzatX/jalXh11qI/PSdf0CYFGOhtsln+qFAjFVycd06v0Zc+u9UfQtTvdzZVg7g3p4qlXk3kNEQQ+fSdv5ffctHFu1S1wsLQ3tdNq9/cqTsqxKoyYkayV6xPHQZMG0m6F7nVFdj46OTj428+/dYunauNvDl/2jPzzIOPPrUkkIy4bDQ+ZmQDHkuCJy6jW6weZa/PvqV85sQ/fla9jdSlqcVosUAfMsSff+yoN8PDRgzfFsoQg0mwnEfWFEiS2FpUQk5NFey35j5S8urbN6JoiSu2/uz/+Vp7eSDVWTpZVPq3QFdlv7NmfYeGEmx46ZkT8cwDC5vaVn/0+tQb7r+j41En3l6dlIIaXYcSFEvPmohZYilob+MCNM70TaVxLX2xRLR4Tl62YOtxZJg6ukXD0FcsX73x03fH1b08693mKhuP0zoCDPTWcW62s2Q/Pf+7xJ777hPzBsSOy7AhZs6KW48afJEw+jRU4acZ04/AG898uKsnzZ/8xNyGYUedVupPblyRSqzsBROKpMKT8CCjrhLB7z78dPX1owt39Vxt4v1DjqClkW4AACAASURBVMvtM+7WrTV5vVHtk5EQY8KGhQzND39FHaQfv3t3y2tTT96VkY82Uc//UYgWC/SCAs+el934XfmQw/fc5hH9SHRasRWg6E6NV4pdG2qgz3tuesnr79yJrTs/qtSWbHt+sMzelNUZprg6d8JTPC+uQpV88EXqkRMrw7o5T5yKZx5u1vvXwRPPG9Dj8GMWSP336V4aCKFS9cL0auJXlOOuqBJMsVSsLnZi9MCwTCgeBbJiw4pG4UmI/q5Ca6iBuXn155sXvHA13tjF2wJtqWFcXhYGentq4IOP7dH9znvXl2d3Q0NdPfzJIegwYIhFZaAh04ij88af8M/Tj2yWdk0bdenxWVfdsHC1PwlQxIw4sS2rDcnSnOfT02L1yK1cgx8fmNQRS94pbU+Uf1BWCRfdeVrWWee+Uu73Q0lOFrd7odbUIr261tj67BNDsPajlVi2LOyCuv5bFVos0AsL1UGjLl5ZstfQ/DJv6r/N0ZQksQ+6jW7hWsRffe7uba8vnuKWQO/10S/22owc50eLuJPt3GaQVcjwIhAPo5N4kmLOzFPxTMtMSPNfdscZeUce/3J9ZifUeTQYYg8XW4el2PD5AlBsD8LROFSPF7phQJYkKGItC0mBaSQAPYykaC06hssR/eHbR7csXDwN3yze6rZ+77b6NMsXv9tQ2mp9MsfdOdF71qV3b/WlQomFoUo2TA3Ooyricr1bIoz4O3PuLp58863NVYdeCz+3t3Xq5mxCojtbsor1t1UopoIkK46OZjVWvzzrcuuRu5r8vHtzlbHZjlNQ4EHhySdknjZ6XkNqNuKyF7JpQ4vUI62+XC956N6DMjcXrSxfsfMzk5utrM18oJYM9L3OuXzN5oL9u1cGMpxAFzneeK+o8a9brA6xl5+ZVLpgyVS3DLn3/ni5vUY8JeIMb4stVG1AfE7hQVIiiq6RMix/5qET8dzjzTbk/l9dorAwlLPfiLHZQw6cZnbvhhILaLAlJExx60yG7Pc5O9058+f0xp3bTI8YibMgSRZ8ioWQpUOpKkNKzXYUf/L+2IaH72q3GzM180emTR6Ogd4mm+V/FKqwUB1w0c16Ue9BqNcCCCgy4rF6mIqNkM8PtV5H1/pyLLvvhv54b9HyZqqWlHznwzNSjzx+bKUniKjH37iHtbinrgMByULArENgzTJj06OTktv7ULTvsJO7dbrssqLaHn0Q93VAQzgBSdEQhIE0uwGxr5YsKX/6iZPx8+fVzeTbZg7TkoE++Nyx6zb22adbVbDDvwW6eF5ajLp3jdYh8vLsqeXvPH9nu17H/Xetmb9kpb0uNdv5/4iZ/c7glvhBLKkIJqLo1VCOHx+/ZzjmPvN+i3eCI8/oEjpwyI2dhhw8Vk/NRg280MUPdE1D3NLh8YjNXezGtfU9srMRky3m5YjGEevuyxb8iTp0RhTx7z7/av3C+aPx3sJ1LV5unqDJAgz0JpPtpjeMvPyEgsuvWVCUloOIokLSY/BoMuK2DY+eQE40geT1K0p/mXFz12ZdnOO4cw7ea9z4zzYlZaM2mARTDM+Jmcq6AVUSs3YtdKkpx7rpk4Zg8Ytf7yadXT9tQYEn+4wL54aOGjGixJeCaMJ29pQXj/mI6yovEshN1GPbK8/d1vDQ3e3+Ub3/BGuxQB88WOt/+fjlpQVDelUEO4iH1SBZpjPR2rbEsqgyciM1SMyfe3/Zt4snuGWWe/dPVtkbM3Kcq18xIiHqbYqAlBQEjTj61mzD0kem7o/5L3276513B49wxCm9coYdOSFj34MuqAyko1LMiNd8sBQRA+IJFgmq5oEhFqUR/V/1QnGG4HWoPsCMVCNdjiKlajs2vPHmaXj8gXk7eGa+rJUEGOitBL2rp8mcMfcNbd9DT6pQvTB8HliJMGRNPFgFBMJR9I7HUPT6i+Nqln3waLN+KYp7oOdeV7ltj/2Sy/wh59E1Z1UqZ9Wrxt2eOjbUIfjRglnrbh170a7Wc7e8f/BgTdt72Bl5p5w2R+xxHhZ7yYsFe8RYhKqiIR6G7pGRbMadmf0rHrl3Pyya+91uKWsLnbTFAr2gwNPj0mu/bNj/yMFlvhQoYiUzQ3fuLZt2Y6BnR6rh//SdFzfeNPbsFqpeqx+226drbLELYuOcEycrxfRVZ0fEkBl3Vor77r47cvHBwpJWL9zx5/ZLGjr0jm77Dz21SvIjHvQjrOqNs+GdxWj8kG1P48I/kgzLFusGxAGvDOj1SDLi6FBRjrLPP5kennTjhFYvP0/4hwIM9PbQOQYVpva6d2b1toyuiIoZqh7ZuXcO03B2WkqPxdBj+zZ8/8Dt+fh4/vpmrpKcOeb2G7xnj5m6Vey5bieczSZssUa1IraE1JAWb0Dfbavw1aS7UrH0w9pmPn+LH85/9FkHZJ0z9qtEnwLUKiakRBzZOrDhm+9eTenUac9Apw59o1mpCMcTCDboSC9av2bDpJv3+Y8NXFq8nC15ghYL9LxCX+aFJ87Wjhx5eokWhEf1wDBEHxJZZzvD0FnRamT98s3PP198xp4tWcfWOnZm4ciQf9KU+s3pOc5UATEiodg2DPHMngKEjAQKthbh2+P2273fv8ee1L/nESMn2d3yT7Jzs1GlqKi1VMi+IBR4oMdijU8liKE4zQYSCfhkBR7dhBSOI99nonjxc8+XLpp/YbOOCrZWQ7nwPLu3Q7kQtAWqpIQuuuySDhdNfKxITUXAoyBmxmCJ6deaGLeUkFFTg+yffvpxxcyHDkFLTNgackrfnlPvW7k+lOrcb0vYCWezFudbGSH4Iw3oFd6OlXMeG63PevT5FjBouUMOKkztefro+cbQ4/9W6g8BiDhLc+ZsKU789PBDHZGRkb/fFZd9syolhDpPEEFPKjpUVyAyf/Yt5Q/8H3unt1yJW+TILRboe+4ZTDv61JtDIy65eYsagOqTYOgi0H/bl0RBZqwGXTcvq/n+tOPSWqRyrXzQlJPP3zt93K1LN6ZmOiMRtqlDsSUxD80JyBQjhr6b1+ObEQe1je/f0y/et/tBh96T1m/PwspAKqokL+KaHwnZhupVYSQiziRGj/gBHzOhiP3X1QC0cBny7TJs+HDRG5Wffnx6s44MtnKbueV0baNDuUWzZeoh7fXCWyUlvQbnVARSYZoJwNnByRIrngDxWuxh21gz7ZFzzXVfvoalS8Wnr3n/CgpD2dde91mkYO9BYV8yLJ8YHqgHnD2e/fDZKgJVlUhd/0vxhulT92g3V66FhWpo0PA7up52xsTNahBRVUPQMtG1oQqr7rv7QOOtOd+goEDNP+r0m3HSGbdvCaYjbktItSxk15Rj9SP3DsGi2e133sDveklLBnqHQ0dc5j917H1bAinOSoPOD1Ex0iQCwvIgLVyNXrUr8e3Rh7vi+yjtvCuPTx197cLS9BxE5TicmaQQQ9hiwxQJOYkwspf/s+Gn0UcnNe8HddeOlnnChUO7HXPSY4le/fqt8wcQSwlAgg4zHoWiKNAUDWZcLN3rg25J8MkWvEYd0mM1qPj641n1149pn7fcdo2tTb3bFR+g/9fefcBJUd//439N23Z7vR+dO5CioByKREzQKHYj6tkrYlcsqFEMiGJB0ViwYq/R2EsgdjQigoIiRUQ6d8dxvextnfJ/fGYxv+T7j0rZO46Z1yY8omR3Zt7P9+6+d2Y+n/enS4mm+mBOPmff0rMvWViX3xMhXxCmrkNSJHsZU0kxALMdwerNaLv78W6oropmoBWtVkscmZkGWloMFBSYmDtXfKOIyULJjh6/9KioULB2rYyWFhl6dwlqpZXp9wda1CI/Dhp9ZsGp505v9eYgKjp9ecQoWB2y5ofZ3IZMbxDd6quw4s4bBuGjN39INUNHbE875OT9y66eNL8qvxBhjwdpqopgXS1aP55zV9u0y//8732WjcjoPvHqedLwA/Zs8gUR1w1kJnQEf1qKdfffkYeFHzd0xPF15jY7rKADyDjritPyx9/44oZgDnQ1BIgufIYYKSaKnB9Z8Vb0afsR3955Swnef39zZ8bdAfuSiq6dfonvqDMerE7PQlwTP3rFCa6YXypBkSTkttYh77t5C1dcftqIDtj/Tm8yeMkdJ/c46k8v1wX9iKcpMHweRBMWDF2CpAYhyRos0Y9fjIqHhLREO3LaqlH7wRtXxO6a9sBOHwA3sMMCLOg7TNc5Lwze8chDgYPHXNKoBmBoAShxy57XGk+OR0t+WdQ3tuLjz5+RExHZJ0fkhBXWE6quQ9UsNaGaiq5ANiTLFGNaxFk9LKimDkX8o6mJZhKSKcdlQ4Yq1neUDEXymIakiMsAliWF0/yamZYWTP/jUafHzQBiOuBP8yESC2/tGZ1AQPOge6gZ4Tdeuqnynutv6RydndhL+SGZfc8etwT7/6FXteZHNBJHj4APyoKP161/5u7B/2cKnozDjhu+z6XXLthU3A/1poxsvxf5TbUIvf/6PdW3X3fNThxJl3hpRxZ0HHHKPv2uvXfxpqw86HIYuijoop+BGIBlBRCItaJHbAN+fHrmiXjqqZR2TtsVuAMe+Pv85vID97dv4YgVk1QZEB8+yPBAQW59FbwfvXnH+tuvnbQrjm+b9rnf2Nw9xp5wlzRyn3FVAT/apDRowVwkwqJtr8hdVKwECzOuIF2RkBZrRHFjFRbfPX0oPn7n+23aB5+UcgEW9JSTpnCDZWXe7jMej7b02xNtcROSxw81JubuStBlJbkEpazBL6sINjYiUzKRQAimx0RE1u1+zd64AtWUIJuqfQ8vLgYjyTpU07LXb5AscbYP6EpyKpFsapAsGYopumyLL94YEoqEZo+KsOyBYor7zAo0r98u6JYVhxrwQg+HURKPoGTDT/hm0i3+Lt0gZNAgj++Ikyb3P/ncv6yDB+1Qkal5kL1lI9befdswfPTyt/8ri/5zr5hQeNpF9zfn90DU0BGItqNftA0LHvrrwXhj1qcpzHynb6pDCzqAPeastqrzuyOGCOy+JqIaWGItMD/k9mYUow7Vs/9+ozltyvT/6jrT6RI7v8Py1xZYa7v3QlMgAJi6PV7AstvcStBMCb1DDWiYddf4xucffnLn99axW/BcMuXk0uOPf7k6kI94eh4iUR2SV4Ult0F0+pMNP9SECZ8VRU5LLbJWLVn87cWnl3fsUXHrvyTAgt513xtSxmnnn5Zz0TUvVOUWISGWRPT6AdET2jAhyz6YYvnJhAQfAJ/44oCOsByFluZFxIzZPZvT4LOLsziVNyQZCXFmD9NuaarY3avisCQxAte0C7lqt55T7OdakhgIo9vNJ9TMNIRbo9DUDCSiYtqRDEmceYjlIU1xCTWGAllCQWM9lj15/1F46aHZXZb2mJP3HTDh+oVVWQVokzUEZQUlkTZsfOuVSdG7/nzHLx53eblWdMrlL3j3/8NJjcFcCP7caBTBdSvxw6N39cfn7/3UZWP+jQPr6ILe929fWi19B6Fd/OjUZFhiyqVY/0Ysz5sII01ug3fFV2tr77t9rw4ZB9KJiRn64Wrrp6wMhAMBSImEfSHNFIMAxQpnCQMD4y344S9X7Bn/NGUNoDo2usPOHbbnlRO/qc7MlUJqGqw0PxLROiDgh7hUKOsKfIoMT0s9BmgxfPXwfSfihY5paduxge7+W2dB78I53Gvm3+Y3DR+1f3UwE2ZcguRR7Hvn9upqkg+SISFNUWBEk9OARJ/mqCRWVhKXMpMtHVVTsQu1uMJpF2kxdcau6eIM3IAlBu1I9gxZu6WrpouKryYLv5hAGw0ltyfm38ie5A+JuA5FDMoTxVwWZ/iiJ7eBAIDMWBjm1198sOXOvx7XJftyDxodLJs44Yf2vffrvln8gFE15MfCCCxd9OOa8ceLNc7/X0/S//XeOGzs0L3Ou2JRdVEfJZKRBzMaR08zhugnb7648aNXxmPu7rlaWIcW9NGj1YIjxz/rPeDQ0xo0DWGxap+iAqKBiS7D51Vh6M3oG6rFj1ddlo9Fc+u78Mfy1w/t/KnH9j39vLc3BX1I+D1QRIzih7MkQzZNuwlUj/pNWHn0vrvXd+9R4wcOvvKqFVsyctEoer57FfszD1O1v0tkQ0OGYsHTXo3gmqUr15597ODf/Czttknuuge+e72puq5j6o/siJNL95lw4+pNWbloswfDee3ljHUxyEYUa3tdY8s+M4bot6x6YIkObmKwkegzKcv2rS57UQhRq+2T9OR9PPtfxPV10cJKiSU/d6YMxZCgWGL9ZkBXk/faxSVCzeNFOC5Wi9raOU2WoBkxGJaBhFjUweu3f1SIUy6fpqJHfRV+mnxpd8z/pCr1MDu1RSk49YG/5h8x9sr1qgbZ50Ew1IperQ34/p7bh+Kfr2/Tvb/gKReeXHbRVS+vVjNgBHNhtbeiD5rxw3MPnoLH7n9lp45wF724Qwu6eNeNv/6Cfqed95i4KhISxVy898S9HjG+0qMhbrSjTA+h4aEZZzQ9O/PFXcSws7uVih94/Vlj2O/ObAh4Yaii0JnQICNhyPBaOtKNMBJffzq36fIzD9rZnXX66/807pABk274cK2SBtmXjWhM3AaUYMUSUJQMmIkYPGo7urdWo/reu/aPvP38gk4/RpfvkAW9K74Bysq88jHjJvU64ewpdV7FnhOqJMTaxhYSXjFqdusccFGsFXHdUpx+iyItgtHsXuuaJCMeF13dJPuSun3dz36IueuiqIuzbvFNmzw7V/TkfXOxEUPWYajigrIJn64gFrdg2U1lkouzyJYOM94Gb8CHhGUlf0SYKiQleZm+ONyIxFMPXlQ/687HuhCvpB49/g9lV1/76dqMLMR9GjzxCEqjIax69snxxmN3bc/9TLnH9FmzfKMOO2+tlg4lPQilpQrFNRuw9t67d8tL7x1d0HFkRdHel1+3eV1xGVrEyn2GaCEsQ4OKmBgtrVjIb2tC4TdffrXsylNHdqH3zXYdyoD3vrWqCroh6vMiYZmQTQuqoomeLAiYCXTXm7H6taevMv867b7t2nAXeXJg+oMP5Iw+/PIWOQ9hsTQrotD8aUi0WZBEq2Q1jPymSiReeWFS00O3/vLtqy4Sj9MOgwW9a2ZU6vPqV2Z934GIbL1trrQpCPoDaIk1wpPhQTzUDNmv2Ze8xaXv5KUvBWLEkSjMYsCbKSWLs5hi8u8ryclT9a0FXfyzAsmU4dVliHPzuKJDF01jFHElwIQvLkOSVEQVjxjwDtWSIWsy4qEmICvN7h6VHFWnJkfzehWktdRi8NoV0YXTrsrEihXxLkE86rS+Iy+/ds2a4kI0ZaUhYURQYsaAzz54t/rq84/d7mMcfVzvoZdctm596WC0qF4EZAX5DfXwfvXFm6sWvVeBV18Vv4h2m0eHF3QA+zz3Vnjt4BH+Fk+6WP0jeSXJtJI/BC0gT0+gT001vp5xex/MfXn9boO39UDTz7366IJzLnp3vT8dmj+IaCxqXymTPBosS4WvrRl7Jxrx1S1TSvHxG2t3t/js4x0ztmD4FTdsWZ/TA43egD2vPvmD3ismyABWGPkx0ejqmyXLLjhx790yxt34oFnQu2DyMseec2jO5ZM/WCd6QYtrkhbgk9MhJQzEEEWaqiPLDMOMtMLQVHu0u2KKQq5A3VrQRQEXZ8sJMVddEoPg7DHx9mA4e5lEe8kR8QEUI9cleMXtMMlCTNWRUBMwJTES3kSaqdq3ykJiIQ3NY5/Qh8Rt/O4FaA2Htn6Ixf14j1h2w25Lq4WbULplE1Y+OXN/vN4FLrv1Hu0rPm/crODIQ8+s8nthBmSkIwz/2h+sjU/OGoDZr6zakbeB56xLTiwed8mrdTmFEN/dhbKGopZ6LH3usUsSz854ZEe2uate0xkFPX/iDZO8p15yW6U3M/kD0xB9UUVbUbF6XwJ+Q0K35la0ffqP6VumXXrDrrLY0f32ve9viyIjRw7b7A3Yn0cxcFQXzZdEIybZg6xwCwoXzl334yWn9t3RfXSF1w2694V/NpT/7rD6rFyYkmH/NhMFPXmFLob8WBsK167Ul518qOhAxUcnCrCgdyL2tu6qbNrjT8UPPfbcjb605IA00QtaVmCIed+ShcxoCN4lCz9pWvrt39L0RFwR5dlULXGGLsq0kRxXa1+FNxTRR1q3e9DYn66tQ77E8seGokD8vWg857EHzEtWXDNEbygx110Sp+Ry1JBFl6iEFTW1tICYyC7Xqd60/qecPnOTrML0pyEuLvOrPpi6KcbTQUm0ozjShtjnHz5U9+j0a7B+fXRbY0/588rLNf/QA8bmV1z0SrikD0IJC2mJEIpaN2Ptay+cGHl8xk7Ney6489FZ6b876PwWXx5iloJEvAV9wo34Yfq0cnzyxuKUx9NBG+yMgo6DjygdMOXu1ZuyixE1TFiqWPhDvPk8ya6DpozcNh29Gjdj8a0TemDB3MoOCjf1mx07buigCdd+tykjHW2qBtX0QpVkRMXUTzV5y6tHPIKW+2dc0fr0/bt185WcSyeN855yzpM12fmwxIIuYnCp+AEDBYZsICvWit4NNVh8xC7uVZ/6LHf5LbKgd7UUjazI2XPi1Q3VPfqgMZCO5LqFBhBvs1c7Eveve4RasWHm/cdj3vdzdsF8bwl7j84sHH/BG77hIw9q8AQQkjTIYuSrmFIniQ93AkHEkbtpFdbcOjEPCxfuuk5qBx27xx4XT1hZ06s/Qv4s+OMWuofb0P7JO49smnrJZakYiTvsb+/Ha4v6aa3Z+WhFFCVIIPjppx+tuv/xY3ZBfnboHd0pBR1At0f//oNWfuCAzaYJPRCwl+aE15ucUWHK8LVbKI2H0DLnuemVt03aXc7SpYL7XvlIHXXgwVsUCYYpIeBLTu80vRIMvR0wY+jZWIONU6YU4ssPancoSV3kRf6Tzjsgf+KkLzaK7ye7l4UCzRCzaew7fghGWtG/vQkL/ziU9aWTc0bwTgb/1d2NHq1i74MuLDvprAdrND8i3iAM3bP1snaz3W5Vi4dRtGkTNk3+aza+e6t5lx3+WVefsee4i56vDGaiWdEgaSos3YLdbM6MQ1WAbu0N2PzY/WdEd9Wo5UGjg+nnjns286CDjq/3KIjFEiixPMhY/RPWz7qvR2TuG6k5Azz81CF733DjkhWKD0Z2Dny6idyaLQh9/MGUxru+vB3o+vfTO6ugK6ddcvw+4ye8vjaYgUZxZi5OXcW9V/tekAolaiIn0orClo1Y9uQj5XjjhS5/lUM9Y8Lvep0/Yd6GQBC6+HFimPDKASTEYD/Ngqq3Id8Mo+XDfz4emjThgl32mU3Rjr1HntW/ZOq0H9f5AskxApYEjy6WVDZhKBLSYyEMbGvC/EP3Yn1Jkfm2bobg2yrVOc+Ti1/457L4wCEDo5KKiCm+8AIwxfwzbxyINiDPiKD9ww9mRiZdfsVv9mbv2GOWyl+fZ27s1gd1Pn+yBS3ECHgNpriioAKF0TbkfPfVqh8uPGFgKs6EtzMcpeiiyRennXruzPX+NJg+C1lmAt0amvDTC88cE3v6r+9t5/Z+9enq9dP+3OO4k6dXKkHosg85koSi2kqseuC2/ROzX+7y03c6q6ALxH2fnmM1DBmGdZIKWdXstu72jVhZhixJ8MbC9hgR6/tF39RMf2oUVs8Rcyu75qO8XCubcGu0ddA+cq0Yva95oMgajFAEmkeFbsaQa4XRrakSSx6+dy+8+cqyrhnIth9V8IjTB+VNnrZ8fVa2/eNFnKHbf+z10y3kxiPoW1+D+UcOYX3ZdtaUPJPgKWFMzUbSDj91SM9JNy5ZHciEpgYQi0mwxL1pcd6rSfBFGtA7UY9ljz58EF54dG5q9rrjWymdct/dscOOn1idkQMzHoUiun9ZKizDgqLIyIi0omfrFiy59/YyzHkl1eu0//qBH3nC8KHjLv26rtcQVFsqFMlAD6Md+vuv3V9509VX7njUv/zKwS/NXr25x9DS9sx8QE8gJ7wFnu/nbtjw7GNDsGBBa0fsM1Xb7MyCnj9u0km+s8e9Up2ZCwmqPXtCPAzRX0ETUzHFWNA4esQiCL/07PSG+6d22Uvv6VNmTM8/8oQ/V2lBxFQxtVOBqqjQw+3QxOh2xFASaYby8Tsvrps84YxU5WtXbie34rKD066Y8PHG7Fy7U6X4IWb35TclexZt90Qc+ZtW4ZuKEawvnZwogncy+K/trvuEW+/wnn7m9WtUL/xiqUJTRhweyIoKyzRQEGlA8cbl+G7GjR4sWiSWOtqlD+3Qir37TL7928rsAoSjcag+H3QxLc6w7C8ztb0ZRYl2bH7r5cnRGZNu67QrCkPGpHUff9p73vJRo2u82TAVLzL0KILrl8fX/P3BQIdNKTuyYu+BV0//dlMwG+2KhCzNQPdEHZY+/9hUPHDfzbs0Wb+x8/8u6AqUrQ2JDFlFXqQNfTb/hK/HjkrZ90XZSx9UhksHdWuU/EgoPvg9GtrjIVhKHPB5xeIC8Cei2KuxGktm3X9M7JWnU3pFJRW5yDzl3BP7XHrNqyvFCmSZeYiICZr2iG8Lfk2DpEfE9TXk1Vdi5Yypu+9Utf/EGjTI023UqedZZ532cHVGZnLRGTFTQfIkpyEmLPQyYsj/YUnkm3P+KJpH8tGJAin7gHbiMTtzV0PGpP3+5jtCK/OL0ZgegGXGk21VZZ89Ml3SFBQ1VEN+4/lbq+69eXJXQej98j/Xt/QZ3CuuZiAme0UnT3sAEESnOTOGjISJksr1WPnnazM6aZ10ucfVd9zoOfLkW2rEl6xiIN2KoleoHt/fecsQzH51aUfaBa6/56bCw/40tSEjAxFJhi8aRd9ECEtmTCrHe1131Hvp7IXWpuJSxMW9EkmM0hbTIWR7EaDsWAhl1avw9diRKfu+8P/plN+NvPDyeUvSeiKS1w3hcBMkr2IvHCT2by83mogjK9KMniJ399+9L2a//E1H5m67tn3c2eXDzj3/m80F3dHgS4ehiOmjgGW3NdCBLAAAIABJREFURbYQUD3QIu0osnSseuPFW/R7rr9pu7bfZZ9coQy99/QFNb8bUb4lIFaRkJJN/8SUGlHYvRIKG+vR/av58xZNPHVUlw3DoQeWsg+oQ306KywJ51x3xl5nXvLcBn8QsfQA4mbEnkduN4wRHZiiUfQL1aP6jhuHtm9ji9JOOfhL/3zxHqef//BmNRdtsmg/K4lVXwDRac6IQ0qYKA21onrmjKPDr876R4cf05iK8qEXT/xmU/EeaPb5oekhFMea0D7nrTvqbu2c5Sr7PvnmSmPP4XtskT0woaIEcXiXL8SPM2dmYdFHLR1usAM76CMKekkf6PYERrFCX3KFU0NWkCkKetVqLEphQReHOOD6qTO9x1902ZK4BV9eOqLhVkATC36ICqHB4/PDKyUgb9mI0vYGLH78gWF453+vhLcDIe/4S444b59hV162uD47F/WKH2FZdF1MtlvWFAVSIg6PnkCxqcNatrhu9cPvdcOiWTt1Ra10zJ96rIm31O3ytQJGVnT73ZRbKpdmZ6EtPd3u+AfdhCp7YcgmLDmCbuE2qM++OHnDQ1Nu3XFkvnJHBFjQd0Qt1a8ZPVotOeXP71pDRhzeIObm+jXoemzr6HYFHjEVrL0VhRtX1ay7+eJeXab7mnAYNSp7/xvvblyT2wt1SmBrVyxxSSG5OIz4wHezYlA+++CDjVede3iHXnYfMiat58TLl4QH7lXa6s+AEdPRw9BhLl5QufGdWWWY00mDq/547JAh196+pC4rFxGvjEQ0gmJJQuOnc55pfP/l8zF37tbVcFL9Rtrx7fWeI87Q+9gFXJyZS6ZlF3SIgh7dWtCP+31qvy/Ky7Xe193Z3lDSS0vkpCOu+GCGxXvHjzRFQzQcgUeszBZrR25AgVq5BhsevPdA/PNvX+x4pDv5yrMu/dOA8y54q1JJR9ifbs+hN0W3RMUP1aNBj8bgEx0cG6pQFmvBiodm7oc3nvl6J/eK4c+9tX51Zf3nzW++fx2+frVmZ7e3Q68fPdoXHFNxX8YfDr6wPacELVEdquSBFQf8/gBCkVYgLYbubY2on3bX76P/eOZfO7QfvmiHBVL7Ad3hw3D5C39f0afvNVPXbinqBVOTEbMS9q0p+xe/5IUWakORGUPVWy9NiM245sEOLYo7kIpBf531WuuoI06oVIOQ/QGYsViymIvBMmIFtkQ7Cus2YNWdU4sxd3aHfRnlX3nbjf5TTrt1S3Y2YuF2ZMTi6F1bi++feHwo3nlimxZe2YHw//dLxl9/wd5njHusMuBDkyUhqPlQ2NSAVQ/eNhpvPv9ZyvaTog31nr3Y2lTSC4a4bCpLkH5e1EdKXnLvV7kWC8emuKCLYx973p57Xnzp0i15OagT6wt4sqEpARhtIXhkdes6BBZiejtyJAsDI2HMf+qRq8xn7urcXuijR6vdDzhysv+Ph0ypycpBNJCLhFiwSPzqsRc9UpNtkH0eqOFmlMXbsOGtl6+K3D0lJcfZ5515jUpBr2zfinWtm+a+f17L8jmzO32Z2bMuObHfRRe8WpuZg5aEaFPlg2J44NO8aI/E4PeZiMdr0K22qmnjUaNzUvTW5Ga2Q4AFfTuwOuapFUrvy/aZKI09+87q9Gx4NRmhRAhS0AdDt+A3vQg0NqE01oiFM27sjU/e2NAxx7HjW/VWnH1U96tvfm+Nd2sjHNEcSxLLK1qQVQVqrB2FejvW/f3Z83HfjWIRFLsBbUofx44b3u/ya76uzC9ERKwSl4ihLB5Gy2svXVd9700zUrqvbduY1Ou2B1/CocefskH2wuPxISPUhJw1y7Hqmce63ACpPv9YalUX9UBCsiBJomd/shW9LinIjYVRVrkWX56YukFx/0mYd8GfT8s75ewX12dkIerx2wsMicEYYmBZLBGFpimwTB0BsXJZUytKZAtbfljwfs0/X70M77wqZk+k/v308wEOGuRBv0OGDz71pLcj3brlhYKZqE3okIIBe961PedOvNcVDYhH7cWSSs0o9Ldef2LDzRPO37a3ym8/q+ydhTXtJX0LgxHdvlrXXLnqu81ffHQzvnhvDlav7thpfWVlXhxw8CGDzr/ovWpvEM2SCskbtJdwtuLJDnGWZCCICIqidVj795euNu+95d7fjorPSLUAC3qqRbd3eyNGZJRfPGVV7R77Fm5WA1AlE3ExqCxLXH6MwaunoVt7CBlLv1zx3X2PDuuqc3JL31tgbS7ui7Dd+9UHn6RCj8dhSRI8kgFfPIaMNUtCG+66qgjff9++vUy/+vzee2eV3TWzvrH3QKXJH4Csx1HY3oD0n5au/PHc48Qa5x33hf9rB3bwkb36XDplbWvvwXKDJZqNmBiomFj/6nPPN9961VkpNdjJjZW+t9SqKuplF3TR5EUVI5b/XdBDKK1ai/kndExBF/vJvG7Gn7sdd+L0yrQMtFqA6glCj0QBTcyaSEAyLPHOghcKPKYOJdyIgngLWj+dc/umL+bfh3/NqdtJgv9++aAKD/LloX3HHHN9xvARx1dnpMNu76Z44MsMItrWKK4zQ9bl5OIkqoI0n4pgQxWU7xd+Xn3hKX9I5fH0ev3z+i1FpbmZgQzo0QhUyUKhHkbgp6Vt1QvmXbtx5YLXMbcD1pHfa1R2wTFjr8o6bMzkKr8f7bIPWlqG3YbfjBmQ1AAsPQHVLyE31IDCn5a3fT/rzhLMnRtKZfzc1rYJsKBvm1PHPev0s47Y4+IrZm8OFKFV8tnNGSxxG9OXsAebKLEg+ofD2PLU9HGNT9/7dMcdyM5tOXPqQzOyDjvmmio1AMMXgCrawJq6veSrJiuwdB19ws3YePe0kZF3n/lq5/b2H68WjT0qznvE/N3R521Jz0e7biAj0oLB7TWY/+Cte+Efb+7SRh6es64/ue9p415en1+AqOqBP9yG3uFGbHnh4YrGp2e+ljKHndxQ2btLrMqSXoj+vHqfPbUiefaZEQ2jb/VqfPenjivo4vD7Trr/dnXMETdsyc5Bi335WrQ9FvPSVSiW6PuegCQGXFom0rU0ROprkafp8LQ1oWn5ikdb5i14AX9/9EtUVMjbPTVRdGnMz7dQh3zs0f+43OH7XZY3aOjgZtWLqNeHVt2ApchQVRWWbNoNVPRIzF50RdM8MOJtKGhrQo8fV3799QXHj0j1j8i+73zWUN9tQE4kIVan8yCg+WGE2pGlmPDrUcjhVrRVrv9i87LvXjRX/vAe5ry4Y10Qy8uTC6rk9ivylg0+vvvhx9zXmJ4NPSPbXnHRlCTIYm2HthYoWZkw9DgkzYLVWoOySBtqZz50ZOtrj8/ZybcjX76DAizoOwiXkpd1H+nXLj3pkZyjjj67QfdCV9MgS167oFuGaPXqg79VQb+menx/zdmF+P7LrtsDeszJe+5z3aSla7OK0CI6x0Vj8IiFZcQSrqIlrOJBcbgV8XdeebDmjomXp8RPfPn0HXLg4HGXf7wlrxfaZC/URBy9Yq3Y9Oz949ueund71jhPySH9r410n/rwE+rhJ523ySuaBAG50RYUrF+GFY/f3xufzO4St1D6v7vY2mgXdNGGVUn2VhcPWUZ6NIw+m1fj+2M6tqCL3RX85Z6pGX885KamvEI0WKLxWjoSoXb7krbskWCakeRywQkVqtcPw4xCiUWQk9BRGNehVVeh9YflT7euXb3AamlcUbdk/de/2E9/5Eh/dlb/YXJWTllmj14Dg/36j5e79chty0hHk9ePNk2D7vHAag8BPr9dzPVoFLB0e+1vVdw/1w34YxEUK3HEvpk/d/0lZxzUEW+kHm993tTUZ2hW3BCDFRUYhiUWUIJu6PbnzKfH4YmEkGMayDJi0LdsQmjTurebNqz+JNbQsKa1dvOyX32vHXLIQE9BwZ4FvfqUZvUeMM5f1L9fJLsEG31BtAeCYsJK8u0gvpvM5JhOcZldTIdQYi0oibcg8a+5M2uuu2xCR8TPbW6bAAv6tjl1zLP2HV3U7+YZm2u6dbfnLOtiJJwl+iNLgBqDJx5HblRC+IuPZrc8NuX4Dr9XtpNR7vfUqz+tGTCsrCE90z6LkiAu3YoBVhZMWYO/pQkD2xuwcOpNmVgwZ+c7p404ut+AG/6yqia/BG2KH5mBNPgaqhBfOPeJ+j+ff+EuaDf7vwV/N6ZgwISbapr7DpZqVMVeTTM3VIvIvE9eaVzwwenbfTa5k3n6Xy/f459fW5UFvdBuWvZlZbHYnin+WVKQb8bRbdPKDj9D//m4sidcd1HmiSc/0pBZglDCA48nHYYZgS6qildLzneO6VDsd5hkNzTxikXbLANew4DHjEMzdHshI8UyYeo6Eok4DLtNKaAoGjyqWFDIY8+711UFpqwgIc48FQkJSDBkGYYkIyFWgxOD3hRZLEicvGdu/+hRISeiyNSj6G1E0PbBew+vnnrlpR2QGnuTBW8uam3sPThdzHFP6BFI4sqET0MkIa5YiAWRkism+kwLmmFATSSg6GIJZN2+VaFIFgwjgYQeg2Ho0C2xpDLg96bZVx50b3Lqv2lJiFkaYrIfhuSD7AmiXReDdLd28DMS0MSsG3FLTY/ZjYB6mGEon3382eqrzh/dUfFzu9smwIK+bU4d8qyccyeOzz738sc3ZeYgrsch+7yQ5ACMuJjyFUcwFkbPUDtWv/zkifHHb9upZT47JID/s9GccZedl37BFU9sCGZDUjRYsQg0sU66+IIJpEEJtyK7qRaVr794Oh6586WdOqbyYwL9Tznp4ZaRfzi7KTsXkmEgM9yMwtoNWDpzRjd8+E71Tm0/1S/+0wUjBp5/xVfr84sQ8WvwWTGUhOpQ8+yjF4ZnPTAr1bvb3u31fPszq6HHQMTtXgLiFomBZG8ZsY53K/rUrsHisQd03vfFORcf2LPizM+tzJ5olTxIeDWYPg+iooDrolCLIpW8mmBYFizxR8yDFusIWOLergJN05CIxe1BfmIcuvhfsZCIeK4oZoYlQfUFEU3Ek82QxF/aXVLEksJioSEJPs1vj+AWJ+OqOFsXSwsnEvBaErLNONIbq/HT2y9fnHhk+qPba749z+/57tLWquLSdLGUsuwxYWlx6KFmIJiTHCGii+MW6VHtHzqykYxTFfPipa0+lrgBZv8sgSRbkO2ibNhn/Ja9xKtkD/SzbABx308B2hPQfD4YigXTjEEVhoYOxbAQhAVvohnxJQs+q7v4TBbz7UloBz238z6gHRTAbrvZsiO8A647719NA/+wb1N6nt1IJtk3MjkPWJw9dI9GULT6Oyx84L4A5r8qntC1HyOOyOh1x10tG3KLty77Klpzq0jEo5B9HshWHGl6BBnLvl226YHJw3a4fa2439l/5Pklx530cF1JH4iOHareju4tm1H97GPHx597/M2uCDXkticfaTvosIvWB4L2OtIZUhhFVT9g1RNPDsdbry7alcfc/e35VlOPPRC2ZPsLXvxHVTUk4hbyE2H0q9+AL47p5OUwR1cU9Ttu7DP+wfsc1pCTh6q4AVnzQdX8iBtiupj4ExfVN9l2VPSCVxTIHg2mWJY1HAY83q2syY5mPz/sMX9imlwUQJpfnNoCRggQ/R/EFTJxXmsoQFyDqvggizN4XVxujyJXrPnd3Axv1fpVq9586aTEm08t6eDcyYPf+7ZlQ173oOH3IfLzGutiwKC4j6+KFRmTt75/bj0rfoyIP+KHmZhtIh6S+KGz9RtfFHT70j00SJIK1bDsgYeSpdsNYuKiMZRoEiXJ0GQP5Ij4gWcCfhWyOOsPtaEgFkHbl3Mfqb9x/CUdHD83v40CLOjbCJXypx12zOBh10xdVpm9B+qVAEw9DNmvwFRVQFxG04GShlrkfDHnsWVTL7go5fvvkA1WKJ77jnlBG3HwKe1aGhRfEGrcgGWZiNv3ZBMIpnlRtHk9Vt94XS/Me2/jjhxGztFnjcw5d9y85n6DpHpTgS/gQ359JeLzP3pwy8RLU3N/fkcO7LdfI+/1+pehup6l/hrTgjeooiBWC9/3S1b/dNdj+2DFrhsZ3H/2d1ZtUV+0i0u64sxXnOlKCmTFi9xIO3pU/YjFFfvvmu+Lc6/6U9kfj30r2G8QGkwJjWKNA3/QvlRuGaIB09b7/VvnztuVWyzrmbwanxyfZvdl3VrR7YItVggTDXQ0mKIKyuImsSjm5n8UdBlIKPBKGjTDhC8RQY4Uhb+5DmvmfnhZ6M7rHvrtlKfiGRXKsIdP/T4xeOigGp+CehFKWjB5Vu5NS56Zi9hFzkQBFw9xW0Cxb3hvLeYi4q3xCx/TgiGaByke28FjiLN6C4Yo9KoJXdPtKx72tiM6grIPajQBI9qK4qAHek0V1n445wzMvOnFVETIbaRGYNd8QFNz7LvxViqUgsn73Jh3yNE3VwaL0CpuXlkJeII+xMWHLhaHX/KgtKURlfdMO7j5nac+3W2CHTfxiMHnXDK7LpiPZlOCJpZUVIGYAiSM5DSkwuYt0N599fLKu6aIJjnb+5CCFWedkHfh5a+Ke+dR07BbbPb4YTkWPvJAN8z7sGtdav+/0R128tARV0/6bn1uEeoVC0FNR2ZtDcx/fnZ95V0T79xejFQ9f893vrU25XZDxKNADnhhwIBuGpBkDRmtbei9eR2+O74TL7n/38DKjvAWjyo/q2jMUbMSvftgvWKh3euD5klDXJyliiltPi9UWUYk0g5TN6B5FHuQvCUuL4v2rOKSsj2w4ucCb9h1T6wUKM7AfT7RctmALs7sTSAQ8EHXo/AYUeRbCaTXVKPlk88nb/jqXw9j/vuNqbLflu2k7zc2N+eA8guzxvzhtpbiEmw2VcTVTFi6BzDEXXJxUUGCookfMpadO7Hin33Bz/41s3Xc/dZTdPHFb1mGmG2XvNOgS/Z4AdFp2n6NuNoh2roqGvySDCnUjmLTQt9QGzZ89uE9qz58dwYWfLxlW46dz+k8ARb0zrP+f3sqLw8ceNXU9rqS7mj2pEP3Bey5tXFDR7sJpHl9yDAtpK/7UV9y8sFbr6XtigPdgX2Wl2t7X/SXeGLgcNQkgKDfg4Su25c1YzDtRiGF8RB6b1iJj08/brvffzllZRnGsP0PL734mldqAhnQFBM5DVuw8v6/7h+Z/XqXX3dciGZceuNfepw8ftoGrw9h2bQ7oPWur8M3D87cG+91+OXb/5nUUW9+Y20u7IZWPWYPjjKshD3lUBT0PD2O3o2b8cmxo7c7XzvwDvqtl0i4aHJFyYEjbw/2LiuNmmJ2iE9c0ELMMhAXBUss4ysr9pVmsfTwzw/7RFb8uzjztP9eDBiLQxMFTYwej4vpaBICkgy/aUJLROBVomitWrOl5ruvJxvLvn0R774b/q0D7ND/f8yYNPTfc2zefgdOyO41cN+4mQZL80NSNcQlC1HTREzMLBFXLzQFOiSxqmmymtu3JUSw4i/EH3ElUAwLTI4XsB+aIv5rTztVYlF44lH49QSslgY0frtoWuuHnz6KeV1sfEqHgu9eG+8KH9DdSywFR1t29BmjB5174aftOXloj0ehip/Jegy6GMiiBhD0B5Coq8SWBXNv/fHOv3SZldW2KfTRo9VR+4y83n/QMdNC6WKd9AgMw4CheCGrHnugTqYeRnHrZix65fl9f3x9O1fQKivz7rHPPgeVHnfenBax/nSsBVWLv7xq/X23paTF5jbFmIIn9Zv1j+XWkP0GVauafZkzM9EMbdniTVUPPzMAizq/aBz4xDuW0WcgdCsOTQyA0iNQxKhvKAjGo0ivWoW3nng4gPnzu85Yjt+P6dNt6P5j8gbseVlmaemeoTQ/tkgKwl4/YuKPKdvTQEVFE4PcxHtPEpegZQumKFqw7EVUfGIYmDijT8SRIykIRiMIrflxdcOPSx+r/2H57PicF1ekIOWp38SgCk/e/iWH+0pKhhX0Lr3AX1BSHA34EVK8aPcGbIOQJSEhBqgqYiT/1jF/tkPyzFwWXQGBpEM8hrSEjrREAmq4HUqoqWXLyu8ea1i14qP2vz32YeoD4BZTLcCCnmrRbdleeXkAKAEWvfufX47JG1xlR3ihRyT0Bnb5ykrbEsv2Pqf8Am1nV576r12KAXJz54obh7umG9z2xv/z8w87dfDeF123rLK4Jxr9HnjlKIpbG2C+O+eO9dOvmrTNmy0v1y4cf1G8pb5x2ctP/u1ArP+ueZtfuz1PrKhQusL0ul895Ipxo1Dae5CWV9zfV1R4eDCroNTnTfeJKVaiuZH4Iwq6biaQ2HpJWYpEQ6HGxvVNDfWftNfWrMSm6h/w8n1zt4emSz33+NP39ZR038Nb2K1YzsoenVnYc2/4AyWKz2cvHiOuQIhLF9LWmQExcV88HmuON7esjdZUfa7X1K6O125ZrX+38VOseHXr7PMuFSEP5lcEWND59qDALhLocdmkGz2njr91U0YO4pEIsi0d/cMhLJh+Wznef2HxNhyWhNGjvWdffkNkc9Xm+AdPvJSD7z9IbVvdbTgIPoUCFOgaAizoXSMPPAo3CpSXaznnTHxLGjbyyERmDox4AmltTcip2RRbeeuUYiz9ouk3WUaMyBg7aXpLbVVty7zn7yvuUpfEf/Pg+QQKUCCVAizoqdTktiiwvQKHnzpkyPhLlmwp6Y0WbwAeWUJRoh11s19+rGnqtWJ+79Yhyr+w4REjMo674Y6Wuuq6tnl/f6TAkbdptteUz6eASwVY0F2aeIbddQTyL5h0aXbFqQ9WBbOR8Abh1aMobKnGxteePy7+2L1v/+qRHnBA+rETb25tqm1q/dfj0/N2uFlP1+HgkVCAAjsowIK+g3B8GQVSKVA8/YkXM0Yffto60wslLYBAoh1pa5eYGx++rRRz567/xX2NGJFxzHW3trQ1tjXNffEBcYaeXDmDDwpQwHUCLOiuSzkD7pICo4/oPvTSSZsaew9GjaRB1YD89gYYn745q+qVp6/+xTXkDzgg/Zirp7ZG26J1Hz5zj1iHmgW9SyaYB0WBjhdgQe94Y+6BAtskUHD21ScETjr3tfrCHogYOrIUC/mtdVj5t6dOxqdvvf0/V9vbWtD1iI45T9zp5z30baLmkyjgSAEWdEemlUHtrgIl9zz3pLLvqHEtgSzokBHQY8jevN766d7bylG/ejlWrPjvucFb76EbUQP/uPWO9F3ZD353NedxU8ApAizoTskk43CGwO/H9Njn0mvWbe45SKnXgvB7fUiv24KMb794f+UbD1dg3ry2/wp00OjgUTff0KZaKt6+5+7UrDPvDElGQQHXCbCguy7lDLjLCxx72u+HXjX5s7XeDMQ8QaRbJoqba/Hjq0+fn/jinef+6yz9gAPSj7pySqtd0O+8IwuLPmrp8vHxAClAgQ4RYEHvEFZulAI7J5B7wx0zexxecVmVLwMNpoXs9ADSNv6EjQ/duRf+8cqyf2/9P8/Qb5+Wje/mdkzr150Lh6+mAAU6QYAFvROQuQsKbLfAyJH+fc65cnXL4OEllf50xH0+5ITbUbB4/vcrZ902/N/zzf/zDJ0FfbuZ+QIKOEmABd1J2WQsjhIIHHrs8H4TJ3+9PrcbWsSyloaJMsPCDy88NwEPXD/TDvY/z9B5yd1R+WcwFNheARb07RXj8ynQiQI5N06fknP4cTdv8qXDSkuH2h5HcdMWrLnvlj0w+5WfMKhCO+rm8TH7HvrkKRn48f8MmuvEY+WuKECBXSvAgr5r/bl3Cvy6QO/RvqGTJyysHbjfXpvVNMCrID/ajKLVS5Yv/ev9ByBdN466dOso96nTOG2N7ycKuFiABd3FyWfonSsw8NCj+yVUw1w9Z86a7drzIcfvv9e1t8zfmF2INr8HnkQEPUPNWPXpB3di7kdPH3L5lSt9hoX3pt0Z5PKp2yXLJ1PAUQIs6I5KJ4PpygInPfqSZRYVotXrw/Lqzauqli+5DYv/9Qbmzg1jyBD/L7Z3HT1aLRhx2F15hx991fqAH0YgC76IBH84gpoXnjhz8OEHP99bBf4x5bLgL26jK8Pw2ChAgZQIsKCnhJEbocBvC/S/4Lqzpe49R/lL+473de8B6AnkJCJIbNoU3bh4yQ3N1ZXztyyv/w6ZtQoWLQr/1xb3GpVdctYZr2UccsTBqxMKJC0XmiUBtZsaSz1mTn5TNT65/Zq0/9/rfvuw+AwKUMAhAizoDkkkw9iNBCoqlDwj/ShvQdF+A4YPu1LJykzzpOciJCmojoVRuWHds+EVy9/HiuVzkK+1YXmdH3F/AqW5A/pdeP63jYU9pWZfDlRfEJ7WFuSFmtCnvRafTLs9DYvejf7mGuq7ERUPlQIU2HYBFvRtt+IzKZB6gRFHZCA92Mvfb8Chab1775s/eM9TAmnpyAGgNjdDqatrWrHom0k1dVsWhhtXrcDwo84sHHvCrFpvBixTgk/2oigcQs/Gjfj8mpt8WD1HrLZmpP5AuUUKUKCrC7Cgd/UM8fjcJbDHAem5/Xsd3G3g4MN7Dt77Ii0rD+2qF42ygnrLtNb/+NPfpUF7HK0U5qfJvjRYIaAwGkXfhg34/N5rNMydK4q55S40RksBCggBFnS+DyjQNQUk7DUqC3mFJdrAgYeUDB1+TsmAgXvHDBNtsoVouge1kQQUfx7S2iPo31aDeUftx89z18wlj4oCnSLAL4BOYeZOKJACgfLyzJKB+x0f6NVjWPbQvS6LF5eg0puONI+K3KrV+PaoMfw8p4CZm6DA7irAL4DdNXM8bgocNXZP7Dn8D/v+8fcPFrU34d2xx/LzzHcFBVwswC8AFyefoVOAAhSggHMEWNCdk0tGQgEKUIACLhZgQXdx8hk6BShAAQo4R4AF3Tm5ZCQUoAAFKOBiARZ0FyefoVOAAhSggHMEWNCdk0tGQgEKUIACLhZgQXdx8hk6BShAAQo4R4AF3Tm5ZCQUoAAFKOBiARZ0FyefoVOAAhSggHMEWNCdk0tGQgEKUIACLhZgQXdx8hk6BShAAQo4R4AF3Tm5ZCQUoABuSFXvAAAJ10lEQVQFKOBiARZ0FyefoVOAAhSggHMEWNCdk0tGQgEKUIACLhZgQXdx8hk6BShAAQo4R4AF3Tm5ZCQUoAAFKOBiARZ0FyefoVOAAhSggHMEWNCdk0tGQgEKUIACLhZgQXdx8hk6BShAAQo4R4AF3Tm5ZCQUoAAFKOBiARZ0FyefoVOAAhSggHMEWNCdk0tGQgEKUIACLhZgQXdx8hk6BShAAQo4R4AF3Tm5ZCQUoAAFKOBiARZ0FyefoVOAAhSggHMEWNCdk0tGQgEKUIACLhZgQXdx8hk6BShAAQo4R4AF3Tm5ZCQUoAAFKOBiARZ0FyefoVOAAhSggHMEWNCdk0tGQgEKUIACLhZgQXdx8hk6BShAAQo4R4AF3Tm5ZCQUoAAFKOBiARZ0FyefoVOAAhSggHMEWNCdk0tGQgEKUIACLhZgQXdx8hk6BShAAQo4R4AF3Tm5ZCQUoAAFKOBiARZ0FyefoVOAAhSggHMEWNCdk0tGQgEKUIACLhZgQXdx8hk6BShAAQo4R4AF3Tm5ZCQUoAAFKOBiARZ0FyefoVOAAhSggHMEWNCdk0tGQgEKUIACLhZgQXdx8hk6BShAAQo4R4AF3Tm5ZCQUoAAFKOBiARZ0FyefoVOAAhSggHMEWNCdk0tGQgEKUIACLhZgQXdx8hk6BShAAQo4R4AF3Tm5ZCQUoAAFKOBiARZ0FyefoVOAAhSggHMEWNCdk0tGQgEKUIACLhZgQXdx8hk6BShAAQo4R4AF3Tm5ZCQUoAAFKOBiARZ0FyefoVOAAhSggHMEWNCdk0tGQgEKUIACLhZgQXdx8hk6BShAAQo4R4AF3Tm5ZCQUoAAFKOBiARZ0FyefoVOAAhSggHMEWNCdk0tGQgEKUIACLhZgQXdx8hk6BShAAQo4R4AF3Tm5ZCQUoAAFKOBiARZ0FyefoVOAAhSggHMEWNCdk0tGQgEKUIACLhZgQXdx8hk6BShAAQo4R4AF3Tm5ZCQUoAAFKOBiARZ0FyefoVOAAhSggHMEWNCdk0tGQgEKUIACLhZgQXdx8hk6BShAAQo4R4AF3Tm5ZCQUoAAFKOBiARZ0FyefoVOAAhSggHMEWNCdk0tGQgEKUIACLhZgQXdx8hk6BShAAQo4R4AF3Tm5ZCQUoAAFKOBiARZ0FyefoVOAAhSggHMEWNCdk0tGQgEKUIACLhZgQXdx8hk6BShAAQo4R4AF3Tm5ZCQUoAAFKOBiARZ0FyefoVOAAhSggHMEWNCdk0tGQgEKUIACLhZgQXdx8hk6BShAAQo4R4AF3Tm5ZCQUoAAFKOBiARZ0FyefoVOAAhSggHMEWNCdk0tGQgEKUIACLhZgQXdx8hk6BShAAQo4R4AF3Tm5ZCQUoAAFKOBiARZ0FyefoVOAAhSggHMEWNCdk0tGQgEKUIACLhZgQXdx8hk6BShAAQo4R4AF3Tm5ZCQUoAAFKOBiARZ0FyefoVOAAhSggHMEWNCdk0tGQgEKUIACLhZgQXdx8hk6BShAAQo4R4AF3Tm5ZCQUoAAFKOBiARZ0FyefoVOAAhSggHMEWNCdk0tGQgEKUIACLhZgQXdx8hk6BShAAQo4R4AF3Tm5ZCQUoAAFKOBiARZ0FyefoVOAAhSggHMEWNCdk0tGQgEKUIACLhZgQXdx8hk6BShAAQo4R4AF3Tm5ZCQUoAAFKOBiARZ0FyefoVOAAhSggHMEWNCdk0tGQgEKUIACLhZgQXdx8hk6BShAAQo4R4AF3Tm5ZCQUoAAFKOBiARZ0FyefoVOAAhSggHMEWNCdk0tGQgEKUIACLhZgQXdx8hk6BShAAQo4R4AF3Tm5ZCQUoAAFKOBiARZ0FyefoVOAAhSggHMEWNCdk0tGQgEKUIACLhZgQXdx8hk6BShAAQo4R4AF3Tm5ZCQUoAAFKOBiARZ0FyefoVOAAhSggHMEWNCdk0tGQgEKUIACLhZgQXdx8hk6BShAAQo4R4AF3Tm5ZCQUoAAFKOBiARZ0FyefoVOAAhSggHMEWNCdk0tGQgEKUIACLhZgQXdx8hk6BShAAQo4R4AF3Tm5ZCQUoAAFKOBiARZ0FyefoVOAAhSggHMEWNCdk0tGQgEKUIACLhZgQXdx8hk6BShAAQo4R4AF3Tm5ZCQUoAAFKOBiARZ0FyefoVOAAhSggHMEWNCdk0tGQgEKUIACLhZgQXdx8hk6BShAAQo4R4AF3Tm5ZCQUoAAFKOBiARZ0FyefoVOAAhSggHMEWNCdk0tGQgEKUIACLhZgQXdx8hk6BShAAQo4R4AF3Tm5ZCQUoAAFKOBiARZ0FyefoVOAAhSggHMEWNCdk0tGQgEKUIACLhZgQXdx8hk6BShAAQo4R4AF3Tm5ZCQUoAAFKOBiARZ0FyefoVOAAhSggHMEWNCdk0tGQgEKUIACLhZgQXdx8hk6BShAAQo4R4AF3Tm5ZCQUoAAFKOBiARZ0FyefoVOAAhSggHMEWNCdk0tGQgEKUIACLhZgQXdx8hk6BShAAQo4R4AF3Tm5ZCQUoAAFKOBiARZ0FyefoVOAAhSggHMEWNCdk0tGQgEKUIACLhZgQXdx8hk6BShAAQo4R4AF3Tm5ZCQUoAAFKOBiARZ0FyefoVOAAhSggHMEWNCdk0tGQgEKUIACLhZgQXdx8hk6BShAAQo4R4AF3Tm5ZCQUoAAFKOBiARZ0FyefoVOAAhSggHMEWNCdk0tGQgEKUIACLhZgQXdx8hk6BShAAQo4R4AF3Tm5ZCQUoAAFKOBiARZ0FyefoVOAAhSggHMEWNCdk0tGQgEKUIACLhZgQXdx8hk6BShAAQo4R4AF3Tm5ZCQUoAAFKOBiARZ0FyefoVOAAhSggHMEWNCdk0tGQgEKUIACLhZgQXdx8hk6BShAAQo4R4AF3Tm5ZCQUoAAFKOBiARZ0FyefoVOAAhSggHMEWNCdk0tGQgEKUIACLhZgQXdx8hk6BShAAQo4R4AF3Tm5ZCQUoAAFKOBiARZ0FyefoVOAAhSggHMEWNCdk0tGQgEKUIACLhZgQXdx8hk6BShAAQo4R4AF3Tm5ZCQUoAAFKOBiARZ0FyefoVOAAhSggHMEWNCdk0tGQgEKUIACLhZgQXdx8hk6BShAAQo4R4AF3Tm5ZCQUoAAFKOBiARZ0FyefoVOAAhSggHMEWNCdk0tGQgEKUIACLhZgQXdx8hk6BShAAQo4R4AF3Tm5ZCQUoAAFKOBiARZ0FyefoVOAAhSggHMEWNCdk0tGQgEKUIACLhZgQXdx8hk6BShAAQo4R4AF3Tm5ZCQUoAAFKOBiARZ0FyefoVOAAhSggHMEWNCdk0tGQgEKUIACLhZgQXdx8hk6BShAAQo4R4AF3Tm5ZCQUoAAFKOBigf8Ph9KWxXV03oYAAAAASUVORK5CYII=;" parent="1" vertex="1">
                    <mxGeometry x="303" y="459" width="74" height="74" as="geometry"/>
                </mxCell>
                <mxCell id="23" value="" style="shape=image;verticalLabelPosition=bottom;labelBackgroundColor=default;verticalAlign=top;aspect=fixed;imageAspect=0;image=data:image/png,iVBORw0KGgoAAAANSUhEUgAAA0AAAAEsCAYAAADqytNKAAAAAXNSR0IArs4c6QAAIABJREFUeF7svVmQX9d95/c9567/rTfsBBdIoiiSkix7bMuZeJKZvOQhL8lTamqqkszTVOx4kUSQ2LrRWLqxUFxszaSScdWkpiqT1KSmKo9JTeVhxpXYnrFGlixbJEVSNAkSaAAN9PZf7n5O6nfOvf/+AwSB3oB/A//frZIa7P4v937Oueee728V4IMJMAEmwASYABNgAkyACTABJjAiBMSIXCdfJhNgAkyACTABJsAEmAATYAJMACyAeBIwASbABJgAE2ACTIAJMAEmMDIEWACNzFDzhTIBJsAEmAATYAJMgAkwASbAAojnABNgAkyACTABJsAEmAATYAIjQ4AF0MgMNV8oE2ACTIAJMAEmwASYABNgAiyAeA4wASbABJgAE2ACTIAJMAEmMDIEWACNzFDzhTIBJsAEmAATYAJMgAkwASbAAojnABNgAkyACTABJsAEmAATYAIjQ4AF0MgMNV8oE2ACTIAJMAEmwASYABNgAiyAeA4wASbABJgAE2ACTIAJMAEmMDIEWACNzFDzhTIBJsAEmAATYAJMgAkwASbAAojnABNgAkyACTABJsAEmAATYAIjQ4AF0MgMNV8oE2ACTIAJMAEmwASYABNgAiyAeA4wASbABJgAE2ACTIAJMAEmMDIEWACNzFDzhTIBJsAEmAATYAJMgAkwASbAAojnABNgAkyACTABJsAEmAATYAIjQ4AF0MgMNV8oE2ACTIAJMAEmwASYABNgAiyAeA4wASbABJgAE2ACTIAJMAEmMDIEWACNzFDzhTIBJsAEmAATYAJMgAkwASbAAojnABNgAkyACTABJsAEmAATYAIjQ4AF0MgMNV8oE2ACTIAJMAEmwASYABNgAiyAeA4wASbABJgAE2ACTIAJMAEmMDIEWACNzFDzhTIBJsAEmAATYAJMgAkwASbAAojnABNgAkyACTABJsAEmAATYAIjQ4AF0MgMNV8oE2ACTIAJMAEmwASYABNgAiyAeA4wASbABJgAE2ACTIAJMAEmMDIEWACNzFDzhTIBJsAEmAATYAJMgAkwASbAAojnABNgAkyACTABJsAEmAATYAIjQ4AF0MgMNV8oE2ACTIAJMAEmwASYABNgAiyAeA4wASbABJgAE2ACTIAJMAEmMDIEWACNzFDzhTIBJsAEmAATYAJMgAkwASbAAojnABNgAkyACTABJsAEmAATYAIjQ4AF0MgMNV8oE2ACTIAJMAEmwASYABNgAiyAeA4wASbABJgAE2ACTIAJMAEmMDIEWACNzFDzhTIBJsAEmAATYAJMgAkwASbAAojnABNgAkyACTABJsAEmAATYAIjQ4AF0MgMNV8oE2ACTIAJMAEmwASYABNgAiyAeA4wASbABJgAE2ACTIAJMAEmMDIEWACNzFDzhTIBJsAEmAATYAJMgAkwASbAAojnABNgAkyACTABJsAEmAATYAIjQ4AF0MgMNV8oE2ACTIAJMAEmwASYABNgAiyAeA4wASbABJgAE2ACTIAJMAEmMDIEWACNzFDzhTIBJsAEmAATYAJMgAkwASbAAojnABNgAkyACTABJsAEmAATYAIjQ4AF0MgMNV8oE2ACTIAJMAEmwASYABNgAiyAeA4wASbABJgAE2ACTIAJMAEmMDIEWACNzFDzhTIBJsAEmAATYAJMgAkwASbAAojnABNgAkyACTABJsAEmAATYAIjQ4AF0MgMNV8oE2ACTIAJMAEmwASYABNgAiyAeA4wASbABJgAE2ACTIAJMAEmMDIEWACNzFDzhTIBJsAEmAATYAJMgAkwASbAAojnABNgAkyACTABJsAEmAATYAIjQ4AF0MgMNV8oE2ACTIAJMAEmwASYABNgAiyAeA4wASbABJgAE2ACTIAJMAEmMDIEWACNzFDzhTIBJsAEmAATYAJMgAkwASbAAojnABNgAkyACTABJsAEmAATYAIjQ4AF0MgMNV8oE2ACTIAJMAEmwASYABNgAiyAeA4wASbABJgAE2ACTIAJMAEmMDIEWACNzFDzhTIBJsAEmAATYAJMgAkwASbAAojnABNgAkyACTABJsAEmAATYAIjQ4AF0MgMNV8oE2ACTIAJMAEmwASYABNgAiyAeA4wASbABJgAE2ACTIAJMAEmMDIEWACNzFDzhTIBJsAEmAATYAJMgAkwASbAAojnABNgAkyACTABJsAEmAATYAIjQ4AF0MgMNV8oE2ACTIAJMAEmwASYABNgAiyAeA4wASbABJgAE2ACTIAJMAEmMDIEWACNzFDzhTIBJsAEmAATYAJMgAkwASbAAojnABNgAkyACTABJsAEmAATYAIjQ4AF0MgMNV8oE2ACTIAJMAEmwASYABNgAiyAeA4wASbABJgAE2ACTIAJMAEmMDIEWACNzFDzhTIBJsAEmAATYAJMgAkwASbAAojnABNgAkyACTABJsAEmAATYAIjQ4AF0MgMNV8oE2ACTIAJMAEmwASYABNgAiyAeA4wASbABJgAE2ACTIAJMAEmMDIEWACNzFDzhTIBJsAEmAATYAJMgAkwASbAAojnABNgAkyACTABJsAEmAATYAIjQ4AF0MgMNV8oE2ACTIAJMAEmwASYABNgAiyAeA4wASbABJgAE2ACTIAJMAEmMDIEWACNzFDzhTIBJsAEmAATYAJMgAkwASbAAojnABNgAkyACTABJsAEmAATYAIjQ4AF0MgMNV8oE2ACTIAJMAEmwASYABNgAiyAeA4wASbABJgAE2ACTIAJMAEmMDIEWACNzFDzhTIBJsAEmAATYAJMgAkwASbAAojnABNgAkyACTABJsAEmAATYAIjQ4AF0MgMNV8oE2ACTIAJMAEmwASYABNgAiyAeA4wASbABJgAE2ACTIAJMAEmMDIEWACNzFDzhTIBJsAEmAATYAJMgAkwASbAAojnABNgAkyACTABJsAEmAATYAIjQ4AF0MgMNV8oE2ACTIAJMAEmwASYABNgAiyAeA48KgIbnWv6UZ0Qfw8TYAJMgAkwASbABJjA6BHY6KZ09MjwFW+UgMDz8L/x919p+7XQi4sMfhii0+siDEPkqrjjcxQAXc46ZX5KaK21J4WQuUJduHm6tLL4V2/8k2cA0MvpYFG00dHg1zEBJsAEmAATYAJMgAnclwALIJ4gmyFg58uvwt33X/5+JMZbjusGEHB0J4lEUuSojTWxuraGsbEx9OIIrnQ+9/mDAkgrASkliiRGIwjR67YxVmtAKiR1KYNQCfQWFm9f+Xc/OIh/2xdElShiYbSZ0ePXMgEmwASYABNgAkyACYAFEE+CLyIg8PTT4X81f7r30ysfoT4+jtvLy3A8F6kvEU3W0c4TeDpAdvs2aoefRhR3gSwHAg9wPaDIAOMAUoCWpUNHAoIcO/TfADwP0BooFJBEQBig1qgj+vRTiMkJIEoxJl0EUY6mFvAzjZrnotfrYdzxb/357Nx+9hDxJGYCTIAJMAEmwASYABPYKAEWQBslNTqvoznhvnjpZLrsAu1CIRMCtbAB4ToooBGlCaR0TFya69SRqQLS85BlCdxaDUpoqE4PcCXgeBBawzFuH3rH4E8gzzJI1wWFw/mhjzRNAJXD8wMUaQIHAoHrIIsiBEZUKRQqg+d58NM0He92r30w/ebzpbpij9DozFO+UibABJgAE2ACTIAJbIkAC6AtYXti3+T/xxdnkgUfWPA14sCHI1x4ro94pQ3h+xC+CygN1U1RD2tIMwU38BGTKPI9KK2ALIMThCiKArKUJNVEE+V/V79XlAMkyEekockzZPQR/bQeIkdoFGkKEbjQ5FGikDpXAPTZeY59QkAvrWBvvYGgl97+8cz3ySNU5Q49sQPFF8YEmAATYAJMgAkwASawNQIsgLbG7Ul7l/PrF850l0QRLLoKcd1H6pehadoxcsKptEm/iIEVKCRojIChmVQ5dzQFuKk7/1YSI+FD73FKIVQICQ1RxmJqFOZzyi+j99zh0ylD50wIHSC1gldoOEVhxNGYX4Pfjm58emL+MMrguydtoPh6mAATYAJMgAkwASbABLZHgAXQ9vg97u+WOHCg9q0T37u90G0HSStEVHORFqkJXYOUQG7cM0YA0f9I6ChZCh4jQiwC1ffe2P92yItT6hd6ff8oxY/1BEmo0tNTeYYKWTpvqpn5gKA2cgblWYwgbEDnGUQnwpT09FSK3s9OnJ4CkHGO0Jan6aisDwPSfcus+I1MgAnsDgIbWbc4XNqaLId1PEn8aYdTPUMqntX13Ysx/e1Juv5hzaFtf+8wb4Btnzx/wJYIiN/8wwtqRefdlajX0MqB9n2spAn8veNY7bWBsQZl95gwMxNMpgG3kEbsKKmsCCo9PpVesSWt1491YfT5c6y8QLYaHPmKqv9fF1b9pXkDy4TrShRRhobvQymFlASR68JJY+wtBOq320t/ffHtvbzobGy+/Nprr15dm6w1254Y09KB0AqusmKXxtmmc0kUkqZGtfavf7agCUMvEtp4+9aPqviFguwXxSg9fhs7ta2+qjqLux48SkBkUtAMLJBM9rIbPz3z1nNb/RJ+HxNgAkMlIL4+P31rSaup1JGQjgdPOiZSgA777FJm3aLfBIXCRJTffmf60iiETVcxGuIrc6/cjl3tyVrdyXPX1fSst8cdT3FhVntTvKj6edd6XhpAy4iMzY+8ghBa+0IUoh3HH/4fr+/BO4+dwVJ87djvLecT4+MJJDzhoRA6XdW9LByrKwkhonbPGRd1VyqITOc6QJE5yyvZ+6//40nek2x+1uzkO1gA7STN3f9Z8qsXTiwsONif12omn6euHWRpikwCMQo49RpyquRGTwjHhr/RxleWbhzK06EHSLVUfpEA2jAKsxHexiZYK0jXg+rFNrSO8pAoTSmPgcCHnybYXwjsX8uW/+LUPIkgzg96wOB87fyZpRvj/mSn4SEnEUxHYeeBqMarnAA2ZPF+H3iXgr1b0JqH55CGRBSQSCFp4iidHYnR/fC78/RQ4oMJDJvABn3gwz7N3fP9L8+e7C6MhfVkooFekkEEIXSalbV3aPEiSxs90MpzznM0u108tdy7+f7cHx7YPVeyo2cS/qdnTq3djCKPQtujppdGNcePpIJ2A+QU4bEugB78xZ8zSG59/Tb7CqGhkwxTXggvyVQ9LWTYS/HSocP4V2fONXHjRm+XiwTx0pvz6lbgY1UKU9BWSY0ij4AatQCRQJTAcZqmoBNNxnGliz1xkr93dDp8MHB+xcMkwALoYdLdXZ8tD5072o5brbqanMBqFNtknDSBF/rIlYIfBkhW24DrotYcR9Rum2pv9LJqoqx7f8pNq7aeITru8AL1g4pk/3ljXmPEzoDg+dyG+PPL3f28SaYoQhTBa41BQiCPEyiVm/PRlGikEojAg5sm2JuJ+KkOFn80ff7Z3TU0u+tsvnTuVHSt6YVJ4AB+YAeMdJCisZZ2PphxJwseRRiq9TywcvjubHZ7v+sbkvixMxaQ5sJM4Y7DMTpXj15o7a7R4LMZEQJ9Cz3tml6cP/lxq0Drh6cvjO/yDeBuGR73G39wKXs37aCoBZCNMahOBEdSFVLrkDaGu0GHtS7gqghPFyL9+HdP15+0vNG/c/ro4nVf7k1bTcTSQREEWKJWFb5PJYdMywrHcft8zDNz4Gl9d1SHGejP7RipxcXWpgA9S2QmELoekiSG77vI8gSBKxG6Au0b1+M9QRA2M939+cwbZJiih81uO8Qvz82pD2SBbt03xZuc0ENhwiVSO/GkhKN9FElqoinq3QRfVU7yk+npGt/bwx1OFkDD5f+ovt0/cvlUciv0kLkBkjQHWuNAFkE0AujuahnXRLFt2pSyzqMUnudD5aUHoF/8oAp/u1MAfa4YQiWAaNM8WCyBrtj8wi6cd3iQBmcj/e0eC+vdi7LrBaaUtuO6KNptuGEdvuuZCnQJrZehY67TfGeS46nMza/9wf/SwscfJ7z43Hv6fXVuOlre1wxvmcEpdw1kKSzFbuUFojwvR2dmLE2kZDl+ZqNR5X/dy0N0x7gOJog9qtuh/B6ag0UBUaMNgcKBpW504+gcbYT4YAI7TeBez1rjk/i70zM3lr18LHGVm6oCWegX7VqQ1pY7y9dnvk8FXfi4PwH5S7Mn1hZqstGebCF2HYBsYLmCW65ZVGynL4DM4kTrTg7hZKh1ezgSabxzcv6J2g+9NPeqXhqr4UaaAmHDPNtRa9gKq90evHodOo2MIat6ruoyJ/e+6/cgpTsSfDc3TY0AKhwbZCcFclEAZFDzJNDrwBtvwUlSNLMcYTvBPu3ixyfm/F0mhMSvzZ1XV8YCdFs1dLvWYSVcYavWkkuI8qnNNkqg2Wyg0Y7wzGqc/IfpGfYAbW7K7Pirn6gbfsfpPP4fKL564dXOSujXC8dDRAtOrYFMU3Svh5w8JaoL1FxA+kAcw3F8U3badVzkUQTHD0rr/hdb6o0rW1M1t9LKZja9JkHEGtlLAUQ4B8Pn6I9u2Sg1J29xmRNUCaNKVNH7qgW6ykOphkbAgY4i+M2m+VWe5lC6sOF7ZmXNASHgeA5EksJXGjU6pzjD/kK2f3byDFtY75rnXz75O9nNiZqbtBrIpGv5FeT5qUqWWzMqjbjUef8BWuV0mbC4AUF058eX86L/S2qMe48WUXe3jHpY/00hfjT3kGPPWpzcfnWOrXKP/7q3q67ghWO//UE81ZpEvdbKeomjtS6UJ5Xrh26RiyLJ0kCHHmTgIIoiSM9F4YW9qeW1pYVjF57ZVRezC0/mW6+funldFPs6oYee71kvRpIjrDdNeJWNWigFUD+UgeIFlNmk1oRAK0mim989Rw+RYbqkd5TuNy6d0tdbIZYdarJXR0GGT7vYQWjaoKdwKEpiMIdHU2Gi9dOojFp3nFj1nO4LyS2u38a8JqDiGF6riSwuo92ospHrAmkMZAVcISk8DnvCJoIkS5xuKhuu3/nxyZl9u8BrJ148d1x90vQQ1XwKO6HeHQhozpEAomt0PCRmc0SsC9SiFEe6efLuzEUWQDs64zf/YSyANs/scXmH8+Lsa70re3y/RyFgOSWDuijMimat+RQipkIJFOQMoYpvZIFxzIJDXpUgDJHkpde5WiRL6z2tm0bfkIe3FEBmG1mFGdDnlQKoKnl9twCSSplEVHriJF7pbCDLHBlN6FQGwqnuKYDoBUojCOom9K1IEni1GqTrGJe6pKIIppBDDmNnIk+FsklN1LMoaPdwZDVZfufM5T3sDVqf1t88e1QtjoVi2XeQSVupzzEDYEWurdxn1GXppSuTjAcfjPdaWcrKf3eGTFCxhC0+QHfifWY3YCfxvm6ULH73NAugx2WFe0zO8+s/OLv6C8T12JMuhG/WJ0UNn0vLsHB96CyBCAPoLDPNnuGGxb6lzs3FE+efekwuc1inKfZ+/5iKfQ+RK6GIpRBwycAXU+6FbdhtHBXVekEyoHRTC0ciT7poui4OddL2B8fOjw3rQnb6e7967pi+2vLQq9ese94h54lrclJcmnuiKL0uA5qvn+P5gLOpDJxVTNyWDFS0iSggA9eIICN6jGIgD1UXotk0TdRVmpmoDpEr5L0YY2HdCNtxhWiy3S5+cv4yGTGHJlxfvDStr475aDu0x3AhyNOWp6YSrhACptWH40FLUkUZmoXC0+0see/4HAugnZ70m/w8FkCbBPaYvNz90ttz2Q2pkLoucnNjlqFGStmS1mVFL/u3svnoXWFnttLbQFnqUvyYPNLy3yR47hBA9D0DDxtHCxRZDtd1bRw2+YLzHGFQg+4lqDsOumkPWcOH9il0QZn/+TKAKBQFKdzhgfpc2e1q010VayjPy5T7qqrVVYN2V7UaVxXYS5WA1pLee6cukPVvi9HMj8ms2OBpfnP6mF6cqmEpcJDSoi1kGapo55CZF/SgpJ+0YauFZqNRdDpAGAIkMkl40gOtrCJonmtlLhl59gbzunRZLa4sHFcVkHvoP6uAdmrCqxxgz0onuX3iHAugDc4TftmGCIivXDoZXW94QdeTcOCWRhhpomPsfVS5TMsbQzighmj71qKbi8dnn9Tk/A3Be9CLXpw/+cmnreBZJayxhiqaWQ+0rUJpjsG+cmU7B7cM3UqEguMLII7wdCaTT14xuUBD20w/6Ho38/cXLpw0AqgbkBffAbRdj+n5TZEXtI6byAta1qtnuyRxnpn8IK9WtwbE8rizouf6mWx9/aaCShShUamnAUNYlYtkhNZAmLQSZu9CbwmKAmHWxX6tl999dW5oBY6OXD6lFhqhSDyy4to9DJV802TIoOlHIpvmm0vXUSDIMhzqxvHHx+bpWcPHEAmwABoi/Ifw1eLvzp9XC00f78dtYM+UcSGbFc50MiXVk4M8Ly5ZKbRA6pDVZd2aXy1y681Ny6akfXdMuYCWPYGMx4fsSuUDJb9LANH31/wQUUbFFjxkvZ4ptoBOjJb0oZIYrT2TuJq2UVDSYFg35+UkCirLIf1gvTnqvfoOVWtjWaZ7MG+oH5JXPg/tmQ5auxQQ9zCWazydyOSd6fkn5uG3nbn19ZlT+qYRQBQ2UgqdAdFrKJYiyFiz6d+9HkAPAAo9NF438rL5/YeA7JfFFsaqN2iOpcqCO+HM2awRkh6sItc2T7Xm4WAvTT75/WMsgLYzefi9nyPwwvxMvNByg65HfmiHjN4QUqLQVDzECiBat7SmuSiM1VgrqlwZLd48MUMlmvn4AgLPXT6TX22GjoloIG6mt1y1Y6/ETxmKUK5hVNKf2jqQE6gIXORphMB3UFvq4EudfPXHc5cmngTgdwggE/pGF2yNT8TACiAbsgVTLY8EuAPX9eBT2FYcm7m4LnzutcLS43qL67fJHS2gBIVS20ErW5yvh8NXBs7BcJDScCBJTHg5sLyCw6mz/OE/v3gIH4LCWR7pceTSTHGjEcjIIw8bMVZwqCJcYYsxCcdFQfstMjZDoZalONBN4o+Pn2cB9EhH6vNfxgJoyAOwg18vv3b22PJKGI51fA9dSgSlG3KwzLSpeJUbt7OjlF3YdGAeGv1FTpA9nHJ1BoRPZfE3ry+bolYepLKKwecEUHlhMtfGO6AcjSKOEIw1IXox/NUYU34NH/+v/3Ry8r/+b5Z746ENg3M9IM0hUo1mrY5uZmO4qx2yqTymB86vAlgaTysBROtpP/RhEHJlZC2NTW7NQ9GLMJEL7Oklyfsn5qgJ0rrZawcH6HH5qOfPzOibUyHWyCNnBCY1zqiq/ZSPqNJiqFQB6XlQeQ7X9yGlRJ7n1vWfUJgPPXhpLtnFvxLb67VoSyqbVS878HqaRzXhm4IZtBk62E2Sz16bZQH0uEzUx+Q8X5qbSRcagdf2XbjaMR4gR0pkWqEw+1LrqpZUgEZTbp1AoSQOtLuLn02zALrPMIuDb5zPrjesAOp7pfsCqCrRTOqSwnVt/7GqnD8tIRklq6eR+ftkWENrpdu5cvwchcE99tEAL82f1FebHtbIA2RrgBuU9tFu13GzMSfvkNDwgwBFmqHIMni+b4yVMqD9QSUoaW9QruMDxRLMX7eyHpszslVm+4/xwaiN6rlfjWe5/zA5wuY9CipPUGuEcKIEjV6mn5Nh8edHZ6h06SPz4n3l4pn8Zt11up5vMmNNmL1DRozSA0RGxEKbZyMV22lkKfb3svgXJ86yABryGs4CaMgDsENfL19860zxWZECY+OIyLojXWijAigUgDavpQeIBBD1PzECiISP1+/xU4W82aTRUgAZE0YZqlG5ycsFyAgl8iwNxFT3PQZ2fYLMqU8PVXihzytM7o1aXMHz/gQ+/BfHfPwIxZf/4GJxw1PouvSJZS5Sok3YXE5hVAMecKd0K/cF2sA5Vac6oInWxdNdQqma+EWcAI3QlANvFcCRQhb1a8uL//7Ntw/t0Ng8dh/z/BnyANWxRqEhtHiXY2kG1Dzo6Gf5MKUcoTyH43kgloJi7vMEXhAiV4URQmThM0f1QBscKNNZdYiV4LLCxJfTE3X85nK8OPM6eQEf+83PYzfpnuATfmluNrva9NyO70LCNV5RVwhktIEjUzxtQO3yCM8IIPKiggTQrU9mTKI3H/cm4Ey9dT5aqgeeLUFZ5ib2Q53L+FvTCHXQcFOtNxSGqBHUA8RxDKky1JIMz/WK9jvT8499LhAJoAUSQL4LVRY/6EdIlJU7haAcKQ1R5fIUNm+FjJZCamPM6i//d6/jVYWEbazfUtky3IORJ+RRusOLZ54XA+W2B0OoyXulcxNu7SQJ9muJ5mpUTK1Ezr///h88kv3ti/Mz2fWG77Y9D0KQt6cUQHReJsWUmspr6xXSBVpZhoPdNHrv1HkytvKzZoir2yOZIEO8vlH4ajE+dzT3pyZk6gdY7a4BbgDp1UwIWX8Dq63txnbFVsjLEscO9So2cejW87OeNzOQ+0MUq0Wu2vhWjxTzOaqfVHpHyBSAUEpEWQrtlcHHucJYIfFs18FfHz9FPh/18tuXiw+KjskDMp4Cx0ULPrK0QEwL32BOES3QJgSrtK6QiBsolmAWHJNrYv9u8o4GLUnVclMWbvAcHzk0CqRAr439zQmEC7eSK6fNRviRWZF200R9cfaEvj3RwLJPIRLrIXB2l1aV9CuXDhmY8DcRUqKtNs3etMrNJs/3ffMApQfaekhllQhUDk5luR0GAJpDVHFIFcZAsG+l11187RL1AeKH0jDG4wn9zhfmZ4urLU92fbLEUx6G3WRqMkaZ0GSag+RltZt4RzvwUhJA7VufzMyyAPqCefH180fbn461mmtBWUGnMtSVO3Zplm/iW26o+06QUijRn7MyX5FKL0ug5ntoXl0qFmculRn5j++kpBA4EkBdz7XVyapIj/JZbw2ervHSm/nY65ioEVq3UwppJnFh8tPu2gsM7hopr2jLB8152pNY+UWh0f3c0DKyxDw7qpBr872DIex06gEKKqBAXi5qfi4dU2TgYK/Ah6/Y/bJeAAAgAElEQVSdL8MPtnyCG3rjy3MnSw8vedI8E9pKelObvRYhtKGHjslnKtBKKQco6b0zzXnHGwL8EF/EAughwn0EHy0OvTHTXfS9Gi1gmcohmjXjpqZwCpXQA9aWvbQpQNb9b2J/S1GxnjMzYHUx77gz1KkqgUyLqPkLLYxGaVjvkixzgGyFsLIwgim2oJDkEcT+Meg0Ni8f76RLe660x37x5h/XgR8V37x8obhSU0jGAsTdyFSj82XDbJ5VWHqAynWYPECDAohCGozQGRBvNsTBWo3uXDzvGhEt4RYO8iQFpuoAla2MI+yhev2La71Pzr5Bm+GRE0EvnSYBVMOKL5GaxM0BSTDoGSwtrlI4JlnWzLGswFi9hqjdMTHQoYmLtqLJOHvu6BlE4nt4SxAl79K+IE56qEl37TnlFu9+d3bqEdy3/BUjROCF+VmbjF4JIEoCMpFE5I0vBZCpmkn3gt2oWgHUvf3ZKSOAWJB/fr44h18/lq/UQkSuZytTmqXEbqpNjzKzclOi/WAT1LIgkBGcFA6m4HkekixBMNZAcuM6xpTbXXvVVIN7rNf+r144pa83fbQp90xbT4up5DnoYalmlkt/V3DJdJjlJhSO1vE8zYwx0e4T7Ivv7MW39fWbxixx3H4l2coTVO4w7PPCPNdt6PQdUSlGXEjTGpXyhOFT8YYeEHrGINfqpTgQq+UPpy8+9OIIL88dTxcaNW+NGocLrwyBIwFE6QbS5PuZ3Cv6qTOMkQDqZCyAdsEzYOuzdxec/Kifwrde+UcrVw89Nd5uNU3CYr0eohe1ISgiwFSTtOFktMm0zSspBtUxZRnN4mEWljJMoLLuV2v+QE6NXfxsciktWsqIn8rVQvF2NiTKiqt1AUSVZgJHIhIZclCZSzofhX2Z0/1617v2b0+ceJE+5Zfmzucf+Rl6LY+WWiOumqJuBFBMT7EqYoEebKUAspah8jrKiWCFWSneBuOGy78PVh6zv6KFScD3QuRpAlUk8Jo+VBqjpgo0u1F8/dhlqg43UjlB5AG6OdkwAkiZxE27Wehvw/qrBlXsS+AHNRRRApI6Y16IeGU1mggbNSdTcPK8MFV7KMzCxGQaAWsjuK0gqh7BD1qL7vX3e4zyHZvFKmp8UML1ZwmdgtbCFDGqeX4nWOss/bsLr78w6usKX//OEnhxzgogygEyFnfyONIyV+RwdWHK4+aSTMZ0Q5A1XpqI5f3t7tLN47O0gWMBdOeQyOe+f3T1li+byqkhlZ4t1mKqmdm1yqcilKUAImNfatJgqrWs6mtGhdFyFFkMxwtNCG9YDzEuHejrN67cnHn9yOPMfl0AeUYAmYN6APbLcZZRgxRWHqcIwgAyK+BkOSbqTXRvL8UNNwhdrQqvgKCuGVYMCVNOiR6etH7TRw4MT/XvKjBjcOSqTCGz/Hc8GS3Wg70JhbnfFcpevakvtgYiTwZD5uh+ystiA07gouh1EdYDeGR8S1KMZ/nND1+bo3D2hyZmX5o/mX7WrHltEkDwTAEgCh+kSAiz73LofqZwckKSGQ/Q02tp793pea48u7NL7aY/7UGbjk1/IL/hERE4gvCbvzUdfewH6AaB8VZTIJeim86hCkNUashWF6oEEAmGguLN+7HSdK5VGcpqfSh/3lcADXiAyryQ0mNt+y2UiZbmu3MF7QvkpuOpQistMHErWvh09vWqv4XzyxfO51fqGsuUc+J60Bl18HZNcropjV2FsNHiS5dlC9iZwwimwaMf7rZ+HetJk+vvtQurhBS2S7ND7ndHIzFu9ALCF6hnOfZ18+RwT63+yezFkSlH+9UzJ/StSQqBs30NqgenrdtbPdfsT8cli2EKpyjQlC7qUZZd+5ezDcrtumvzwJu4R7Q08NfsLgIvzc3oq83AJqObfB9l9uIkgKiUL63TERWtMaaBUgBpYG+7u3TrGAugu0fzm2eOrn426Y9RkRZH2fyW3FSrXA/X9akSlwlQcI0HKDG5VnbNp218kFuDXeorFCozVc+QZyYnKM9itIIAh6JU/fzoORtC8RgenxNApgF6lYtZhiKnCWrjLUSrbYSOBxWnGHM9OO1ufON/+z/H8c471AjwbiPVTq3l4suXTnXbPtWklVkuMZHS3qXqnVPuU6zZjA5bAtt4Vco9AO11VF7AdYTZLwhHmD0QRA4qSVArcoxFWfx0osM/OX3hoex3X5w/lXzaCv2ub6o49UNcjYeXjr4Aor1Kjkaa4Zl23HvvFAugYd9WD2VCDPuiRuD73afnTmSrE01EgqyHdjGvJMGdLuqqYooVCncIhv5e9ouNI4Nlpc37+zNmvaoX5RXZspoKOa0B9Boycpr8IhuKRg8ZWoyOxMC7x84bW115ws43L53PPw4LUCdv4yQoH1JyIP54sBLcHeNb5i9tdMyrEMDq9ZIawNB1mc6uNmyCDFq2watCQ2vsaeerH504+0SURt0IJxJAN6caWKW4+KpykLHAEZdy3AcTXwXNqhyNrMD+qMAvjplNw0OzuG3kGvg1TGC3EBgUQILKYJskaSuAPNOlgNoRlDG8grLoqDw7sL/TWb5+4gw3ab5zIMWRt86qqzKHatRMmwcy8Gn4JpVfGQsZreO2WqhKHRMJIUIXGVnpsi7gB3BjBzrVED6FhBlLnVmy7MbaliPf382L60fPbCfJZahT0OYABaDkfNMDyMwsqkM20BuJDJ1UyIZCmI3nMUczVzjQLbIPTp6hRp2Pah0Xv3LuRLoa+r1VR4wlPjUOtWXju2kGFXoQ1Euwm5qIgzRPbf4mPbO1GXlbvdbYEcqCCZo8gQpjucDUaqTen517KGL2xflT8aetMOgS5wEDB0rPFOU09z1AukAjYwE01Btj4MtZAO2Wkdj4eTjfnj+Xvhto2W5QtcfhHpSDQw8Nirmmymy2rCt5xynelc5NInCpMliGsXYPX48E/nj2/OC8c75BAqhWoBt4EORkN8mCNgHTLUtJmqINRrBVOSnlz7uam26WBp2/WeFLF5ZDz89S6Nky4QUmU4UvxXLphydP0WbkiT+eP3tCL06SAKJLdUsvor1s00B9MLjBJNfSUzQ1C/vTnQI/P2EeNI/qwfnEjwdf4ONN4MX5GX2t6Zuy8gJeXwCRJ8hs1EsjlvGwGgEkQO0DDrZ7K1dPnqGctJ2yuD/eIAF86/uzVz6WeKYT+MZTQBYrMrRJZQvBFaUAIgscJdcH3hhUrpFQcaBAAA3HNm9OXdS8uim0o6lppaB2C2TIsV5uegZNRkV3+bszj20u0BcKoH5z8zJ03VTy1LZXqlJoZbl6up3m706bPjWPeh0Xv3Lp3JUFnR/uukIUJB6CAFERw2mNQ8Y5sl4C2WxCKepdVJisZDJWmvGvKn6X+w8yeDrdGM969dVf/NFr+/EOVTva2eOFC6eihUYYtskDVAogisgxnig66BrI0EHh5CyAdhb+Nj+NBdA2AT7it4tvXzyTfCYKbzkIoJoNJPkj7/vVv+Sqn4LdGFcVd+zjmqrLmd+TK8iVkL0IR7QTffS92btLPw5VAFUXQ56f9Qp4VmjRwkrhXRPSQasT55+eOP9I+ws84rnV/7odEECDHr5hXQZ/LxPYFQTuJ4Ao8ZzyBaxnnqpgVc1SWQDda/AOzXx3ubdvcmKVTDOtFvKMevgAjgk9GBRAZZJ8N4HTHEO90Mh1jkjQ85I8P03ohDbPFDanoWRZkKLqE6clWonCvnbvygenLzy3KybSJk9iGwJIP91Os3enz5MHaCji+xvHj95MDk7Vbzh52nHFpCaPUJSaaomu9E27hYxKdJtKdcp4ekyxCzsNTJUnikqRwkXdcZAuL+E3Dh7Gv/mH//2OG+dYAG1yYu6il7MA2kWD8aBT+Y3TR5d/4emJeGIcuRMiTjNIqn4yxFGsqrBVZanJE9SvNkMPJN+BrzX8bhed754l+8zdBQXkNy6dL4blAaqY24TZsjreQDKtJ4BAF3CjGPtytfjBsfMHh2AVe9DU2NG/swDaUZz8YSNO4AsFUNknxC6YlJuiTQls0ztLCRxc665eO3l2clib0N02bL966pXPrjb8w8X+vehogSiiql9lhBrl9PTLJVfFfQCP8lnSAn6UQ7gCawHZtshVQFe3nnyPSgDRr2mTrSRquUI9jfFslN784elLj10O6DYEEEoBRAa/oQiggbkn/ta/+iP1s6tX4Iw10esmCMI6km6KsNlAnMXmpRQpYjxAJIBIEGdWAKVU1MEVcB2N8V6CZ291r//w8ps72uPvhQuneguNsMYeoN22Yjz4fIa4dX7wyfEr7iDgvvzGTHYlFOi4PqTwTbiY8bAM8yjDoWzuzPph4nHNEymDr4C93RTXjt8R+la9eHcKIFOWlhZTqnSWmQjzg14A/8btax/Ovv70LngwPLRR3wEBxOvKQxsd/uDHjcADBRC50imUmJol0ioqHORaYH+7t3bz+BnKPRz2JnRXIP+VS7PR1UCEi5Rz2mghowISVaPmfqRWlaNoN8V+kiLQEqESeeLAXaJm260asBZBhqEpYGofXGW4Ev3TVDSlDbRCKHI81e7l7x2/UPkWdgWLjZzENgUQhcBRYc/dMPfkC5dO/OKGjyPdegBdq6PoJDY4j8LOyrLndKImpZdyf3JpolCk6yEVBbK8iwnfx56FJfWLM9/f0Vygr1041b3WCOubFEDRe6fmuRHqRibyQ3wNb1QeItwd/Gj5G2+fLd5HgmUqoTo+CcQK0g+hyA28zTyYbZ1nGexEuTNUR6Cq3W+eI5SjKDWacYYvRRo/PTF7r9CoXSGAbM+IgRyX8sEqqTJOtwOv7iO7dQv7gwBfKfyVPzt6miyzT+TBAuiJHFa+qCERuF8I3HofICqKMCCAAOxb664tHj/HAqgct2cvntBrtRBJPUQUp3BqDRRZWRbUeHCs98bmiSpbxTNT+OSf/csA77yjDl483etOjXldCnmLI/hhiJRKQN9tuas6b1NlUBXROEQ3TprG2I/VsU0BVLw7fb70p+yKyxbPX3z1s8Wx8KnVOAJqLQi/Bp2XBQ8Gm7UaAUQdjagLiIIOPSiqQpul2NeJ2ouvztM9tWO5TS9cONVZaIQNFkC7Yp5s6iRYAG0K19Be7O39/vF0bbwOLQNkhQbcAIgik2C3g/fy5i+wFF9VxTfd7wNkwxCoX8/etMDhhfbaX1x+Y/weXyC+cem8GnYIXL95aiWCTFlVWkEVRBBAx234tQB+kpgmqddPv/HE1vBnAbT524DfwQS+iMCL8zPqWtMX9yqCYN5jPEBkx2IBdJ9Z5Dz1j+fyFWjElLRvSl47cAthqrYVbmkIpCz4sjLoRJzjueVu8ZfnLppuzL/05sXiwzxBzxOoNetIshTK9GapeghVRXaoBCj9W4M6AUx1e8vXv/v4VePbpgBS706f31FPyQ6sEOLIxWOfJnvGD3c1OfESSL9Wlva2eoZSkU3lWu1aAyw9xD1q1J0AOkeIAs90i/YHttHtjhwsgHYE41A+hAXQULBv6kudly6civ+m5bixRz0kqJeEB5i+ERogC5bpijykY0AA0RlUZZLJo+LqHIFWmGz3bn5y8gtjqHenAKp6SpgytTZcHEkMV0rsTRUOLSdrPz4zfy9BN6SB2LmvZQG0cyz5k5jAAwWQKfdPAqgAlf43VeG0xP61bvvm8XO0xuyGMKShDuSXLp5cWgy9ycyjkCYHmppnFgouCR5RIC8FkDRlwGwkwt4oyW99b5YS+WkVF98+O9O92qjVVkMX1J05yiI4LlWTqyp02R5BZRdxa1hMI+zRAr82sRf/+r/7rcdqv/QECiBzm3zl/PGFxUZwIG3UkOVl1IYRrDQf7DS1DdtpPEnc0v/IU0h/JC9Qsrr4vfkdy61jATTUpWFbX/5Y3dDbutLH883ipfmTizfq3p6lmgtQXXxy7WqBgkoqkvhQJvJ1eFdHpShd17RR0BSeV7OeKb8eQnYi7M90ceXoGbLAfdFJDlcAlTlMpmKMtkUQTFGJqtx2liOYGEfSWzOiU3Z7mJIuvLVetDB94YmM4WUBNLzbib/5ySPw4vxMca3py3uWwdaOab5Ji48pw1yGEdPGbX+717t5/NwT62ne6Ej/+vzpq594+imT/+H66GXUA8YDHAdINBxTRS+D61FLBmkS36mowYFU48Z37gi7Fi9dvHD7ZsOZvK26EGEAP9cohERumj5LIBOmrLYt6kMGxgx1KIzFSff6q3Otx0mMblMAUQjcbu2BJA/94Hy6IDJHOnX7vO4LIIo6kSiqxrj0QKd/U8ERj/ZKKcaiVH3jZtH707kLNJ7bPrYogOL3Ts1TWOXIGze2PQDb+AAWQNuA97Df+uvz051PQ9FYCn2k5PER0lQ3IQGU953TQxZA9MTOMgRBAzn1AqJmcq6EXl3GXr+Gp271Vn86e/F+TUSHK4DKrKR1y5EdVXqQmp/SQU7aLUsgwxq8JIGb5xhv1CAWbty+OvvG3oc9Dx7157MAetTE+fueZAJfKICoQ4CWRgBROy1lmnGWRwEcbMfp9RPnhlaKeLeMyQtvzEa3PTdcMdnuPuC7KKRjitNQR1lfSqRJ14gVN6wjpzDlVh2Ti8v49NiFu/NO5aE/vBStNRy/myWokQdBSKSBDakjC5hxFpimqBp+6CHttTHmuZi4tdb9aOYSCdLH4timAKIiCLu28MOB109lt6aark6t+jGCtWyAS+Npeu6QKqLISOFCkwCiktkyQSPO1Au38+LHZ+ZNaOR2DxZA2yU4vPezABoe+wd9s3z2zenstufJLoW+SRvbLAtqk2fNBsp0sB6i98coBAHXdZG3u5CeZx/iUiOsBagv3MqWTnz/Qd2khyuAyjtAUkPCgREhAaQhUZCHjdZN1zUdpwOlkRcpYhXjgOvFN37nNHmBhjwID5pKm/v7Dggg7gN0J/Jqajnfevv84kqvU88EhOeHQigb/0RhOGSsLKTSlNZg+gBraB9aUf+LsBDYFzbXfnh0+vCdJas2N7aP2auJjfjWuZM3nGYz+PjWjbA5NSWJU6403ZNCKWpiX4jAkdrTAp2lJXV4795cd3vLfzU9R/1bSlP+8K78fgKIuv7Y8ScvkBVAlMfg5A4OdOP4sxOztOEecqnP4bEjHP7sd4pg/wEk0kFRFJCejwxZuerSjVMYZ5AXuIi1hkgTTKQF9t1aW3l/7u3PFas5/OZ5fU3m0GFgSl1TD6bEowgL6l5J3gJlPEMkghJqwOn7UEmCg7ksFl6dvV80w1BB3f3l2xRA1AdoRwTCw4By6PIJfb0VQIC2F2QUtvnGyjRML715VFkxIweQi4KUEAkgJGglBZ5ZzbvvzJzfETHLAuhhjPCj+UwWQI+G86a/5dnp31lZPTQ53hU+crJ2mZ4F5J6vitZoe8MPewTTFPB9U76VLJlBPUB0exEN38Gh1ST9cPp16iVwv2O4Aqg6MxKSVFuiDIWj+GFbytuBdBz4SiDudhHQtYYSvbSDUAFHeqr93rEnK06fBdCmb9fBN5hN+985d3I1cR3VEbnXc4QbS3juWEtdX12RwXgTOW2vSOXktgcM3cemdzD9rzJqGO0t4WsYAVSsdPB0ayrPV7su9dZqFMXyD8+c27cbNvnbIrb+ZmPO/fbZmcWeRL3nCC92ZJb4btAtMohGiIzyY9IYqNep1boNVSVmUQIv8M39m3e7aDoevCzvtRy3Ft9exlMTk0WyvJaOeUH7/zs3RyKyMlrQAFQ2pR26jDs/ZkMCyHg3yPVAYc0STu5iKo47i2//zwdw7Ro1O3mYoTLV9T/M79gKW/HcpRM3skMH9t1q95BmdnPr1agQUGKS2x3PR9GL4DkeMuoJ40vT9HTy5vLVq7NvPnMvbk/PH9O36jWIVhMqjo2hK6ViQsYWYQWQS/lY1NPOd6G0hso19goHEzeXP/75mQtf2srFPOr3vHDhpFpoBqLteaYogF1NbKilOcwzT0JSUQkSfA5dukIry6s+QLtWAH3jrbMrH3lqPJE1UOkQSV5UmdvWG6Ypu83/IWsJNUPNyTBLAkgnGEsKHOzk0funzu9IZT8WQI96Zu/c9w17+7xzV/JkfZL48h+eVh975JUIUQhavEgESVhPxe4QPxT9Jkn6OBJZmgAuxVBHGHM8Knyw+MnxCxtpGjpcAVRWDDKLJgkgKudNmyhJccSE3DV5VoHxvGmkUFC0UfEEAgU0Vrt4Osbtn87MPTGhcCyANryYyBfePn19uUjDsFH319odVWs2ZJoVaZ7nLQrFoA0UaRzy8BQ0gyTNInLvlFtwSfaBgWXYbEFpS0aHgiLrtqS+JHZeQlP3evt6jzytrm6rJAoRpWLc8bKxAulfnLw49Zh4JcUvXTx748PuanNiahJRlrracVPpuw3yheTQSAqFsNUyxpU4ySBdBwVtdij7mRLhyWqfZYDn2UaYRYEw8Exv0bjTNj/3TU6gvbyMmudDU9hUVsQScIXQRaoKHYS+SJNu/K2nnx3/43/wuzvuvXxQCByNdyEKaOojYDanlODvwisyTKZreZjnrqM846kwzR6lQk5rEFm4td3cSg1NIvo+P43IrnKMpKY2ckooqaT0qF8KisattfYHs2/R3NkVQug3zrz66fshnl6rN0z1Uy8IUWQ5iiKDVglQrwG9CPBCK4TzBKLmYqLTy5e/N0c31j098//FP/8f9Y+WV7Coc7i+Y/JFtKbohbKHkLn/jInChMUVNO/8EDUFjGVJ8suNieD//ke/u+v3TtsUQOm70+d3c/ilPPTW6d6KWw8Sx5hfoUVu+wCVRgSaE15mw+Ey41almyfBWGoEUPz+qfO1Da/093nhFvsAJe+dmqfv3xX32k5weBw/Y9ffxI8j1B04Z2fq8iv50kQTUtEDzoci84wxbtCiXFpxSgvODnzflj7Clo62WzUqEFBksanK3exE3dWjc1RmciOhYcPtA2QEUGk10spsMmnTRALIblJtk0KpBUI/QFKkKPIECFyg20HdC7Gvl9/65LUzZIl/Ig4WQA8exv/szNEPPwlEc6FVPxClMcTkpLGeIsmMJTmsNxBTmXrasZokXMpuV5BuAGU8FxqCNl6DLlybC9+XQ5SDQNbZQuemMpgxNNAG3jzkyWVEtxf1t0jgN8fgxCncXg+tuIiO+A3vT18z4Tq79QHrvHz2xM2rY7WpVU+i0WggyTPkcQwnrKOg66Tr833j3TELiyn4Ani+D11omztj6pUISClQkBGGuJAoov5ojdD+pN91O0YkuUFov8P1oBwB7ZHRJiGvQlpfa3f3XF9tf3T+BxQ6t2PHg4og0BcVJlaHFh8SxySAAkBncGUPDo2/ok0+bdYpzMeu/7RNtwLIuA3Lod74T01VsSjsjsSE1GpfT3UWv7N7Klu+NHe0fXvPePMmjTslvTouPMeB60pEeWyabAc0b9a6CMJxc1tknSUczorex8dMk8kvOsThC2eWuhOtiY5OrPcVnml+akQPtRc3fYVslVUvbKHIqHdQjEAUvWdj1f3g2Jn9OzZBHtIHPeECCM+/PtNZCBoNkyJAK0HVC4rGkLyo9D+KJ3YcFkAPaY497h/LAmg3juARhF8+fi76KIkgvRYUWQSNf5qajVKsq4YabPw2zGvINTwvQN6LjAUzaLjYE6W49runNzq3hiuASlu71WoDoQHm92ViLG1KUipzR4ushO85IKtpnMSmElF9uaO/0VE3//zcPHm8HvuDBdCDh/BXZ77zwfVW7ZnVeivoSNqE2mIgtMGmjXmRpkaweJ6PnDbz0pY3LowBw/5b5zkc8mKURxm4sR6iQo/1PLdFRejzK9Gkyfqv4Tk+VC7gej6SXhuiFkCKwhTqOCg91JbWrr87c/mpXSaCxC9dOt1e8eFGoR/0hI8ueXDMvSVs8jL9m36SZdeR0GTlp40vsYztPRcEHpJuz7y23mggjmMjLL1aaEUisa03UUSR6eNVheiSSLXsCyjqp2YEB7mbEoxlxcoLqVD/4eTZPQ+eARt/xf0EUP96aUxNIjftxl1IZR0Yyuna3+c1CKqUYA77DKDf0w97VN6Lzf0kfW4+3yv0gU6xeuM7Z3dNg+evvHkiW/A8N/FqEE6AnLx+FHLtCLgBzRUKh0yNMEQqUVcC+z0n+fj3XiPxc9+8qa+eP3fjRsvfH7sKKc01CjNXEkFGfrYCiUfeBBJeBRA0gC55gQI0Ag9jN28tXz12jjxlu/p44cLJYqEZyC2GwO12DxC+cv5YtNgaD9d8r7Qc0TPaaHlTyY8ELalbXXmATMvEzOQAHW7n8XvsAdrV8/dRnNxGN6mP4lz4OywB95tnXlteGPea1PU6NXYtsn7ah19fADkUJEKWju1XqjSNw6pHa/VArDw7g6NSzZaB1wvpQccpxmp1ZFEHSic4lOTxx8cubNS9LF++fL64EhboBh60eciXmyAIE9NPD2hjpTPhIaXHqXrsm3OpcqFsqJD5TVXcoPzvaqNgwtqqox/5T++z4sckUVZH5R0a+E6HQiKyxFQgko0QKkkx5ddwcGEZ78zOPxH30+YEUAlUpGhlBZ7qZvj5ibkngsMDFiQqUrK6KMNmUW8hTVP45FVQCnmaIQg9k7BNm+2syE2hENrbZrSJk+SMoJyFzHh47uUo7cfp08OciouQSKDEf4/uERsC5jo+XO0jyQpoqmJFieGeAHpd1JTEeK7Q6sW3Pjh9mYT5bkik9156/cztRUe12p4wlS2pOFMQ1JEkCfwwQJqTl8yx10unTAybDSuCjKVXAmQYqtXMvUfqxfd9pFFkktXpKLIMXr2GrNu9QwRp2iyb/jEFBBU1obWVqlFQPJgH1DudtSPLkf7J+cv3q1q56efUF/YBojWHQmzJE0MtBEzIFeUpULGbwK5hTmSXvJw8QtVabzfpG3Ow3/90yYNPG30tEkyudrvLr13eLaWe5dQbx5I4bLk9Eie0FjseHKoMQvlgsjChcAQn8BuQGRB2Yn+BHskAACAASURBVDzVi4qfnZnbyENRPHvx3MLthjzQJS+gCXUWCHJtngWRRyGW1uAFMnB0yLhRQ95r42DhrF1/ZZqE4kYiHDY9X3bqDdsUQMm70yZEbLd6kPEbF08nHwS+vxQGpQCyPRGrPGl65lM1GfK05+ZeoqvJ0KAiCCyAdmqaPdafMwoblcdpgMQ3z83mC3VHFmMhlpMeENJaTvHNZBUU65XfjBigG34ja/0XIzBufxN2QyEVQGFiwMrkYmNNsQna5kHQT85WtlSolqaEKJIUzUYdTreDPSi6H3337EbD3+jErAAKNDo1sqSb+B672aOiD2VOBBV8IGvloECxXZ/tM8iWBSeXt92QUy8AOuja6JJIONJ1JB69aYDHHYpoC1NFazQLhT2dCJ88IRv/zQogSSVjodBKMxzqFXj35LmRWFe+dOlYfLPeDLqUZEyz7y6xbWeTtOFrJISyGNL1oSmPx3NRUHgWeSpqNRM+Z/JTSNxoDVd6pvhGQaXlSRQ4jhFLeZQgbDZNrksax3CdAFoqW0WsvD9pvvsUbkdT3QEaSmeN5bVbv5g13qBhHOLb/+J/Uu8s3oTnUiEDbYoZJDozPVzMfW3jUAf+V0Z1kces8pJRkrsXmNA4Qfk8SQKoHE4QGh7k1TGGDq3hkPeIeKnChMgZMUXioijg1+tI6b2JQl35xsvUdWNMqKL99Rtx9CfnLx7YSUhfLIBMnf3yq2i3RgNW7qlNRYzBghjlOm/urHKjR4afuwxCmztvayU3Ylsm2N/pJTdfubwrNr2H5169vbpnfCpWlMBOVVDLkGTylFFFr0rPk6csKxDWXUyudXoLr5ylxrED9cTvS8TZ+/p03J5quUmUmqaoleWs0KSoqPVE6QXKFEISQHmKRifH8z23+6PZUztSRWxzY7bxV29TAO16DxAtFgfePLu2WKs1aBGx+5SqLYj1BlmvuWt7xZs5VKCeZlTkIX7/pMnB2fbBOUDbRji0DxiJjcrQ6G7+i8Vzl+bUFU/BrXnITGiCzUGhGrkU02r260ag0KOPHoDbFEDKJhAaa0lVRaWsiGZzXwYF0MDDlzYhVCraDc3mDkkPe7IsP7TaE3955vXNnNSdAsgmOACFFUDGIUUhMZUXqDLvGFFD4sYKm9x8Y1n5hdItjGXd7hXIi0QbQkpE7wsgWhGJ6708XRscN5NQnGaYqoUQS8vF7RMXaCe8ay1mG7wsbEUAkRAlAXQwGh0B9LX5V3vXWs1am0IwzDyyHkorytdVNm3O6X51Qhsep9IUMghMaV2T70KeCZXDDUP4jmu8IUYcUZhbECCj8EshzKaexBCF2tEmng7yMtkSyutVDEkA0X1L+b855Zbkualgta/d+/jdU4+8gpV4+QcXb3wo8n0p3ZOFBHlRbd8bMraQFZ/OvfL8kkfE7PxLASBMY2XiRaXoTU8uusUoNInuf99HQZ6gPIdXq8F3HeONI+8afQSFGJKItGF19LHUPDMCghp84cDrkQDT6NVzTGXZ1aXfnn12py37XyiAjHe7nCflGmfD4AZWEbMGl0uZWQzX12D72zs94hu9x/vvJe4mFyjBgU4vu/HKZYq9G/YaJve/fbp903PqjqihMAKourJSANE5awFH1E14Y6q6eKrdy6+9ZtbgDR9HXp/WVwLHzJ0kThHUWkjiGF4YIsvI60jlMiSQZsbQR8+lcRngYOzh58de2/GCGRs+8Q28cAQEEA69Mdu7Ua/VKDyUcuJsGWzaL1BoZBk2TPOHNk4UTosC9YwEUBK/f3LDUSr3pf3ChVO9hUZonwP0XUqZegtKlTrccal2TRneW6CRZXimHXMRhA3M4Yf9EhZAD5vw5j7fPfzGhWxtqoF2ewWiQSUe6UaWkKYBaimAyO5HD3USBTsggGjBMAKIqqj0BRaJA7uRqsr09h++1fcbcUTluQsg7eGZwln89JUzZD3dzANUfOPyWfUJeYBCz5S0NE87eibDCiD6OOOhEsoKwLJmgfFqK7u2FZUAqora9jcWpQgqSk9RKaAqHWUWzS3eBbQxceFC5glqusDESvvTv5n9Pm2gHutjUwKozD2gRO1WWuBANDIhcOJvvT4dfRgEgYlBv2cORjkNigL1sTFEUQTd6wKNhk3Op/At6SFNctPDhOax6raBmmdDvKiIAs1bn6qaaQTGkqmQJakJqTMd702PsHVviU+RO2aqS9NXyDRQhkJI49Pp4dlUrfzo1MVHlufxn//vf6T/dOkalBuiF2fwpA9BIoVi33y6YApjM7Gn62vNQFW8Ri1Ed2kVk/Um1jqrQD1AoQuEfmjCAMkrFqWJLYxAhhDiG4bw6g1khl8BQcIzL0zyPFX6UiSAKOSJEtzhGgGUuwkayyvL3WNv7HhuxxcLIDJiOXa/ZtZfZT3wlbAxVSnvFEA0puu93z4fEry5hYfWeBJA9DkJDna7+fWjF4deOONb89O3P50IppZIwFKRB/NMGOh9Z/JfSwNWRs1LUyAocDhX2dXfO7ep0s0vXZ5Z+9BBC80aZBgiWe7CrVG+FZCRF4ies67NN6I8ULoHqXlqurCS9eYvP6jH3eaGY4df/cKFk/lCM3Ce1BwgwnXwjdnkeqPmk3HY7BLM/UGbAFpXyEJJQ0cCRBpPb4G+AInLKmzbps4CaNsIh/YBW9z6De18n+gv/pUzM90r42H9Nu3OaXNAi69vG4SYevbKbmpo8d8xAVR6QO7oDWAssnZDUlV5s2Eq5VF+vxEOSiEMfTSjDC85If7f33pls3NKfPPSWVWFwBV3CSDzjUaglY3OSmFjK9DZ87HlqssQvUp6VR4g8wJbPc8U9Sk3GNU+Y7sCyKPkAZWjyLuYohCSU2/QQ/GxPrYigKhsbNN4gHK8f/zJyIV6wCCKl079fnZ97z5nNbB7rjsSAqq7gLyjZagbQn89yZ8aCGsHKrWbeArVoqnvNALrEYo6QL0BZJT07QC9GILyf4rCeoWyDMKrQjsqAQS41O6Cbl/a6FM6ieuhSKmIgEBTK4TLq+rW9Bu0q3wU+QtybP57y2tTY2MuAhQmjKgOqpqHwDMlaW3yuT1nWmtyClfrryDW00Nbm3ouzEt7xu1LFg8FobT1PjsSaWH7fLj1GnJi1out0CS+VCyCCiZQqCKFBoYBFIUb0n/3IjgNH0XWw6Fuli4cnX9Q37JN39v3F0DChunSXs00w60avVkDFAkg+htt7oyhp5+wSc+A9VzHTZ9UJbJA3ksFKSIcWovTq8fmhl36WBx641RvOfDCWJI89M28qK61bwSrethoaYRtpnv6cCfqfvbKRcph2swhn/onF+NrcduTe6ageimEknClY8MnCT4VsA8DaKr2mCrUhYvJxjj8z25GH50+RwUXNmPw28y5beu1IyCAxP63ZuObtZpvDLUUBlcJIJ2adcM4fkkA5VYA5cIKoGfX4ujd6fmd6gPEHqBtzdThvXmzm9XhnemT/83Oc+dPJbeaNSdphsgpjJmst1Ry2TTGs2LEbhAoPMxawbbrAeqHgN3RHI1g24dOJYCEKRdk4/WpFGs/VMPV8OMczy6nH304Pf/8Fh4Gpg/Qp6UHyIQ70JeYkJByelI5YFPYoOzyfPdu0yx65XvKFJ++oCvnjd0Uls0mjXDb/oQyD+Uog98IkYoEB4vi9vXfnqVy2LvygbjRK96aAMrQyHIciFJ8eOziSKwrvz59dOHKxMTBFT+wc4umYDVlqVKjledmbgZBgCTuWWu/EMa749TrKIyVsjDWZ0U5LhS6VavZfF2l4AppPD4kkjR5MEzclwCoGhqFwaVmd2yPKnS1yqWhl+bChtOFlEOkECqFieXu7WsnL1IZ3x24C754Vv3qmZM3F56b2neNvFrwUas1EXW7VvzQ+kXCzgg2AZ/qAJAfojL4G5cI3cy0DmnoKDYs3EaAqL0G+LZxJRUyKCp+JBwpMT6kPTwJK8qlcpBHmXmvqf5mmuEI5Elsi5iQdb+7ZiKdjnTV6gevze1oAQSic/8iCDRp1svv9xvikqHHRDbaHE0K3x2MdjM9U0uvUTXnNnp/V6+z+UNWC/sqwcFOL75yfI42hUNbv7781unOFV83/NoYep0eXNfq0cqxX63jpnIbPQqJSxIh1Kn6jyb3y3/z3/7+pteer7x5PvukLlzaHCP3DHMKq3PK6mJxTCXUyVMmjQeIipxQE+Pxbk+tHJ8j68duKDDyueHfpgDa9UUQ6I6Yenu2s1QLarYYVGU8sfsjEzVCecTGA2TbCFAIbStL8cxaEr0zs2ONUFkAbXbx2SWv3/RisUvO+4k7jV+fP7l2JfRaK66HJAhsBZq4a62U2ib3Dwog2jnsRA5QXwBVybdkDTSPvyro2j6AaZNiHsRSIzfmWnqJNTdPxmpl+X84Q6Vjt7KhEi9fPquu+lQEgeL1aWNTVoGrBJDxSFWbvPJnP3enyhWwT0mHrML32BjY3+20AJLwhItCUGPCGO5aF99czjo/nnuDikAMbROx3ZtjawIoRyNLcCDKR0YA0S778OtzvaUw8JWgZpaWfFWwg24HSWKHKpxJB0Ip1B3PbL7rXkDenI7vO3p1dUU26nWjlLIkkYHvF5kqiizPJ1N6v+siHGtiOY6gTcibsBsy6rBKt2CpgUz8ez9ZnMLLqLqxg5ofYC3r2ltaK+zRDvZd73703rnzX9nuXLnP++Xzb52L/kZnfhH6cPwGCio8QJtKKgYR1kz+HIVgkZeDapOQYSWlnEfjnrV5jpRz4QsJScUfaIuTFXnNdzPHcXWc9IrQr6m1tTU06i3a61D+lPDCQOSFzrNCT5FFmKpdN8daaEexGSPhuKYIRUweKI8qTRZoRfHa8nfmKfxtxzezL87P6GtNH2s+bas92y/KRHWViYz0zzvGsfRokwAqhU6/wz2tjRSVRV7t0gNEosnkY5qy2Bv/aear6S9XwC/S4lA7Tj45MUeJ/cNau8SeH8wu3g6cPegVGJvYg07U6z9W6HRprpA5LCUjgLEm5CanY2+UfnrltfkthR8/89p30hvPTHhpw4ebStT8GtorbTieZ/LHCJET+ChUZhvw0vh5Hiakg323l65+cOLS0w/xPtryRz/pAug3zx/v/mwsqK/QfolKx1ceIJohDxBAT7eT6N1pFkBbnlxPyBtZAO2Sgfza/DF9tVlDUWshoo0CPfnqIZAmkCYO3CbsVx4gW+iGNgqbqTfw+Ys1RQ6M3im1y4AAMiFuZRNQr9wW9AWQeYBTFacCk1eXcGv2B1udS+Ll16fVVV+hG1KSMyUS3uUBKvcK/Zg3c16lSdTEiK+XEiZrcSWA7p3bY4XdemLxVjSb5WjYUR4GNUV1M7hphi/fjvD+zKWtstgVs3FTAsiUClemWSOFFhyMUrx/fDQ8QLR9PPz62e5iPaiRx9HMN+OVLeuZUTUyKkDQaNzsXV9260r7e9wadLcnmo6f/9nZ87ThvtcENJ/0t0++1otrgejV3XwhSeDumai304SKXcMNqSRvhIBK9JZhoMYwQQnblYeTPjlWcD0POZVur4VAkRtvS5jkyd8+9HTwr//BP3woc/Vrl2aWr4RyAk6AjESf2ezTuVUeLNswVmoKcSqLbZFbgxKYyLBSaLiFQhBnaEH2mspx/HaUvXP2EnloKmb32qj3gw//kxMni7gRZKuOym/rVPl7JhtLUcdUrgzrNXTabQhPopbnOFDI7t8cNZv/HT82JoCoyM2Akcb8By0rdG9pUKqLrYBpPUM0huSVz40BxjZqJhG+qZ+0CBqxmcPNs86hdio/PXZxaALo22dO3HxvMtzTadalmwhT2hyNMkeJogBMZACt35R3anPblO7hAIS68Tunt+yJ+XsX5lZ+0irGV1wSkC40RZ0GofG6Ull7qtpoCpmQ5vI8CN+1IZRphHoW67938Fnxf/39334o99F2JuOTLoC+Ov073ev799TbfgBJHqCqEpwth2A8QOSpk5Q7mQvjQac853qa4tl2Er13igXQdubXk/DeXXfTPglQt3INX3njlL4Sesi1b7qf2wAa6v0hjIXXWPao+4Np3GctX7a24w4JoPKBa3JlTGfyqiQtPXSqBy6QubYLOQkmqTJMZCmeXUs6P5l+Y7Ox1xUm8dL3p9WCSwLIB+UA2TMoGyOWr+pXh6X/LoWZ3QxUGeD0X1b82KMsm/25GV6GlvQHqeohtIVRK8WhWVidzJTaPrDcya69dmE3VFLawgXZt2xYAJXsbfppjlaW4FAvxbsnRkYA4cuXZm7fqvlki29IclZQUKrCstRKeko5427o/uy7MzuxqZRHLs1+mgXBUx1FxUocs07kVAWudNZSfqAyPU2oP5iVCYEMkKy1EU5OmMa9VFbENFV1tJpox7dWjs7uaMnn6nbd99Zs53bNq7kFFRlwkbvC9G8xYb1UHcmsXQ6k8soiJLa3DVlufVWgnudopCob107vp8fPUdGGKgpqM96JciGxxSRfujxTRII6ChWRcL0JJalnalrs8Wu9cHnN/aszb+54AQTi8YUCyIT4VSXe1vNcrHVFwS0K7IkUwjwn71hBTe1NRA+1g7KhcboQrqLfSy21Eop+0vpc/eyXuZZaClq3y5+CXldIRakRhUBeBEWR7unFwV/OvkU5LUM5vjl3qv1hK2xGjmu9gp6LyCFjYFnFzxQAdCApSkB7Zq546GHParf32anXt3PeYu/c0dX2nmaLBKUi9xxVKiTjFol0x4UochtCZcp5lZ5WSU/kJJ+81V66feKth3EfbWscXrhwMltoBu4WiyDs+hC4l96aTj72HT9yrQAig4Apgk03SLkA0l5CUAicCX0lA0yOWhkC9/5wBRAVYRhquOm2JtcT8mYWQLtkII+8fVp/ErjwZA0plXilGHeVmN4/VUhaXwCZX5QeoG30AapyfAb765ARlo6iH0pjp4hHHZU1VUuiFYast4VJej+82rny89NvPbcNjOJL8zOqM1bHKnKkZAT2KQeqzAEwneGrJOkyPaj0ABmhRsnPAFqNJtortxHW6vY88xxuYDeIVX6GeeHdZa+r3KetXAAViRASmhLYqTN5EmOPBp5ZTpZ/MmPCaR7LYzMCyHF8FHGEIHDht9fwXAH89fHzu7o87E4Oyq9emP7wah7XJsJa4KXK12vdlb9+/Q+OlBv2zWzWN3Rav3n2bHvNd+XNrJuoybHJFUcgIwOFEqa5apcKHoSu7ZMTJyYk1N7P65WlbdU4iVqcLEW/O0O5QDsa9vXimRPXb+8bP7BoutSUAqf/pCn7dPR7jdFms2xQqIGpdry6P8e43+4lf3b5jZ3uSdP3Dn1r+ntt7TuFlq5200ztVe7q/zN3icZtx48vFEBlYRbTJ8p44rXpWSRoA5enmOxl8a03/+le3LgRfUFY2nbm193P/q0IzB1l9fyl09mVeuCmroemdpFkGfKmA60j69lMMjgUQphRsruPQGtMFt3k+u+fIfGzrTn88pljV2+2vKeWai6UKZZBHibKR7XxpeuNsisDHP3MIVyBibXu7eXvXnjoOXWbhf2ECyBx4I0T6XLdd1PpwSn+f/beLMaOLLsWWyfmO+RIMjnX0FViV3Wr1YMktywY9p8//eUBMPzsJ8PPht5Tt7oGsshMzslMkkVWV6slPBgSDMMf9ofhL8P+MGwY70mAYOmp1d2vurvYNReLZHLM4U4xRxhrn4ibyWoWmbz35lgZQoFi894bESdOnLPX3muvxUqy9gIqAVDXOJ0z27Q1dTgNYEcxXugk/rXjG1oB2gFATzuh1+DzOwBoDQa1h59U4zOvZ/NjQ3CMOpIkLXr6UphpWdUoJFzLClDp9danj00pctBVRysBEIGHHJI8BYIITtVDFLEvycKIbaN2f3Hx1rELDPT72YiN5y5fSJdchcC1YCgHQRxLICCVFVIPKI7d5bwrrZFQ0N4MZjVNSgMn8DwPURILdYFGkpEfCNdfdHzK2ynHq/v33ilwBFMEQMwMZsxuZzFU6OPZTpp/cvKS9LH3MBc2/CtPA4C44xgcgzzCaJphbyfAr058eQDQBj4s48jF062PXFUxx3YhbwXFuqFgVDxkVFqjCIDQzHQTve4jKV9pA1YU4cUg+fjaa2fZCzSouWoc/OG59u0086zRUYQi910UdHV+Vv7aDU6UBcX3HCGqS61G57UZ9hKWweygrmkDH9NjKkD0C2E7JcUZJGe9DIDsOMREMwhvTM4yS9zHIrWht/40Jzd2X5oKG/UhK2YFKKSZrUJgcl0NRBpezLETBUu5iATAB9i/tBR8dPrNQRhaqhdnT0S3xitWh3tfwPJpVcvQ6xn70L3o/qsMSAKMpMBzd33/57NXBqIq9jSD9rjPbmcAdOT80Tt3R5yJlu2IUa6VkgH5CADEnuCKhzxItKJmzUU1iPDMQqd97dTsQCivPcpg7wCgQU30Pn5nBwD1MXgD/Ko6/OPz2VzFQbIUoTo6ig4FEKy8kIflmT4PgMpG4d6N8LiIU/Gmq+xW+OrwbGmhsiMVkziG5bpaXtZle1IG694iXlbe/Z9PnafqWT+Heu7Hb2Z38hB+GsNy6nI9lPhNAhoWcmEjHaT0B9TXKzQ5lcIwU6RJoEMmk9SIDMr1JCCsD40h6IQaMBUy3iIcwVmvrSX6yxtybFgpY2NsnqFa9xAkPsYfNMP7Jy5tWTnspwJA1OEyKeccYCTPMNEO8N6J85qgv3Os9QiYz/z4YnKdSQmnhkqtCj8IC2msXLyCjCgqaKEU6uB7XUpmG3CTBN7iYvjN6kjjr1+VSlDfx56p793zD0zsjjMTIkQrPkSaxcT+PPZI6YRE0c9Ck9eqC0QtjIYRFl+9uO2qh4+rAK0EQIL6ZLiY8Amxr9Hxb564xCBt279LB06/utg5uGek2UlhOxWpHeZGhtw2kERtuJ4rVf204wOOJxS1iTgP737/OMenQNn9Td/vnHj97nt73T2tigPTpmgH1/Wip65gCpAi3lUiJwHdMlDrJDjcSfCzqbObKp46MjsZzdVdeztS4F5++3z0gRXbqaUpiwRA7BETGrC0CBRKtaz6RDFUZVgoldHCHQyZTvRiK+78VFNr+z52AFDfQ7hhP7CpXtgNG4WNP7F58M+mkznPhqM8cYKnYzH1ALq2EKLuQxBU9ACVJP8+K0BdAFQ0cLMHWQKUEgAVuVhxoacxnJVC+SGeC8z846NnhBDX7/B99dTrWT4+1PKz3FOJSpI8y23HMcMsUYlKWeAxnCwj9133QYkQUuH7k4VwHAcZDREVEFcqaLRbsL06Yj+CZXsa4BUzfaAAiIGdaYsQgmfbCGjUOOxgrNFpLLwqcrpbMoP9NABIKIBs9leAE/rYnwAfvX6a86IvSkq/c+rL8v1vXTyT3x6pYV5liCgAQmNiyp5JHE1HcoOWqF1hkFI+mIGdRUlsI/eH7i76H5+5wspL38dX/uJC+LENxyBX1jCLSbCcyFlWyNOy4eJl5Hcw5JnY1wzw/qvT225PepwPUCmLLgkuoeoQoKYwkhh7m53O3PFL7K3se43t+8Gu7Q8Y+390pn3HtTwntxFH3P0KvyfOBsrDWyZMy0JqsifHRNYKsK8T4/aJ84OcL+rgD081b3lmje8Rmd6G5ejBLzZGM9VVu/KgSEI9ybHbj/HB1PlNBd63MwAanzmetvcOGyHbBXL1hQDIcB1kTFD6hb2AkaC21Fp6sRGb/3jucq99yw+9DTsAaG0Xh7X89UEuHmt5ndv7t1+EO/EvzgZ3Rb3JglUfErChjBQZjQALWWod9BcASJqIS72p3oZnpc9PCRAsGo4yei1k9W1FA8O4oHhFQMXEWG7i0I12653p2YEsIE+4+sfN0ZUAg6GDgWf2Hp54/QcftuihUq2iQ88GSgnL1pSje3+llLf8Qx9Hwo5kG1kQoDI6BN9fwnCU4reX8oW/PX1+S/YBrRoAcdiiTHqtKMpkBD7vPXzwv5wdwk9kcq58Pk8LBp/28497iCvn0CB/t4+JM7CvqpdnTt24NeIcWEojKG8IJvtJ6E9VcRFQcEBp5TeKdPAV4buugVDG9yHdt+Qv3Dg+028lV25o16XjnQdjVe3LQQ+XOC1EXLQ8eElFXdH7DydJMBFEizdeP797OwLnx/oASaZaJN663mdKpVBpjIlmp3X7+KUtLam/mln+2ycn710ft3c3PFKXXVF6sC1PEis59z/LEDnqWHpPM5lTTprhK4nCtddPDxR0HJk+fnt+vLa3rUzEhW+UzNmCMWAmywBI99Vb8NIclXYnufPGOYrfbBqwemR2Mpyru842qwApfA32nj++uHQPgad7pTUAWkmBEyVJPgoCJLcCg6bTIgIT41CO1lfmg/q/PjsYtdYdALSat3xzfmYHAG2C5/KH05N3r9XtPQuOg2p9F9qNRmHuUbjAFwBIl+MLI1R6EQidq78A3pBmz6JszERXrili4ivGJSUE8jhEZaSOKI2QWzlq9xsPmscubUbDT/XS9GR217UQV6poxgkM19XgRw5K6+rm1a6XUSEv3vM0oEqfpQcr9VsaIKY5Jm438OvzV7bk+7VaAMQglgGK63kIgqZwFEedCvL7i9kBs2KQA8g5w/kUa6NuyZ5S1ZCVRz4WBuO9GjnKvGVsUqgU8u+hqSuEorZMSXc/RmbmCKsmlGPAjKLF+r32vZ9c/YsjPT/zzfdF9d3/6c+zd1tLCCwbUZCIGEhACilV4WSMGLhRUpkAiD4qhVpcGuJApBZv/eD0QOggz/z5tH/djD1VHUXeJh3PlHOXcmySWCEMK5BQlscYVyaeudNIfnZuVmt6b7Pj8Uao0gSkG7SkJKZgUt4tYw9Qp3n7+KWRrVpJXuVjVL/1o0vhJ0Zox44BxVWBa7ThIG/7ItZhex5iMaGLNSsiTrDPrqJ2Yy58/8Jbg6YaGwcuHE8btQpCJnbKxnqZt/Sl0utNd0fJTDjsV203cTg3bn1w7Bw9gTZFkqVPABQUPjmb4l6KPIFuFgAAIABJREFU8VbfOnn83tJwbWxpT92YZ5tAAX8/L4LQBUAGAVIGlSq4fLeyCLv98P6nR2eo2jcQsLoDgFb5pm/Cj23JAG0TjmM/l6S+M3si+8A10XA9gDLYNukjlLKNVqy0heSzmIOSUqI5rtI8289TFD8FggKtdsNgRfpluOCLuhR7XFJEeQynSmGBBvbFRnj7tZlBbzz9jGH5XfPwpePJ0nAVvmUjZlDBHp3Cq4YVIIcmKipBxEhcFs9SSru304vsLJ8FVYoMWgKZcNttjC60cP30m/08md4uaADfWi0AkiFMMjiejTbpkaYBI0kwpCxY7Qg5+zs8UzxMIsY1Bo05tdwvjS+1sW7v0QLnPecq2SmVWA91aELOJ2yinDYiNqIswpKtM4KVOImfaSH81eTF7ZZZN567MNm8N1yptpkldyp67idJYZhZmBeXlNlu4iTEvsho3v7+FMej72PvxRP+nTHPg0XPoVLiWcvos+8nLX2KYg2AlWdh5H6jMX/s7JqYkPZ9QwP4gS8GQKWXG4UqGKgxM2CKChwB0N5mpzW3zStAX71w8t6NYW93WxL4OVzTQehz37NQrdaRx7kI26SUn7ZyGFULqtVG/X47XjpzmeIHA6fafvPMyfatUa+6SOl2w9QJwZKLLlO66APi2k9A5HkwVIzhTgdfD434r4+e4d1s+LHdANBv//jM9TtQh+ZJEqUJ9FBVK9IybikqQNrct7AJIb7hA8oNVJ0asnYHVhLiWWW0f/nauYEIIPAh7wCgDZ/qPV/AlgzQer7bzflF9dL5Y9n9XUNYdNjoyWxgqrnxzHiVXBEJXIpSBvfJwuirbwBU/maRDCndxcvMishfSxmZa00IL0vxXICFX2n1t810qG/PHMs+rTuYd0kpYWTsFXKm5WVqNTkxSDMSDRxXjutT3o2mEJInbiKm2hXPG0WoRCn2BxE+Oj6zJd+v1QIg3j/BR5SEQK3KcpCmHNAonTQW00KIwqemFJ0ohMBMKdNk2m+qlETu5c/CGNJNtDFtxEb/buMcd8pUFAXFLkulQBjiSGT7771yhtK5mym7+ZSz7zc//u9Pn/V/NWx6D2qurqoxSKByFqu6K0UdOedZ+eXktVOMLfj+wtHzA1GwOvTmqc6NMa+iKV1csohSM1jsJ+fStgIAEaCmWYxDserceHVyEF5JfY/hWvzAYwEQq5SFDLb2KtEAKMsj7FvyW3MnZrcbUF85xGrfm2cW7o5URsQ+mGanaabXDUq4uxWIyRHnMCv5TLLkEew4wddjK/vZa1NFmm7gT83cc+XswkLdHeIz6dooiHBHUTSQF4pJLxsgOMu0vPKzYYYP3tgc6/4TAZAAOUNofAmTeGzkTDIMxzEOtmL/3ZPnNs0a+R/85RX/3aiZ3s2yGqpU57MBk4t9Rz/8zCrM4rUSnKz1PPinacEJUzhBiN2GEX7yqqz9AwPOPQKg8NrUzKBl/gf+Imz3H9ySAdo2eyjG1y5MpZ8NWyBXlz4HXItKF2pKpGrJ2DU6SrWUrphCCbKKACZNYboW0iyAmyZ4xk+C91/fhAZevwt7/396IpqrKqBe09FWbMBMxDBQ4rHlSlmp5NMfhVDAYhzB9lyheIHu4JYNrxXgxdDAL46fGig/fY1mwG/87GoB0ENfLKts3f+xUE+STYj/lYGDhh2mBBArAFAha65Bftnbtso/BYjppUwLXgjHbtkwV2QFuVkmsFWMQ0vt8OMTs9tx8zEPXD6b3Bp2pBqnq5sMLNk9KCGmrgplBlyWyVgxc2Ls9+No7pUz7F/o+3jmzVOdz0a9isjUCwDSlWUdbhSVUgZdiaHpqHmOPQlw8E6j+feXZ7Yl3etxIggyJlLV1z1AJIHJmp9l2NvwW7dPnN+2AOib587e+HTYOrhY4TuvFTyFLimAnYbbMmHpQieUOL6/oFx6EKa/Mx+1/79poQeuybHvh2fbd+peVcUmMjGsZSBdzGFaMsCCaZJlQLEiri0h0OngGauSXP/+1KboBXoSAJIEVmogijOgVtFgIUoxDpVPPGh2rp05xx7fzZAkUi+9df6T22b+zCIv2vEKc1MmiNnjyKWFZX8DZmZCdZVtOa3kYcHyfYz6IZ6Jlf+P2oB0YMcOABrYUK77D+0AoHUf8t84ofHyhVPp9REDbduClVtStTUMAqFM9kadgdIB5LIh23I1qOdbKMFPabLerYaIzJoclNKlDKnlWag32zh8r9V4Z/ZHa7bx9HgvxtdmTqf3dnm4Z0t5DPC5WTpwUzqHs+n7YTNIypkK60/GtrezCpXLUAijEPAc7XIfxfCiHM/7SN99QzKUW+54KgBUqusVlLbueD6qN02a8PVRKil1/Zn6HCVmMstD3hX5j9s3AysFM7eRZxEMM8aBRiu8/sbF7QiAcPjS2fyzEUd6J7pgciUAKoCRE5ky/0MjxF4/Su4cPT+Q/pt9syc6t0e9imF7yITSVQSNrNCt6FmUHjCC4DRDlZnzxMA7J6a2ZMLgSVO3JwCUKuxttrYzAFKHLk837lXNesg+NYJiqajzvU2QEnAwiUEhDWq3t1PUxnehvXQP+5P0/twrZwbWw/Go53fo6ungRsVxLaMiinS5XA89+TIp+KiMBq3cILnmB3BqVRhhIFWGXX70ycdTF59/0rxY639fDQCqKAdxniMSEEfPpRzDfpLsa/jBe+emNxp8S2bgW29fvvVJ2NwT1yoqcW2EVHWDKTmtHEWbAAOlzOoCIKrCyr7uZFL132MaGF1q33v/jWnOm4GCuh0AtNYzee1+v8fQb+0u6Ev4y8sAyOELTOqbBkApg/QSi3weAAl1qN9XuQgUNbQqHK914FSGqsxGmnEIJw6xK4zvfDZ5aX+/Zx30M/7Ds2ejW1XYN0w6hzuA5wGLbVSHxpG29QLJhLcsiNxUywLBAAAQ48mENCsRpxDEiBHDRn7z9lzj9OUDg77X9fi9VQOgsqpDM9qUuWvNqioPoWGJfHsXmjx8+cX3xblbjAV1waCXP0WGjoeci/NaMxwo8kGzXwUbaR4hd2LsbjeD+z94i1nAgW6E6/FsnnSOA2+ezqUCxF5COUraTtHzJgbHnLTF+27lGLm/mC6cuEgA1Pd4HP6Lc53PEFfqzijaQYjcK3yAkkzoktqno1hveCWeg6zRwjO51b7+g0kGXGtY7n7S6K3Nv+8AoN8c19+eOfPZJ8P2IZqOMlhlVVJ6wnIqBRYVFzEaVVCmh5wTJ0oxaub41tAI/tUf/fGaxi5H3jx947pnH4gMR2WkcRIAqRymVOlMxCtU+2zbhgpDNqYgSyOMZ1n8e96Y/X/+yWtreo1Pmq1PAkDirxdnSLhoW/rVd90ahlphtHexFf3y9IbRL42vXj15766Vjy2YWQ7HM9AJ4Q2PIlhswakN6Up/msKiyiXFdmRdK6RrS+8m7vMJE5IBJnIVfnJ0sNS3cvx3ANCTZuLm/fcNfUE377Cs65UZL82cSq8PG+gUAEgocKqoAK0pACqpSZlkYxkoln1GZdVJZTlGDAPDS21cP74pDS6Nl9+cTm+rGJ2aI03w5NEjymErEwY55LJAFrcmfSYFQ6pPACSzhLQq20bMbHchUIF2G2MVr/m7lbHa//NH/7zsflnXSdXPyZ4KAK2gtrGnQ9hnK8JoqhSKEW0Zjj+04oiwex/H8olohqfBTxn0694XrXLIZIGNhNlCJ8ZYqx0s/EBc2/sO+Pu4+DX56t6rJ7M7Q55CRhBETS3ddKWrYqXPTKFIwX9SKfaHSWvu+6dY1e0bfIxfPtaZH65WvNCCZbtoyaQALJEP1gIrrPpJ7xcffujDGx+FunUHL+ZO9M4b5ymusq2eyw4A+s2pfnD6eDA3MexqYqYBI7WWK/JCaypKynRecGvwWz6GbQ+jzU7r+olT9FgbWA/HF7yIxt4/m11cUGpIqiO8pjSDor0Ck5NkaPCLLAOFEVyL71sMs2rBWFwKvw43/bvXTrPXZMOOJwOgBC79/ZgP4T0SxCU56q0gfiG14p+dOL+eHlSSP/u9C1O358y0Pj9kV3xXAdWKNhpnbzT3dMdDEibIubYbZHfoJYv7jCjiCt25GPI8x5BtwlpcivcFiXr31CyzQgNfW47MTvlzNc9rOnYhaU//NYrPFf68pk5qa1pyiloc43AziK5NiZDUwK9nwybcFjzxDgDa+Ie2DIBcC4rya6wAKWas2SBbRCVrUgEqAJDICOtQlIEJ1xAuLELdT33sho0XHgTtvzt3YWDKKYMa9m9cPJ1/VrHhW0BCvwhZeRQqhoug6cOxbZFaTsRgsKgAEWCyuiarT58qelEEp15HQrnlJIZV86Q0H7cW/RdSK/3wlbPr4ZU0qOGU31k1AOKHu1QzfQll601ZCVo2oV3REySBQ/F5Vmf63AIErJdGHXoWd6WXpaIkAMhCohLAirGr1fYfvDq7aRp8B/nwJq6eTO7SVZQVIPpjCDAvpO0lxCj+61IGEww1Ovh2hOCvT14gLbCv48W/uJB8ZmSmSSNUZaMj752Wn9c+RBoAiQw9lxzXBhaXMOJ62Lfg49cnZviNvoFYXzcx4C/vAKDfHND9V8905oasit7g2KupAZD0akoFSCeq2NvH15aV5AnDwdiNO81fXBJvpDU/np2eaj4YrdZbnmYys8Ij2EwpJCaDXWbWEtjVKjJWOynkZ0QwOz6+1jGzd06cXyuRhlXd+xMBEAeW72Tka9aEYcBKFEbCLN3vJ8EvTpxnUmQtgaYU/V46dfxmPlzZ1TTytG3A9fnsPQ8Re76oJFmhOm4G5bnIF5dE1MCtDyFstqXnVvaSIvGmNO1APMck6ZOHGIsyvNDK8n84OdNfvu3Ro66KCtAOAFrVrNxcH9oBQBv/PIwjM6fSG6wAFQBIaNCKPQtPAECDuPaiIkIAxA0oMUrKEoUCMtRcGyPzjbvXj03v24TZCjUxezxb3DOKKAxgUDUoisSc03aqsA1TFtEy69xtxpcK0HLmqJ9hFLW+dkcoVq7rIuH/Ua0IIQ4E+d1brwjneEsdTwWAyjvrZt10BagENd0en1JyvAQ/BS9uZbWol0Eifa5Atss9L6R2FIE/AyctgMFeoIR6qdjbbLfuvH5ho/ntvdzuE78zcfVkdnfEVUgp20gAxOeRa7lxtaLvTUAhZWITTOQG9t+bx8/PXe17P9g3+b0l/8DEcJyZiEh/tMxCC0HTHEswlkiQS9YK0VAs3i4TrTC6ffwSEwZ8gfqExU8cqnX7ACv8t+qO0XBMWSe4rgteL7zcHimCsL17gIyxK6eXFsa9uoxBSkEM3RPWrdSL4hp96DK4ysQQ1/ZPb3UeXJD5sS4A+Q9nzl3/pYcDS54yKUrE/+gnk/K1IW3PNGAbNuIWaVlVRJ0GMGTDhsLE3Vbr5gYr+D0ZAGXwXAdBp62FHEwLZpSjGiWoLrYW7/zV/3wAN26ExXh/fm34/Pu52rVDUjDffe2P70ZVb2S+OhT4tWptMQn0s1eAMzKCaKEBrz4EUxlo8/rE2I1UAgIiF+gEkD7D8iqokl6sdaIuaiQw8xRGHOJg7sx9+MrZtaKj7wCgdVtJB3+i1U7awZ955xfLEXgIAEkaiXRjAqAVTeOlitbKku9AhrDoI6Iq13JjOv06SB9KUV/qZI3j0h+wLpvOU93Ti3B3vzId3DdymLU60gYlMRVctyrrZdBowKApveykK/pDJFs0GACkozoDVeUi8gMkVAOqWDAqBnbdWZq798altVp4n2qonubDqwVAIqFKmViw8lZMD+HIfw4AdcGR5sIJK4qoRGVIOH5FsPM019j9rFRGS8Wz4kR5DhPaY0UAmNCtbAn2zTyNDyx12p+9MUsZ920TZBfjofZdOZndHnaBfCUAYsWFDdwMEparMOzFMU0Fz/dxsNHBtcH4VpkHf3jOv5kntjUyijxMwayseKlID4U+v2RoBRSnOvvstzHsOHDnG/6uKLeunVwbj5ee5lifX9oBQA8P4HcvnL73iyp2t2tFn1peACCK1RBYlExsvp1Jjiq1EPwQ+9px471z0+spwGMc/tH0/TkzGaMctyH+fKYAoFwREJnIWgG8SgUhEhgVGymxe9BGxbTw++4Y/vqffm/DYqwjs5PBXN11qS4rcYXYzFJdr9zKWf3JYJLO55i6V9MPYSgT+6pVtB/cD2u85TzzUyMf1Z5tQqMQwGpmRk7Qwbebq76uujyk4pkbhqUarSUMj46LXUJClUNbRTAsJ0hTJKxEOw78NIXh2LAcG2GrBct2kPiBTByr4sGwLERhB6bjICXrwrAQdSiVrgXdaG3B/iztY5ggslJU4wTPxtb9X7x2hqbta3UQAJEC5+5Q4NZqiNfudzfs5Vy7W9pyv/wQBa4EQDpgKxaqsrF7pQrco1S2ern1AgAxmBX/MKEhZMisBE6cYn8zxKfHZzfjPFHfmD6evT9SRVB1gDAWeUz2/JTjRmGCnBmjz/Wd6GEqN4E+quJ6L9AbS8DFF3DqHtqdJptm8+fjvPPxDwZnuNbL4+3lO08FgFK9cVKoSZv3al48N8Zu5U0ATtF0L+wWGj/qZvhEjJn6wNYlACJ1VOAMN/kURs7KX15cF3nhtpiC2nm+cGCpk316fJab4rYDQAcvn8xujhAAMegxJVDRQJNPIIfN6I1xZUmXVzkcv4NDYYz3T1wayHv+4rkTwe19I26LFbfMgUEAVKJiGXFtzipASPjxlIijl0oGW+WoxxnG/TTaFSL/+9MiWdvHBOnlDRjsd3YA0EPjaeyfOd5ujg55LWGWad4bjXI5Q7sASPop+eRz1LIM4+0k/uzYyTUxPn3c0/7Dv/pR/mHawVIYIzNNZJaDROS4DZiGCU/ZiKIIMYEPKxNpVCR0Ukw0guju6xcHIi/fy4x8MgCivZ8DBRNBHIiAT6lkiihEpeIiTQKkhq4gl3udfi56vbW1NkRXTfVRCyp7ZMPAh3IdXf3k+NWrQBDKGiVAMstgmhbSji9UvEqthiAIRIU2jmOYhhLRAyZsWIlL4hieW0UclTESic6cRAlMpLCzBGNh2vr06JoLOewAoF4m5yb5zkA2vE1yL1v1MgQA3Ryz0ZROORtK+MWWXiy6Abx+0bs8+kEBIMYWJhtouHaImyRMz0baaWK37eHgQoCfT05vvnlC35//5Hh0b6iORBpQHxHOrqBllTFUGXgtZ8H6BEB8Zo4Dw2eTd6G6HEeoqiz/g9EJ9X//l2urVrQWk361AEh8F7jtMFiR9lJtNGq7HlQQSxNoYhXSbqLnrkPZEmzrrGHvd8CMowZPhvTOCf9bFN/YA0QAlIn6H0x+yOoYhhmqdtt/PjbdD46emuj9zJv2m+r5t85mn1Xp28XAwhIxvGUKKI2AiwpQVzRPoRaEmAgCfDSgRMd3T07ee3eXubsxVNH+HDRk5RrDJmDfF+GFarWOoN2BLRNHm9cKRU+ClwxumqESZxgJcfPa1PSza9yLsKYP9KWZU8mtumPuUOCAl98807lZsyuNMIRZryPNUq12zdyJMpCU4hjMWhVrQzUMcaiZ5O9Nne1jse75ERvPvHVqft4wRtqmAbNSQxLFUqlIaNZKQQReJ9c5IgEBcmwUSjHeSaL5V84RwK9lH80X3thqAJAWibEK89ByD9V7GasqTCLpyk4BgMRbTHV7PTVdRfcLd+0kiqSqQNqHBHFKFsZKRoZWedJtX1oKXa8HSo9rmsK2HaE0B74v1TaeJ0wJ2BwRbSDAoklukgRA1YQXhNi/GDQ/nnyTYhlrnTzZAUA9v1ob/8U+wo+Nv/htcgXGi2eOp3cmKgjqVcTtCI5FOlUEsOTOY0UFaOAASHScaeDpwnNcRFEgzZ6ukaHyYBEvNNOlv7/4Qy4km+kwXnrrVHrTVOg4HlL2d6w8HslW1uany9mqFUaZvd5ZtwJErjpp1BZJV6hbBqKbc0udcz/ctVGbX6+3xO+tGgDxw8JtSgDKHasc1dxEen8+Hjdsu0Z+eRJmqYGcYnzcOoU6IWBVl86WPZikJlQYx8ifIl+g/xQJnfLvXaPUnJXKYtu1U0cs20VCG3lu5HGWqzTLLCNNcsRhlKWeaaeeiaS60K68c+HNzdib1ct6vDLpaozNHE+XRquwbA9RlMESkKkKKmAxhMSDJQDKNADaFQX49NjAKr3Gc2+fmfvEzidgu4DpgDK2cF0YDFbiUICQYzki+88Fjua1In/MYEpALatVgBvEGM/tdKQTBT8/M12qf22pyl0fAKh5Wzeib6n7fczao/b98My92yrZVR/fhVbbF+PXlYEye1CFslqqeREst4P85U6mfnLy/Ib4RH370pn7n1WM8UXHUoksMKSpx1K5EMzDa5YtiKVwlkM4fzMMR/QcC29dOzV7sJ/1uNfvrgYAyUJQykbzRF1xmlIkSFNXdZ/astiAeHjJu1q8t+VFPpR0fBgAldtFN6Ypaekcr4KCr7GTTozxCig4QWNET1lSETIdG7mpNOU6jmWeuK6HsNNAverBCPy83vCj34qMpX997vJ6rPE7AKjXCboJvtfLhrsJLntbXYLxzUvn01+YbaS1KizDRcpFlBQ4YRMVgXqRyBg0ADJY1udvR3RVZiUohZMlTKRgeLH14PqpK5uOKvTdi6cXf+2kI516DVlCYk+pYLcis9Sd2ZqWtbIxf6WxbCn73fOMYuZP/AaUAKCw3UDFNPFsbuHaD05syIbd870UX1wtACqNYOM0guFaMDsBaovtYP7/vTqEf6XJcJ+7lu0SyD3tEAtU3j999FZedUaV7Zit+UVjfHw36R16pkoQwhLi6v900wRDQdj6t2cuj0nE9bWvWRN/+k/Cu5EPw6uJepaZaFDYVUHkU+EZpVypDR1rYYDdoY9P3hgYAOIdmWNXJ+OFoQojFCiqfCUZstAXqpDKUjhUuoyZYab6ZBFdlVU9AjQWjhJgxHLQmV/AnvERtNqLcJqdpTunf7S7SC5s+jn10syp+FbdsXqoAG0rAPTtmTPXP6iZh1tVC7kfQ1mE510kLq+ByKPrLkL9jqkMe6I4fv7WYvr3l672rVL4tC9u8Xljzw/PLN2zUFd2XYLyPI3h2g7yMNaqhhTzkNWeATtVDzOhYTkqzb9ZHVN//V9/f91jrScCoO56s2JUugDo4ZEqDQs+b3XQrdQ86u5KZbZHbAI68SUbZ7eK/5BCpWBIAw57fzq+9AeZDv2XUiDwgXoN0n2aJMijCF4O7Ie18OH3pph0XM81oVcAFF6bmtmWZtw9vmMb8rV1fyk35C4390mN333zQvqeF6Npm3BMT5r7bK+GmFzZMkuyRgBI+mUoReo4kuSx2gGGcmAUOT76/snNKElrHrxwLJkfH4FPSkKi2IypCxGlyeJDs7rw/SmWxLICpL1RODH6ZFVQmYYPKUxhmQZSK4fd7OAluPi3r21NZ/vVA6AMZkqOVSbS37WUCmsJrk3NbsZ5sxGrgPGdMyda7bpn3TfyOPDsakDDdarUkUrTancTHb1cnJMmGKXoRLsdVWzPWcoSzFs5jJEhZGEExDkcg/1AhgAgme+laF7Rd2XmJiphgInAJwVuoID9pUsnk09qhhmwtyC1xD/FZF8Bm59bDZiuh7x4d3UcXGTPBaAVIxLn0pjNzK+yFZIsgGtYONBKUGvHGLadpb89cY6CFmtNdenlEcl3Xpo5Fd2qO/aXHQDtu3L61n3X2p+YFmrVCgJWBYvmeW1erBMAupGelYlcTLgP5er+pz84yWz+hj3jXZeOR+0943bgc60zBQBZpoKZ6P4YAUBl5YqUPiYxVYLEjJN97ahx+7UZBubreqwKAD10RSuGV/bLcm9cpqYJJmVthq+qPLsVNhKPYF6UlLbfMMgW8oBWmhU6uuDeFXuxVlzQa5hjae+wMNRKcA4XUfYMptJPVE9SjAfZ4vXjF5kIWu9jBwCt94gP8Hw7AGiAg9njTxnPH3slXXp2HO2qi7AVwjIdpGwUN9jWt7YVIIdBO3KkLCfDwLDtwp5vYPdCe/HXl69uxILy2GH8xoWp/EbdQrNWQ0IeuXILWps2WVymVD36Zz4vu/ykzz/xmSYJDMeBlStEUQhVdeB1Ahxe8vHeqYsDDSifeC0D+sDqAZBu/SGLshO0MKYM7GtG+NXJS19uAPS7sL/6Hx293xmp1Rby1GxlOYbqo4iiBKZtodPuALVqoTjST3sAA5FUzBkJCpIsRUI1pygAvCo820PS8qXnqvT3Wp4iOthhBp4AaJ8f4P1J8ckYWPb033njTxfu7BsdnUMGx60iyhQiBi5Kwao40shs5jq4AQvewidixZYBkQ6ATNiwkxwGP2tbaFspsiRCJQWqykDgt7GvPtzxFtruL6cucDpuWJD8Ra/fDgAC/uB/eDt5Jw7idpp7XKgteulw7bSdQqVTqzZqDTHRR5ci5S7TgHvrTv7Z+St9Zqr6Wxxf/NF08AES17CqOmHIhEIcwjAJBzh3yYGjoauSnCUpnQZ7gbIYY43O0oPJy+sO0lcHgEr1zhXSnd2hWsHxLhMncq+fB0rFF76gCiSFnpUv5orPCZWu2z+0/IjLfZoy2DziThvO6BC7kpAkEUwauHZaGKnYGF/y73z8+iXadGzEsQOANmLUB3TOHQA0oIHs42fUv3vlYvaO0YJfqyANMzjsa2FkTu5+uZ93M7ZFE/MARBC4yORZooEW2y5ME8O5gV2tOP/42BRX9E0XTBy+fDL/zAaMkTFkbMaMki4AWglmVmaeHgWMuqrNqwBNj3u2dPZIoxi1Wg1+5CPLQni5wgsB8MujZ7fk+/U0AIgBKzN0Qexjl2FiYt7Hu9pwbmCBdB/v1np/1fy9qaP+fM2226M13IkCWGMjSKIE8DO4tovYDzA8MoJFelsUJqE9X6TMLhoEesgXF7VRIFsUDIUsCDSAsDyt7MhM7YpqJ6m08nVlohYE2O8HuDY18OemfufMsVsLw7V9DUMhchzkloUwSaFsNobRlimebP6SAAAgAElEQVQXRTpQK4trXFIqCRbBUJyhYrlCNZKKeM1FysyxypFFMWzHgZOkcP0YQ0Ecjsd58tNzM2tt4PhUj+ylmVPhrbrj9FABatw+cZ59T1v+XTrw9qk7t2xjwh7ajZSKah0ftVodfhQhE35yAYBK42JYcNIM3kIDL8CMf3pqutDMfqqhH9iHn5udWrhVdVyrPloJohBZGsGu2IiTaNmHLLPEuFUqrlR1QArCu91hhD23FpOfv/kjzWtfn0MdmZ3szNVd7wtlsAsPwO42v7JMU4rWlBYDGqYUjJSiYsNp+fn8zSOqQI+8XalG67HqKtDyg/QOk94i/a0sjqAsUwzNw0YDdbdCsabETHJzzLMWraBV+eDoJQpNbNQ7sgOA1mc+r8lZtmSAtiYjsYE/+s2zJ+9eHzX3LNkmTPH/IbuVfgPZigzT4FXguO9wVwnCAM7wsHD01XwDz2dW+u7U6c8pC2zgAC2f2hz74emks3sc4Z0FGCMjyKhc95CMshY7kP2n7NEv6HES8Ukrvm6B4F+1P0lv98bzeK6NzlIDluVCuSZiFcNNMjzTjPH+G5tQPW8Vt7paAKSFDEzdYJUnICXrYCPKP548X3RwrOJkW/8jnD3W71w8N7+g0jqruPP0gqK3DV3KKWYCBYv+FXECxcA9juHWmOTI5F2XvupCFvyp/iQFJdEVFc9zETSWUK9X0PI7UJ6FnJlqKrCVxirC1lwpR85/oghCgIOdAL9aG+CqvnX+5NKdkXo6F7ZHrVoNtleB324JBc6MUt2j5BQUqFR7dOnMsAFl2Rr48J2uVZE0miIOI+8vby3NkKUpKhVbFDLZYzRiGEEtiqz3js54RRJno4Ijmd07AAg4/OPzi585xoiU+0xXhHbYK5ObxfohMqSUrxdULsbFbgw8mxj5e68cI3Dop1Ta9yrzB//9W8n7eebPR0mdwblTc8X4lJUInWAjZc+CxWY2oZwSJKRAEmI0Bw41Y/xi8kKPO01Pl/9kAMSUiBajKfbKlWwT7a1WgpPyM93+2aKHkLfIz4iuzRfspcvKqyvuoxyJQlWOvUWmuJpqVyFJiogoik7oeGkOux22RmOY9TC1X97/jPW//bf/zWZItO0AoJ6m5+b40nq+kJvjjjfnVVjjV0/FzeEK10vYtosoDOBWq4ipmLRCYvKRi0mP9yQelHkmWvsBgUSSYcSwsHT+rSHcu0dXUR4ri98rz7SaoGI1n1n11X9n+lT73RG76ldtICRYLCmCKwtVNETTAOdJAEhurk8AxAxVpVJDGqay6WVmjEqc4MhSnPx8anY9M36rHscnfXDVAEgCa3JBaGZpwokoV5vmHx079WUAQOq7x74/3xoeHW15HhYQw7dNxPSk4rAQeORKpLkdw0QYtOHU2dcXIY9iVBwqF/lQbKTueRU2pGeQctJuRRsEGiqF7VpohwRBrhakkpiSPQrLCQD+gyTelULdj9YSAJXTTY1fOvkJKtVnOipHIMrkdjdRIQFPkZFefn8NtgAgp0s9wRxvJklhUvY+iaX3jzdFoBfTc0hRyAVgO4YdBBjLjXi4E9u1Trz0kwtvrTsFqbzxl2ZOBbfqjvtlrgDte+tM+7bnVI3akK5OJrFWBBRRDga6BLn5CgBkYCjM8Nx8GLxzbnqjxA9WLpXq2TfPf/zAsw+1VGaariW9bKyryj5DvUVRGdVzkhQ4uS8jRyUMsbsd4rMT60qJXjUAKgs/2jR6edfXHtUaIEmxptwr5XkVIiXMv3SV2yin9GgRF4Ik6fUpRV7kc8vn4n7NBIYYq4rwE9ennJXe1Irj8IVde6t//0//ZDMAns9vn70CoODalHicDTRGetLevvPvD49Az1vvzkAOdATUnqsnsnsVD8qoirxmSn5IFMC0GETxXJY0HYrniqAgLbVZyAn3fDErAZUGRJAKRjXhYlScZ4VztA46dAOkVE6KfysXSkYg0tyIDF4aY3cnWfq786LH3+9hvvj25eATM7aSmg10EriOi5ASzJ87VtPnMwggKYUPqv2Q2hTGUC4dtVMMLTbmm69eoM/MhmYtex3wVQMg2cyKJUTFqMYxDrRTfHB8Y+Rqe73fHr5nPD9z4tPGkHfIJwhXNHbln0DEhigBG5rKZWUZVJYjo6+xoYN1RCnsGLANG5FBZ/YerkAo+8zQ6kDMcS0klLOn6WmmqWFaRKVU2SoyvSUiKt9ppTDkxzjUivHuyem1DjDUy2+e+fQ2ksPtio2IDc2UyJYybAaLMvIcrwKYZVK90lWqbt9FEsGtVBCHPrKIYIjcOUNLaBehqHyFJo3sjYpS1EwqSbU7Q2kafXLyMpvR15Xa2wcAWrp94jz7MLd6kGTsvXzuwf26O0qxnTRnvynfj0Lkp5z+sv/oCgCz/7vbSeP+K9N8Xr+5yPf2yvT7LXP/2+cWFuruUBjHIgAgaq2sTtJCDzQc1uI6ZWWFDIUh20Gl2Q7uHjtXW8e5tyoApFKdAGXfsU+FRpvZAxtodlDzKlrljho/NhFKuYZo757lWam92ArbgqdTs6Q5NRO9rF5XarCiGGan44/kSlXiNPnlqcuks67r+/qUk2QHAD3lgG2mj/e49W6mW9gW16J2XTqaLUzsRuYrIKYBhgnbNZDRQVkQh60BEIMBObQBWb8AqO/R6wIgzZjrugeoBENxjP2tEO9N9i+v+80rb+bX7RQL3Dw9B5ZlIPEDwN5QajgsBsBpDtepIs5ipJ0FPOd4i5/8i6lNJyCx2me9agAk87Io9hgRajED6RS/PnFhrQPp1d7KWnxO/d702fmPRuzReRUBTlHk65r40QuqNA3MULEtRIGPlMGey2A/hWl7MGIKGCXCb++VAieBf0IHdRtpEkFRlcoxpaoThyFdNKAUZe6XBZ3ECFVlhS8Q/8VE3Y9xeH0AEK9EfX1mKmxVrYW2Y008CCN4wyMIw1AAjTdEg9Q2KvU6/HYAhwFzmiJNWd2hMAyQRRGUZxcu8WXVYAWVVWafpvp5hiEVstpoFWYYYrjViSf8JPzH0+sXWH3ZAdB3zp6duznq7ntAFT8yGqjiRcNtKgIGYWFirZMIRWEBmZVivB0l869ME+FulgBY7XlzMrvn0Davhsx0kBUJQYd7tkoQia1VBiM1JEHhkO557x72Dg3jcAT8wyvH1mttJABqz9Xdyhf2ACGD9LBSjILG67aJnOXTNIFqh6hTaKRIaLYdJnf0QsJqjUOxB13k7hmfs9Jbd5ygeX8+3zM+ZvhLS5mXZcGHpyRJsVVA/w4AWotddp1+cwcArdNAP+E0au+fnczuGAqOPQaVGQhjNkmzS7jk6FoF2Ckcp8sKUL8yzv3e//oAIOPg27PpLcTwnAoyU4kTtHJd5PHG7o0EQAklTwt1q2HPwvDc3fDG6StbVuN/BwB94UuhcOiQd/if/ZNOc7iGqC5GryK/rilaBszYksCg67sTRzAcC4pqi602nGoNEYM+x9HgKYr62+rZZ0QKIkNHERFgdp0ZdAfM7pY+K8ziiraWcI6YqWZFimBo3QFQd3C/cfqNRmeslt0M/REMVWAP1dGcXxDDVFbJvEodAYUkPA8JgZ4ypA4eRuQJcz3UpkYllVcKSRKAys3psLkTwas4COIQyjWQ+0vYXalhvBndfO/ozLPrUaXtFQBNtFqLd46fJ3VvqwSDj3px1LOXz7RvVcxKbNtwSV9EhjBo6flfAFVWMg0qn4qxKJDaKWpBgvalf1nDrVvkgUubySq3qxJHPenjK+Of8re/KCZS+NrXzNof/ceNaGzItZQDv+3rPj8S4NjPZCRIRdgkk5sQ2hfZFNUK8mYbe/zQvz45zSrQau/jSdf/uH9/MgBSYjUqbtSsvMq9ZASkBg67NeD+kj+cZCbvIjQzFZu6tcnMoaxU17ik5enRI1be48pxLYMZ4Y54cRb89MwF+gxu7CbezygDOwCov/Hb0G/vAKANHf7lkx/8l+fym2z2w5DQoX2EWikJbKLmkqllNpku5v9KnizVUrRnwgYeaw+A1DfOn7r9yZAz0ao4qMJB2+8AFdEhBdTGttmQ3qRsSxSpqKY35If4Spwu/vS4UFe25LEDgB752NTLM8cacaVabysTCft+/JYYwEpmlHSu3IIT6ix2yL/z/xFwREBiAH4gAgAxQQ+bv0lRK+See5oo5e9L8GJqMOU5gPhleLBJJ0q4VugghX+SFkagQMoY6TqsENWCbgVoI/YD9fLsVNbxzM58FGShY9WNSgWZYSISgRNSchwZO5DuRtVB1xXJeQmgWVljzx/XQ0ZSAoC0iSL/cy1bqks0UsykeqyAZhNDmUI1SsNqlqfjSTb/k8nLz6xVYPplBkAvX5iau1G39/lDNSRBANNgFTRHmkUwKx5SJrCYOGC/XMY/DQHnqZ2AVZXDS/R5iRFamaj/ifllQZUTzyB+dnnWfh5YfBHQkACc71z5bsTiY5rBK2iXYSEBZESs4laQRjkWVY6l3VW0ONOCBJZbRZ7rXh+V55JQyEr1HWmo0c0zpqWTHwdNG19px+HfTJ6lOMdaH+qrs5OtW3W3+lgVuIxVYgs5q0Cug8zMYYcxzBv3GsH/+r9P4IMPGICsB2Bb6/FYs98/MjsVzNU8t8n1iJTjjMka/lEwN01LFC8lmZ2nwpQ43Ax2eoDW7Ims/oc3YsNb/dV9iT5Zmf5+HhzYD7tjihhB5prIbSUbhV6q9YYuSVuuuVTEp1xk2YuzUWO1xgDo92dOtm9W7OqCaSBk02ycwqxWkKZFEEkVrI08uAEy+2+bqMPE2L3FzmfHzw+vR2Z5rW57BwD95sh+7crkB7dtvNBgRrc+isZ8E8PDw4jzSDLW0s+SW3ATZn4VYlYGS6kyNujbSivDLTW0R09mCBBiT1CvPUCSOE1ZYbKFNssWZHtkGDGd0tt8P2xY4k+yrGRi0z+wC4C0CMIGA6CVg2289NbZ63MIJto1z0rSRKFaA4IIMDwomBJwKmUgp4AEM+slFZggsOhh5A/qxJCm80hPA/8eJ1p6PI5IvUHst2GrDF4Q5Xsi1XpX9xsMPNj7EgMg9rY+mK/XxlI+B28IRpyLAlwqohV8YDTq1WbW/GsXABFI5BlGgxR2liC0ci1/zjhSeus0wEhoFdFXDlD34OkEQQan2E403Yvq7Kw6Wkg4B10Xi54B5bhI/Qi2MkQ5lUdq0BCV5ZFCIKA08hSWqSmUbbfZwp6lFj45K55GA59nn1u1WAFqztXd2hdT4HjhOZxqFUkUi7Q3VZhqph3vayXhh8fPch9b6+tcq21s3X53BwCt21AP/EQ7AGjgQ9rbD77w43P5h0YKJ6sIp9+nvwCDKgZOXQCklSFFJlZkc3UFqPcAqrdrfehbawyAnrt6Mp/zbKSZidQ04QwNIaSKUMiM8MYrdYshm/ghBEArwNcCM/7VBntW9PtUdwDQwyP4n//Vn+f/V+NmtlCzjUyMdxWGzRob66EMZqaBxDAlGUExEGnkZmLCyATg5HxZzQigb43lwmxHcBOgYlA5Kg2Fq5abTIHzC7moJvCLKqsUf4b6f091zxU5K7lhZEbaRMUdaked1MyMilmr4YHfBCoeDGXr4KxYHMoKEHn3EjgyWy2qT1SB29AK0Oenq/rWhTfm7xnI8rF6uuSHe0IFVOojaPK9l8ZzC7ZdiDzw3SsEJ8p1sQRAcn+OKxUHdGJYpq2TRlkK17URhB3YtgEriTAcJfntVy6sifdZrwBob7O1cPvE+a3UD/HQs/zq9OvXb45VD7eHashDPifKwodQpgnDZv9aIdIhwEf3lJRiIqlUUnIY9IxChrQEFlofAVaBehJDV4F6OwohIX65IM09JI4jtFEFlSrYMEByaWoxtc/30IJBaWaCcso2UwFUMHcpP6plpAU+iIphDrRaOAQV3PjTM+shhrAqAMTeH6G/0Qid92aCst2diXk/f29qmgBoK9PTepsWT/mtHgGQf21qZr3okE95R1+ej+8AoE3yrH9r+ujte+O1vR2qOimLiRlN2+Biu0Iu0qA3UBHEPE57f91ua20BkDn0ZyeTpsMcnIssJUmBksseEPiFjOoGr8/s/eHGYeXYFavwxRut5O9mZuvrNv5rcKI+AVD+6xMXtpUM9pHzRzufjNiVaLQORDngp9r3KU5hieoTfStMpOKxs6wlS7Dh5TkCxEjdBIZpR8/OJ/frflZP09Sr5nnzH84JB341WdZHrdXqP/zLt9JPH9z3s0zFbdPEfM0cDkwTFbcKv9PhOQu1xqI1qPAbkjWlaGDeZABo5YxW/9702fC+nUa3sxjm7rHag6AjFVerNoSk0YZha6NX8QCSTL4GpPr+DJEjZw7fDnN4nodGEoKY063VEcUh8iSA5Vgw0wS7wnTp1mvndw9adawPH6AtDYAO/fjk0n3PHQ6abVjDu5EEsaZ+mkqK5vRv6kqfswJUsEXFF6oENaItvQJYiLjAss8bn27vMvKcM5pSwaSFVlvVJ+72trDCn2YC2qTaKBeew1Fm4d3K9549fys9dMrfMWA5HpLGoogaUaSk2glxOMznr71xfq17XwiAGnN1t/7YClDEPmNTfMoMM0MU+agGcftAI8w/OLN+QiFrsI2t20/uAKB1G+qBn2gHAA18SHv+Qevwj86071qGE7LZ16kg6YSAu6LHpfTuWBEu9eNj0/OVPhSiaABiCPl+sCpwL89M+u8NG146OgK0UqFJSHCTZzCpWJNoE8WNPKhSFbWWoOoeRheaNxden2UvwQajsv5GZAcAPTR+5vN/ds6/7io7jQJgZBzw6ZkFOOy7SWIJohLD0gG3HDqdbKUZhklNiwKounX/xV17xv/Nf/bPC3JNf8/oEd9WePFFZ9f3/qvmog1bcLltax/UsleoVM8v4zO5zHyzVYC+aGDUV6+ezppmvtRCNpI4NhKmq/OikV7afnRA260ISC+QBSs3MJSZ8MMYccVCSmQaJ7D4/IpVK0kjOEGEI6bnV+4uLPyb2SuHVglMn/ggewZAjdb87UkBZKsByE+8jvX8wJGLr338Wc1+LrQrgOXAChWZ3cgrLnKxeIikdzInFU72Nf3urMj16ecoogIrRqCQX+6qnvchAiTgp1iqOSWo2iZ+N3pH0yIh/B94DRQXYX9dpyMGvinlmgmC8sKeojDt1MIcBf2S181MJpkcot6awkpijDVDvNQxOn9z7jwrAGt2FBS4xwCgTKT4xaCZIi3SU5thRCl//4NOcu3kxTWhhK7ZDW/QD+8AoA0a+AGcdoPDxwHcwTb6iZdn3li4vbs+usCsU174Y7BJmkuyBDJl9adcZFdIv27UOKyuAtQL59nc+8Op4H7FsUh9Q0q6kO6B4iFUlj5MTAc1XMqwkIdtOI6BQ5249dGr54cG9dsb9Tt9AqDs1yeESrTlgrZHjffLM5N35+r2nkX22bCJlVHZCvd06W7lKupYYtJZWJdLVtkKI0zEGXaF2dw7b5w9sA7PU+27cjqbr9oicCv02CIWKzPtXWjeBWtbBgB1h+8bp15t+cOOmjdUtWnVAI89gakE1kKtIlDlmiE28gSpgBuLpTxCUc3nczJgKxN5nOp1hBFwEmM0zbA7iJM991tLf3vlbYKPvo/HASApGnK9LwL5bnU/M7Cv1Z6fO35uSwKg5y4fb9wadYeSjKqIJtzYQq4UfObzSudNggUCIFKZGXyT3eB5yJoteW6qQpGBQgij1IBb+ac8mT5zTQW46gKg7tMmGCKYJuVSS8drqmWxFxcefBR1SDuBCHIYlg0jToWhIdS8EriJBD4FPEIgjVGPMhxJPPzj0RO97Iurno9FBWjosTLYpOwaBpIsRS59VymqcRo904iDa1Oz9O/bFuv4qgethw/uAKAeBm2TfGUHAG2SB1FchjX+1vG4NTaEqM1yO1swy8xYLgsyF3xd9eiZ+DzYO14jAPTS5dP5jbqJjmwkzPRqWVGraFJlw+lmAEBMaw4NVZHM38HBpeDBB+cGEzQN9iE93a/1CYDSX5+4wDBnW2ycz14+Fd+tOlYkvV5Fz1mXYqWrkWIGmysYjoNMzARNwO9gNMtxsJPe+eWJC/ue7gn0/Gl1+PLJ7E7dFQDEIKxb/RHPsCJeXEH1YbS2iSlwjxsI9e2Z440HzlB6D9lIXLekr4l0JdsykVDVyiIQ1FkSJzGknSqSmZnozDwbwA0HCSvJSGFX2S8Uodbs5M8tRupn05cHsj++NHMqulV37AY9mmAjZ88F8RlNX7cpAHrmymTzesWoG6YHlWlxEAFAImZKEFH2ymRQrqOrQqR7myZsy0bcahfiMnxghaS5ZL5WTgntOtfPUf4cxRdEXKjg0+keWyDmcxLZuaJaVIhtyIXwvc8UbK+qTYepnham4q2Tey4SVoF5L+znpY+VacCsODCaHQw9aHXmz15msqxPBPfFd39kdnJpru4Orw4AxVpoVgOg7FAzbr83ObtTAVrF5OoRAHWuTc2QKr8t9slVDNOm/Ei/68emvKktfFHq2ctHs5uuQu4MI83ZYlkAoFwDIC19XfDb+W/lRrJRN702AMg8+Pb55CbdIh3a6dB8TW9Q7ALiUXK0N5oCZ1oOVKeJ8SgI7h69uB7NrWv+pHcAUHeI1b6rZ5fmPWsIoMGpNi3Nyr4Evoc0DoxiOAnDHiB2KT0dYMJ0ULv94NbHZ948uOYPbPkE6vCl09nckMPQS/ckldScwjeMBo26ykAxfV352EQqcL0MlTpy+sytW/vcfS0nATohDNuR50StCFsMmWggDaQiTc5KEANwgiC9kLhOBWmciu1AHHfg5Dm+Gpv5O69ODaSXrQ8A9GDu+LnV9oj1MnZr9p1Ds5Pt+V1D1Q4rJuzCKuadPAfZv7T8tW1YWhae2xwb8U0y5lxkpCiaDqJif6O4iByifPqwAWevQYy8Bl3OnfYg0lLc4nUj56EanBYLKUQZCFpFZZB6JdS7D4FaFQgjKMvFMGxEQYzQoLocS0EJlMc+tRQZQZLDvrQE+80aqjfuBB9eeLO6VkHwagAQk4r010qyZQBUi1Mc1ACIAG0nQH/CW3Jkdiqcq3nOU8pg7wCgNVt9Vv/Dva4dqz/DziefagS+M/16cqNqm8HoOBo0Py8YNvQZeBgAFdnorQGAnmaeqT94a7b9s6xdyfeMIe4kws0uDyoC8dgUAhC8kCjBkGlgX6eTvn9MqF9b/njx3Ins3lhNLUn7GamHy6wVEV9aycmnKpnoD0fib3ColW6bCtDvz5yc/7BqjjUcFyZ73ChvLQFRUUopVNRMuwJ1vwHbMhA4OYiC9yx17n48OcPKz3oGEOrg5dPp7SGHBDxRotP5kyJ7ndOwcRkAiRz21gdA8r49f3GyuWhn2a7asHuv2bD84YpJHyE7d8QMNqado1CuMihLiege+5+IlCw4yPwIyrGQOpRMyFC7+yBcmrrM4LTvDP3jAFCXDvY5ChzV/vY1241bx89uRRqSeu7K9MINh71abteXSV6X4m0QyWhWXehBk6ZwPAdxHMG0FJLAh2O5SOIMBimMUoTRe4AADym45v0/mOVNpYuEzNQAmWAlFZEASDMveBu5/FsptMF7sCzOllwLOmQ5vMyR70YqlznGqhfviZXJmBUu3neSwkyAryQqf/+1kwMB2Y/adI7MTi7O1d2Rx1WAhFZeUOB0NTJGLUlxuBH716Zmd1TKVrGb7wCgVQzSJv3I0wSmm/QWtt1lGS9Nv35/btfY2BJ9K+y6XowpgVsEMroCtD0B0Eunj3buj1QqLc9FQKaIoUUgSrM7qj2VWcDNQAW0HQ9DrQ6eWWzhZ2dmt8X71CcASn594gI7LdYz8F+TReDl6RPt23Wv2iQASil3S5NG9gXw1gqTuziH7VTgSXtAhNBIMdIOWg9en2bgut4mVewBim7XPcvIGZiVcZ0GQKyeapluCSnlndoGFaDPP3uF555zR//0v+gsDrEcRxqg7h8UtXH2YzA7L43pBEBFFQie9OJEfK7sBfJc7J5vtD44fqFvL5SnAUC6jkicJj1A8a03zrpb7V369rnTc7frzr4HNimHlG0vElisrJBCJr45pUpfBniuFhlgVY7LRpaiUqnAbwdwKJ1Nw1NFMLGSBl7g0q7yYp9LQKmHQRZeIejG16T0GNLmq/rfBAAVCtdUrKd4gF2vIw4jwM9QrVSRUBkyS5HxnljhsmxtiEoFPNNE1u5gjx/79964QBpU3yD7CwDQwlzdHX2sClwBgAjghGmeRRiOExxsxcG7GgCtybX1+bQ21dd3ANCmehxPdTHbImB7qjveGh+2vIvH4uzAQUTtItASAJQUjudsbi4BkOTFNu6uVkeBW+08Mw5dPZneH64gycjjZ/2BgScBUOH3IUFdqYSgA7kNPeIMQ36YfKuThH9zTji9W/7YAUD6Eb705qnotuPYLRppZvSQYUBUUGEKAGQYjlBIwsYSbM9CrGIcDlX02WvnGLiu+7H3yunwzpDnUP1M/Ii6740GQGU1tTRQ1kaoIQ63Yrx7cnq17+m639fTnvD506/dub27NuE7VgDD8iiiYtFANU+1CSfXTPE9MYW+ZCW2GK2i4iJmQ35nCRMpGndfv9B3BaZ3ANRauvXGubEtBoDUs2+dby0C1dB1EVD9bMUSTRsH2bHKPjrHk14oNJbgVFyYcaR9f9JUFMqcVItZsJ9NV2L0PkDTUh5MSmh71Kc/BNCwFUwBIXUYFMQIdSUAohy3MF1Lj1NS42Q/0gasrmVjyW8jrbgwbIslVbkaKqvxem3PRRz5qLgV6UuLO23AdUC0MZFmzbt/MsX5tSYb+JHZyVUAIFMqQARAJhMDeYSROMH+HQC06gm1A4BWPVSb7oPbZsPbdCPb5wVNXD2d3x2uifqZ9rRghiwrMmjktG8/APT7549n7w9ZatG1ALcGhHnXII9Zd5EllUwd0+38r5S46nOw+/i6ZYv89b37R0+R7rQmG1kfl9fTV188dyK9N1YzeiujhfAAACAASURBVKTAbZsK0ItvnozvO67VtF2kTI/ykCAshVEAIHpTMSKybIUEMeyqhdrN+/Hiibc2JHM/cfW0f3fI8wwJ6AuqUFfud0XWnGGa/gDq2xAA8Ul9662Z+78aNvKI7d0BRgzTQiZ0pAROnAk1yVcxlOPAiwzEYYaElSGuP0gwHsfYP7fY/OWFt1gF6vnoFQAdaHcaN46d6RuA9XzhPXxx3/Trdx+M1fc4dgWdMEFu2brvaqXyW/c9AtjmacUJxj0P4cJ8NGJbpq1U5kdhWvcqmeEnOat3ISmMKlNidotUEoHCqMuZmFg1ACqr0roGmgF2hpyvcMfOcgIhi5bEuv8nL/2I+Jp4iUHPY31O8UY1rNBSZiNJImdivHYn7AA2Kacu0KFHndWlliEOtHddRoU4A8qioIrCSLuDZ27ear1z9S/7rjI+6lGtCgCxy5g0xCSGaShkeYBh9ii1Yv/dKfGz2xZ7Wg9TedVfOTI7Fc3VPHunB2jVQ7ZpPrgDgDbNo3j4Qn7r7XP5+0xFOaxCcwOh+zQBkP6cNDhL+X+j1yeef5lWw31Oq7Nl0hNyoO3j/ROrooapI1emso/cHEm1Kv4dyEyYRUYuNXIm13R6jmtyQaem1G8/x8PO3yvGsqAJlXSh8hzaO0I/EtI5an6CQ1G69KsT5xiobItjBwDpx/jipZPRfc+1uwBIRGtLAERfeNJybAkgMhUjj33AVTjk5/6N751j/8i6HxNXT3fu1r0Kfbn4LnYbzvnOiJRv2cPFniY9kbcpAJKx/93/8cf5h3Ew3wiT8cy0tEJfHMONMlimQtsmJU5BRcQ9VQRsVEcO5SpU2h0850f5r47P9rXIHJk5FczVHbf5CBW4z/cAsSLHg3S8/W2/Mfe6rCtbhU6qJv58euGuZ46gE8OyuY4zcbWi4iN3V/akAS6FKsIYu6Han7x6qqSNbpX75c0YB6cnby/tqu9qZYkBpyqiKPX6EFpLC7CqLpIkhDJt5HEMZTrS88Q5V0tTPN8J4l8cu+CtBdA4Mjs5P1d3xx5LgVsBgAz2LBUUuP3tsPPulIggbHSAse5r6NOecAcAPe2IbZ7P7wCgzfMsHrqSI+deu39zxNvVtl0Y1TqyDqkBbNhlM69Wk0nJEVNmt2HzUbeyHippJYgQR/ZM+x9QfMlNI+xttnH9xMXVzDNr/4/PxHPUuSYAanOz8GAm+quyicp2UwahBYV/Nb/8Bc9YN/fzB8npZuerdgXXJ1TSL5ElSqRMLcNEGEfI4xDWcA1JHmIoTnDkbmvuJ2ffXA+Pl3WbqTsASA/1SzNT0Z2qZzccW1eABGxrAMQKgfyNfl2S4WZzALn+KfYuhe07r1/cEDrk3iunO3eGnEqpmpUVhSuqv0kFtdSRj23JJbAXZjtS4Fa8LApfgz3yz86GS7UKkJDoZsFkEKpSJGZS0LEICHU1T8QRVIIhino0w+TdqdkVbtRP/xq+cOVseMtWTuA5yFnxcNngX3gV0buoa8JZ+DZJkiXB/qbfmnt9Zk2qA09/F0/+xlemj1+/U68eDjxXVPVs04aVUg1NU8zEDFSWV53M0++SQj1FNNHw848mBQhsxcM48KOzC3c9bziJFQzDAstFSukeIF2rKvzDugk7zeawghBHEvjvHDs3cMGBJwIg8TXSlSrpAaJsfhZhKMlwsBm03z0pc28HAD1hRh6ZnYrnap61UwHaeq9uH+Hj1rvZLXbF5vM/nArvuLbZUQYswxPPxTzN4FYc+GEHpmMjF6v3Lz7WAwAJLqG6ErnSKZ2xIX4bbhLhoB/io6NP7C1Q3746k33kJVgi1a9agZE5yNoRrEIEoQuAPtf1063I9PBwtb0DK2mZ9hBZCYBSyqKyZ8BEnmSwbQ+2YyIOQ6SIxIB+eH7x/tLxK3u32yaxA4D0ZHr5wlR8u+ZZywCoFBXgi8hKAYMaUlQJgAjMgxIA4c7rqwL9Pczax3/lwJunO7cIgKRxXFREtEhfyioVK8qk0gJmSABkILVyVMLt1wP0uVFSE1dPp3eHKyLjZyoLqYDYnG5JukrGceLzlPdei1zUWcFuhem1qdm+1B0nTr4SZM8edBfYfxTGMGxPJ7FI4yVrqpuIYZN8QbNUMfa2gvadV7dMEKr2/PlMYyk36sr15L7CThtV0qsA+EIPIzWAT4YdaFG3Quk02re/blSqPz16eitVux6aYi9cmkxvuK5KrIpSlo00i5AHTRhVtzBELfyMCLBX9OVxPA6GyG++Msk5NlCwsSoAVIogJHkhgpBJYu9QM2q/e3J6BwCtYoXeAUCrGKRN+pEdALRJHwwv67sXJtsfVozqvGsjE2MLG5VqFX4QAHQ7Z3O2bNwbeBRZcTa3ShwhgRYrQBkqSYJdDxZx4+zVJ80z8ytXzyafIkA6XNHu7Z0UrlNFmlD5p6TyLJNBSj+gfgAeAw/6UzAz3gVAen/WVTUqadk2lGUhpzu5MlBn71UcQCHF3ii588GxdTO5XLeH/OK5E8m9sZr5Ze8B+q3Zqfh+RWf2Es7J7iwuM9h6jghDlQpVZQWoES7cee3i+Lo9sBUnOnj5tH9z2PO6AIhZXYb2CT2McsCOZH5bsSUAKPlyACDsu3IyvT1co4yfFj4ojS3TTIvB0c+JFSACIMoaFxWg/a0wfW+yPwD0nbcvtn+dh9W2bcCtDSFstGF5HtI01g0nsm7S50yrnWX0PjBj7G4H/v1XRFhloIHxWszLI1dOfXazYh/q5JS1JsI2YDsWjEgLIbKHRxsGawcqI9eCPqxCjibpg+/Uxnf9H//d9560T6zFpQ/kN781PXX3ZtUbb1Wqph+GMGouvIqFTqtZ/L5WIrRSLUyS2GXCzcbYku8vvHaadLOBqkYemZ18MFd3x7+QAld4MUkF6DcBUOvdk9M0Qt30c28gD7CPHzkyO5XM1TxzpwLUxyBu0Fe37IKzQeO13qdV37h0enGuYg43LQshOex0m/YqWiWHFQmax23kwQBLKik6kBDJUuF8Z6jGCZ6PUvzy9TNCXPuCy1Rfnz3Tulc1qg3XQESw1/FhG1XxTsiV+TCHXM6xbIjaLwBiBaiUNdU0piIjW/ZZUYpcVHuIwlK4UYR6kmE4U+HHR88MxCdkIx/fo87dJwDaNj5AL1ycSh5UPJMBRCoAaAUFjs3YMqO13LQyCgBkpphoRv7d12Y3pAfowOWz/i0BQAJ7tE4I41GR8c6QWVwvMlix9iv5klSACID82yMVD4mlk0aFrYAhIpscpwIoshxEjxkjQS1iD2OYvn+iPwD0zXNT7Y9rZqXh2uwyh+nVRFUsTiNk1jIA0vRhKp7xgUUY88OlhR9M7xp0YLwG643afenYfGf3rtFOoCujXr2KoNWAJeIhxJ3aQEz78ubUdYOTZqgnwEgn+PX7Jy+8tAbXtZ4/qZ65eHbpbrUyFNDslL1mS/e1SWqxTvD5ugnV43KEAoBYaMzhtDr4RqLmfjJ5/tAgAccOAFqfx78DgNZnnNfiLDsAaC1GdbC/abw8ezL9bMRFy7Fh/f/tnVmQHdd537/Te/ddZsEOkCDFTaQsKdq8ZXFUlVdXXlKVxyQv2SqyJXEBBhgsMwBmsBCkJMexq1wVpypPqVTe8pS82FVxbDm2ZMsiCXEXF+zALHfp7fSS+s7pnrkAQd7BLAB48b8qSQTRd+nfOd19/uf7vv8nbMr6sV6UcwpFXbOyud+5tk/j2VMLoHonVdmS6jSOhsxo71KP3j525lMF0DfOzCxe9u3xjl2oXcIsScl2A94AJctyKM6k2rRdcTrdRAF0p5OsTSa0vSqRzfn6VFKZ8c55Rg3DoFYnor3L8dJPT55li9qRe20wBW5kBNATZ3QEiG2wi7oGSNUu6EaovIMtCkubfpi1ACppVzcOr76gemjc89fuczPRlXbgabdu3m3WC3yOdCqhbybqN5mFLmspzGLUa4DUeW579Uhys+U7fDPhSkpRSu0HoRy/uCdStUBXPde0APIzlQIn352a575W635989DBjz/cHuzqjHlWZtiUh4kej7Kg3Neb/mamI3IqAqTmk1QC7IkbYe/nJ84+0HVAf//k4Utvte09N1hYmr4WmGmiXdGKat+L+9aVuq5SN7POKcgymuzG0QdHtq4XzroHbR1vfGruWLww1nYX+CHCCtfiDctUBxvZKKgwyC50BChRvtr8rx1yk4R2RH16pBeXP545v2kpHRBA6xjEdbzlmfnp/HLDMxABWge8+/wWCKD7PABr/Hpr949OyCvKsjXgftREHJnwHNVV+r5Fqe8ggDLlTqej5q1U0mNRSq9Nnfw0ASQeOXc8vRqYllQOVQYFXpOSKKUiznSXbW4ep76nIlUJIP4Olbqy0Rk8+P6q0Z1O0qjMF5TRBKcO8ffnZCcxPSKNa++/dHLP/QO/xlmzzsMggDS4J09Py2vBQHGrqvnhKKHuRaLXOTxXuOZN/a8KH+7qpuHVF07dFwG08/xMdK0VeHzRaDtfTq3iKaytnXlhrWqBuIhNrcuKkXaBqy+Bba8e6d9scodKQ/VtUiYIVBC7SDIjZaXMSlb5n/CNICNXStrXS+R7GxRATHnvK8cXrjbssTxKSLQnyYlyMk2DQiNU32llllog54ao7nc5uZmkx3MK3/zu0QfajevZ4wfklZ1ta4nvmpavHOwoDckMXMqVq15VK8f3VNWIl+/1ObVTSfuXEvq7mVOflSGwzrvYvX/b18+dit8WmdtvB1RyhJGFoMy16GP7a5VdUKXA1Zt6pkPUXaSJhkPbbizG70yf9zfrl2+wBqh74Yhq5owUuCEDAgG0WTP23n/ORpeP9/4XP6Tf+PXzJ8tfeiUt8sPDD4gbMBZcC6QiMHe4R9Uju9WGolUEyMy1za6259ab5PyAezRM6PVDd3zAiV8/MZ2+NeZaiy43YLBUOgBlBXmOT1kklQBKVT6+clnQI7/Ztt91yIdzhaoUPn5I1bvDtmFSlPTIGw/IyCWJmzfp6dK5/rdT8ztHdSpCAOmRfXbusPyo5Vp9h8VCvYNdRQgqAeRwDRm7XCkBpMXy7k6cXHnpFC9ktvrq+8QUnHh1JlpsBp5yO1M6rd450AKoNBPK1WZDFdQQJTWjkTdBoL3njsTXWr7LfZu45sHgZqe8pcENNtXuSi2AKrc8Q9YCKH1van7DTW2fePV47+Om3Ui5L04uSIQF2YZBKddkEZHDYe7SopT7FOkbHVlFRnbSp+fIkT99/vh96Su1hnuc+NLLJ4oPPYP6jkNlLMnzA0plqOqoVBSI76bslqhCpfrceC5ujyQ9cyNO/3z+9Ib5ruF3bvkhXz56ML44GThLDVuUfK78bOR6qModVc83/TP4saNxGOrWQlmX9kSye/mFea672ZT7BgTQlg+5+oINCKAHemPj3tC7v98CAXR/+d/Nt1vPnD8uP7ANSpoeUZQTOY5q6nfH170SQFUvIqUjbhFABbXTnPb1IrowPc/B/ttVmvji6SPFu4FF2XhTNY/TYR6TRFaQadqqzqnkgmV+raT6beKGlBJW1eephpZVoW5dlEwFlVmmilmjuEN+EtMXrMbF156f4VztkX1BAOmh/drsVP7uhG90XVubHZSi6sNVql16TpK0OZWJYz8OTya2qi9pRzfNrr14ghd1mzhZ1zTdxMSrx1gAuSrSwUK+EvUqqskFL0JqAaQaKeuN94dBAO07eyy91nLtgnfjlejRAmhV/Oj7jOorxrv3nAKnXeDSdzdDAJ0+lHzQNI3ccy2yfaJORpZhUGamahTsjH9TJYD4X/BP4Ia7pqRd/TS9+PxJFtT3ej6tZdKJffNHspuBZ0ifbcZz3TIgXia74ZFklsr8oBJAynyvJKtMaXcoOx+/NMtpxA/iea3l3G855rdOHuv+vFH4i45p2l6TZJzqWiB2WqvOsN6P4P523FE1Z4Odgu3zJU2GUX/he5vn+je0EepnmyAgArTGGQABtEZQD+BhEEAP4KB82k/6h4cP9l6fsBuLPrsY2WRYLhlcNBtyF2qbTMtSokG/6tzraohv21O6pQHoRhjwzZ33sVQD1MEIkBZAuzshvXX09J0EkL37/PH0emCrh4B6BK4s1mq74dVTWU2M5rSVjfzg297LBavs2mO6qqRK/Y9pq2Z2tm2RpIxsysjiHO3CuPr2i3Oc+rYpO3SbeBab+lEbFEDZm4dOcXjhc8/o1w4/f/2tXa3tS7ZBwmlQ2U/Itlxdu2Hq3j/cyd60LUqr3lxc+zDWT+XyH/+PJr3xht7ev3cvsfMHM/KabZmm41IheX+Zm7XyaLCJA/efT1URNjtKasH/UAggsfeVGXnJt01uEFsUnJ5UbSAlmXJ5FOzCZpmUc4SZN5VERs0io/1hFr5xYOPpjM+dPPjx+y1zWzze8ogXxoVHrmlTUoQrAigXFmUcAeLx4ts4iweroPEk7S59Z4ZdBT9lt+veTbA7fJM5fuZYmLYbTpjl5FgO5TKhVsunpe4SUdNXdTDkt4n6EZFlk1OWFOQZ7ez0l946PDdKdZTGo3944sZHpZywM5sbPpFk629ldlDZm1cPMu7LpQQQ3yV5zNMu7XDc5ev/7vBmmV6IKgI0vk4XuM6FIydHRpxu5RXyzPx0cbnhiXXUACECtJUDs4bP3syl5Bq+DodskIDx3MvHooue4YigRcudDgnHI4fNjbKMcnaEUz0seH1j64WPWtV/cjm6GQKo7l+hi1q185veQdWpai0WQL2I3v5kBEh87YdzxVtlQrHr6fdUWW4qJWCwDLSq+ancYrWT1WbO2jQiIwio5M7wjqdc9diitsgyKqIekSuIq652y7J473eOcy7USOxWftY8fGr2UHF9oiEedhtsXprs/eFMeMlh55GSTLel1s28gGabd3WdFYKEyYtqqdM084x2OQFZ718Mv+AGi392/NSj91AMGpNzU3l3+wTJlBfxHMqsIqgsgDjeIdgEoaCC3MrWWzwMNUDm2Plj/d7kuJuHKfmtFkW9JV3HZftUFIW6/tW90uGNJEEiS5hLsacTyQvHX96MBp3Gjh8euXrdt7dTs0W0lKh0X3J0DErZ8QuOCFVRaLUhxEJVkpdJjpZc+eXBOY48b6pV8gafR2L/zIHldN+u1rU4ocK0yDFMSqM+ObZBpSVI5pLI4bnm6vMtClX0Px7H2dVDc8z1QTqfDeIg+o3/8mr5894ilYVN0rBJcgRIRfSqx0b97OJaKHUlCjIsk5RHxPUb9ExSpr84tikpgSyAFi833bF1CKDykW7KESAIoDXMCAigNUB6QA/ZzKXkA3qKI/ezjKfmD3UuiaJRjrUpihIyg4YWP7ZFjuNQmrJjGYdkuOryzqYymyWAuMCTI0DKuagWQHplSI00p8dTotdfPHp7kau5/fThbLFV9fzhAtFqlcg5+boApxq3yl67zoCrc6g3a1RtQ5BMU/LcQJkvCHZ/411gjmE0XaK0T95ip3iqk/deO/Eq52eP/AsCaHWI982+WIb7dlAvJ5KpJMt0VQ1JmnH9He/uDvTI5LmbJiRkStsMi7x+nyYMcfHnU6fvlQgyHp0/nl/ybTIbDhWmoCyrbPJVCh9vL7D7WUFlqcsuSkMMusBtSjH6r5048M5VS5r79u17/M//5Yt3iv7ey2vIfPzl6ZsL4+NjnThRu/Ic3XXbTUriUFnbs0i0ue4wy6gsMqJMklsUtFuIdPvNTvST2Ze5GHzDr0fmXly8PB40ctexKTbI9gOSMlTjwmYaK3bR6mbIaWMl+Y5BcWeZGo5Je3IRv/3d49wXaCtEg/rWf/6jl6/99+++tHuNGz3G/h+d6n1YpD65PpHtkGCb77KgQnLwsyDhshFC5VYjc/J8h8ZlTtsWlun1Y/ObMt82PDCb+wHi2d8/ufyxzFqqJoqzCdSFptILKuOequZMPeMEkZqXFo1bFjVvLt34ePoU15duNILOAmj5ctNtQQBt7gDf/mkQQFvLdys/HQJoK+lu3WcbT589miy4piU9nxJhqod3wTu83NRMPTs/+/65mQKIxY4K1NxBAO3oRPTLI7c86IxvnTyavz/u06JnEkluiqc3z1UD1VoA6e0x9eBYtaa+1fVt4y5w3Iwjo2arQb1OpPLXJ5sT1EtjSjnjPu6QY4h8Vy+9+tGBs7z7utGH0tbNiE38ZAigVZi/emZm4Y08nOg3AyLHUxEfXiTbvqeEs3J64pQqnrychsrtorKUWp5D6dIiNfKMxiN58b2jr+5f46JyIyNpPjo/my1PNKmT83xOiYLK7KCoG83n6noSpa3qX9i+uxGvmCBsxoJU7D394sWbTStrtFstfzFe2NaT5t8dOfNEneS6kRO8i/eq+NdjLx9YvEzUTIM2kd8kktptkpJI3XRM7vHEKcQ8tqZJhm0RxSF5cUoTvejGx8fO7tqscfvG/KHuO02LwkajmYUZEfd1q4pD1D2urOy464Ux38PDkNrjberIHgVZTvv7efiLqVO8EbNZ6XDGt2YPfxBn2fZS0KLn2O5PjsxtX8O9TnzzxJGb77SNiWXLIDNoU85RxzQl0/fILHIquIUBp8X5DUqTnDzXpbi3RNuzgh5b6IU/OfPqfXFKvIs5tK5Dv370hUu/nGjs6QYBZSxs1XhqAaSdGdkMT4sgy7IpixNl+GOnGTWlzH/Fa5h/+h+e3+i1yAKoc7npNiGA1jWMa37TM/PT5eWGR0iBWzOyB+ZACKAHZiju+oeYXzh9OFtwfeoagrxGQEmaUi5TshqBSusoeHeTC1Dv8NoMAcQfy70r+MauHWTrVDj+Z0M1Qt0fFfSLg8dWd4G/RM4T/+p4ctF3q+7g2hGHHwxaAN1qea2KRVeiQyt127qhnqo72ogVdl2ZmpFJDgWWQ0U/VrUAkSUpsAW1l/sXnyns5E8OzD551yP0OX0DBNAtA2c+dXY2XtjZthaymEzTpTyMVKRQ7XBbpk7JVLvcuV6WqjlcqtQWt5DUiFNqLyUfvTd7nkVAnUJZi+nNEtUmPf64/fgLvxt9kIZktzySFvev0n1/aEAA8R+tjCNAXIR9Sx+gjS661IX/yI9mP7xk5+1CypYpbBlkRbrDDRbE9UXj3ZmXH7ttcb0ZHAZjxsra5AtnXloMfbPRz0ryd+ym6122m7bJM3xKoj6JpklFydExVqxcx+VSniQqRcsxBD3uNsm5dOXma8fnWQxsyuvbRw90LgTCuRm4rtOapDCK9c1vwIulTgdWfWNKIt+wqR91iRxBlmVQsxfTI2T3X3vhGKcnDUaCao7DnumDfy92nzl8eUnk2yf8JgWlSXYvin8xfZKFybBUX+Pxc8f6N9uu17XY7pl33UTVZLYgI8tVfaohLErjlIRlk2EKClyD/Gs3O9em5rnWZbNE3KaMzyZ+iLHn7HR4oxW4nAqnG4PzqaoEb305svWbuoeUqgZVmB6xkaRPhdwl82tvPT+90agxC6Du5abbWIcAoke6KWqA1jgh1imAol9Mz3E0d9h1tsZfgcPWQ2DYzXI9n4n33CMC3zg6tXx121j7YpaSxbnrjk1FWarnUMaLMX5tsQDShdQ6tH8nAbR7Oab3jp7i7Wf+QeaTcwey64FLPbupcsb1v16N8qgUt1rxsD1sdRrsuqX+TpcykMEuSZVoWndNUNWviB/M3Ccl7/ZpojlG/cVFarg2+WH/8qXpM3vv0XA+MF+zQQEk3zx06kG17F0X42/Nn+j+NfU82ta2VLI+p/KwA6PMKU5CMjxON+PdfJNELlQaatLvkcnteKIutVyf7G6f2pkRNvIyIN4ptyxpS2m1+v3O/zn3Q15kD0trutO9Wi38v37qSLewTe+6lLRgB1S0fEq5J5HqRVLJjdp+ii8cEmQqAfSJRqgbFkBfPPz8+5e3tyb7bb+dc/PYKCXf9yjqdWjc8Ut/KbxphqHd4jocGZaOZ4siTYSdU7p/x+6J//VvX6gNNNbybFLn/5snji0ti9KRpmmILDfTwKDFlqDlPCaDHCoKhuAS5Sa1DJdknlLaElTksbbeFwYZpk1FVpBhGdRg84iLV7vL86/eLjLWNX8G3sQ1nFc/tml7avuUcAqlukezJ3J9VF1DqQVQITNqtdvUS/pUypTYs8VPUmr0UtrpNyjhfnDrfPVso7zmm0K0AopvLpJfmrSjNLofvnh8aP+XZ08cvn5lwt2+xKmgXNMUFsTGG6VrU5FGKxsCBnF6oUcp11lxPVAe0R6Z9y6/OMcF4CP7euzYgRtLO8a3xWSpTb2cHRiVAOKB5iTUKnW2zMjxGpT2eHPFIoddGXu94tFOuPDTufM7NgCIBVD/ctP1IYA2QHENb4UAWgOkB/SQtTxkHtCfjp/FG4c7Z6evpvt2bu/3+6omwXBsSuKIhOuQ4K7itQnCbbg2KwKkd7H0A1w1uKtevJPZkBnt7aT09pETyjzgywe/c/Pa3vHxZY5WxabKGSfehRWZEjRqI72akXVanM11s0QkTU7XWY0Amfw2ZbywgQiQ6ofCYaRcLY4sfoDLlOxeTM9YzY/+7vkDt+9WPxSTDgLo1mH+1ZcOfPjLL+7ac72MLHZfVCGeXkR2UZDnOpRSQSrOwtdCwY02Lcq5Rxenx/HuOPdCCXvKbcwrLTLzUlkFq8LoMiNbUE5FaWZpSq7tkGmalMYJ+T7vB68ucGuhX/XrpNwoKJIptSbGaLnbJa7DEP4Y9fohkVXtElTXppnrBVdusTmCQVQJIGFkm5kCJ774ysyNd33Tyyw34PRWW3hkGYKigsVGTtvZGavfJavpK+e8LErJKk0+765liixP016exjtsYVqOaZUlN+6pO5TquJoWblXAgQyRh6k0S9dR12/a71PpmiR9gyQ783k+0XJMrjNOZsoNOjNiFRE2OG0xVpELmy33eVHKTY+LgsbIol1hlr518MhW9KcxH/+DM/2LUeIWnjsQweZ70WDtYxUryHIyPZ+cKFP3qcguyG+4lC4uk8c9hQqx0iLt7k/8awAAIABJREFUbm9OOT8fPJ/ifp+MdkPN5yBMaOdyf/nNY6fZde7TdqeNnT84tngtMNv8nYETkIhLSrOcpO72qQSlodLgSirYjt33dDTSyWlnN5TXvjc3Upskd2Bv7DtzUi75rhGpYdICqG7nYObapKgouf7H0RHaQqhbRRD2aXcvzN48fnYjbposgMLLTddbpwCCDfYaLygIoDWCegAPgwB6AAflLn+SseP08UUKvHYvS6j0PYpzSc3WGPWWl1Ru++pr8HlW//OASUI9G6rdSO3ypt99S6pZHaFRx+sIEC8c1PED+S1+VtCubkbvTc/wjTz/6ssz+Tt+TmFekNveTUmnT6R+nlY5gzU9tQCqG8alvJiso0McCFqrAKoiVJ9kWi04OM+enbJYKPLOviFoV0bXP/juEc7936z0pLsc0vt7+NMzh4prkw2hUluqBSebXSib85Ux4MV71TtJTYOUGlLSvn4m35oaucWN2HP+aPdy02yoGW65JOKMAo4G5ZJSyihTBc8cHeK5LMjjXW8pdeYZTyOXt4H1HOM0ujJh1zihjArUJoDBNsw2lVwQzfPbdnRtil0VUddT4pY7Nl80nEgkdSNhDvfkWlgZgUtFGlcCnzOtLF2jpwqA+LewDbbOvWrGMT3aS+nCkZMbjQCJx35wcuEDkmPUnmDHbTJlqV3WGhZRGpNVGkoTxjImcl1yhKNrqUqDSt4N911KlS29UAYNXFTP5ipGqWsb63tEvYGj1tuWqVzvTB6DXFLBkQZuFaA2NnIiu0lmWJBbWur+FHMvJBVaLkiUJpUcBSpysnnTSEpqRGmyXxrWzw7PMPxNvwc8cuKlNN0+KZaK3OKNIhZ1amwG039VPLASz4kkLzXJMgX1LB4/jiDy+VUhcDXFqvvw3fw/z5iM5zPXHrGDYUItw6LxxeX4o8NnPi0NTvyDE0eWXt/lt5e4zswJiHohWYajIkAJ41I7UxzV57G2KWFhyZtXtiBDhrR3uX/j40MvbyS6cX9vkGv89ifnZ6Nrget1OWynNttYBOmaV7bAVjV4nAXIRirskqc8sQtqU0HjUT/88IWTLDCHRYY/7dcYz8wfji42XUc1clY3IqEiUHw9aTGm7+Gqbpi/WzU1z6iVFpwCBwG0xnF+Zv5w+XHLp5Ad/4gbHRdq70sZqqh9MUubAPK/JEmBlMw3euswUuDWiHjLDoMA2jK09/SDxVfOHO8seKK5wEZUlsUbyiqvPWN3OC7u5QUWp5GFPSLf0Tc/1TOosskdEBdVvSa3oKA6AsPmBLy2Uosn9YCrzq9K3zALXkxoIwS1gCuI3JyoHRV08b/+N5f8N8rH/sXp9FIRk3QdMrlfhEo/+ewU2DqqtNLQvvpaVQNUZ/es7JzWYo7vPvovuVaDd6AlLwZ50cDpgoFPWRKRYTpk5KbqlZKVCTlZRrsKWtjeS7o/OTr/+D0dwQfny8SzMwfzqxMN0eGCcF40qk1dofrHcNRBFWBxtI8fntXClB/u6sbez9K3ppS97aYvHO8nom8ef+nm5THHvETZmDE5SUVfki1MJTIsx1RpLmoxy018ubA+zTUjjnKqa6tKc+J6t9xQ1xZvKqS86BjYg7graoPXzmAK1YqFYr17oR7DWj3U14pyGdOjNJ4XtP36Ir0ze2ajAsjY+4P5a5fNcpvrNynux+SYhp43fCPh35tVqV1q42RwltzyBz3UKxstldge3HipTo2bvfJLRY7Vbk29sKtuEHyPsxx1jRdRSk4QUM7/4V4//HeFRa7rUSJDcixBXpLSRCIXdvcy+y9PnFMRjs1+fXXmxatX286OrmOKonBUbxxZ5FqE2EJFCkuOINqerisrtU22clkXLFb0lFm5c1YLWX0vrf6mjsyvHFlH6ut36s9zS0O5huYuG0AQiSii3YlcuPjSHAuUO92cza8eP5C9PeFT1KqsrdVYVAOixogbBnOfG4MM5SDP4q4kS8a0I5XR5RdPcvrbehf2mz0cW/Z5T5051r0UOM3Qr8RNnpHL9uBFTqmMyXAdKtTErTYv1JwvySgy8vOE9nei3oVpNQfXcy81nj49FV9s+nbImyhVI2ctgDgKzCkX+roShkllLYCKQqWA7u+kvQtHTrLZBmpUhsyQJ89MFR83fZE4vClhq8o2W6WzVNF70+JguB5mIclVAkhG707NowZoy66+tX0wBNDaOH0ejhJfnTv0/jXPeixpNWiRd5iznPzx7RR1OnpHmXckVBoZX428MOBd2YH+BPXiqFrjDrqz8eJOpeCs9PkZEEAF9+vTESC1QB4QQF5S0PU/+GP/0e/9+6iTJxRahtqdTrg5HiuyT7HpXgV+6/13Zed34KmwWgM0uJIc+OeSO6qbyhmvZKFmCSp515kMsgubfBZGYZ9aqbx+8fCphzbyU4/os8cPZlcnW8YyNwDlByfXjLBe5sCBcqXQAkiNhfp7zvxiAZRzJCF9U/f3WM9D+0G/zsT+/zh742pZTKa8WmSTA9ukOI5U/n6eZWTZtt4/yEvyfJ/ihKMwA6fFYrKKdipuKoVzcN5uEgKOBNSv+vvvdLcviMYyop0Ly/T2zNyGBNBzh194b3HXjj1LruPF3R55Y23itD7VM4kVn1IqfP48r/TGS65qktb/0iYs3Oy11Cs1tdO+WlPD6YQ8LnpLliMmDJ93iXJyWy2SMqciTahpm+RECU0k6aV3D57aasdH8aWXp67csM2doelTxJOAe8E4FmUcGVPRbjYW0L2ceJNB6zsdLeJXyYKOBdNnbSDdQTAOklbNq+OcPM+jqOD7cUZN3yNvcZkmr95cfOvcH7IIun2AzF975VT2mlVQ6OsUvBXRyZe8tgMlk39zFXXg+67lGOT3Q3o2F+mPXzq6FamF659EW/TOL56c6l+fGLMWor4jxrdRmSRkKqfWggo7p7zg+ViJEx7hleszJ5MSeqSbJB8cmGc/0vXcS1kAJRebvqUFkI746hokFqRsAKIFs8EbOfxbeM5BAN31bHj69OH8w5ZrJBxpUwKoGBBAhrqeea+35NA3C6BU0v5uEr19CALormFv8hsggDYZ6P3+uN/+z79f/sXVX/a6k2NNCgJKr3ep0RijOI7Jbzaox70vuGkji588J0fwYuTWFLd6c7haW6xGfDhbjBcvg65s1R+49wN/Ti1GOHLDWSZNsujaf/rDJ7b963/zXu6YFJklJWoVZJEweDdsWARIE61T8W5bS1JZLR713+vFj7rF88JApZTwYiclcnyd/69SZlxVH2UZBsm4T80ko8cy88rPp46y4cF6Hjb3e9g38/vF0zMH06uTLUtFgBhitaOr03T0A5THV41FyalVOse9JSU92pXJG9On1vvQ3szz2KrPMvafO5ouNn2zy/MtTcmYmKCiE5LtBSTZSUx5jwgqVfoVp7dUKSf1Al39v17G1vurg6ldt6d6fdqfV1ZMdRSu2tsYvEZ0ZKQyDhmY2TqiygseomZS0t5On946fmojPXvEN8/NLr3nWH7Xc9nyizIWf5xeyudfe9nnBjkZR8BMFS1OLalE0LrPvxIH9WDra7/my4qdBbsWPHzP872Aon6fXJ/d4LpEbY8oiandyWh3JC++dXx+o+5ba5134okjzy8sbt8xvmgKMj2Hco4Y1gKN3Tw5pTLPVmp86rqnlTFVU6gurF97LWS9iUSlSYblUcbCMJMkXIvKbod2Oy6NLSznbx49x0LlEwLoySMHsks7WhT5vk7bUg1b9Rxf+WxeWBcGFTKnZtAgmYQ0GUU3Lx6c5R5D63duWCvdB+C4f/ZHf1D+3+4CddoBxSmnvtokVeYBkckeKizM+Q9VdKZ2/tPRmYR29ePO5Rfn1tuMlFPglADqVwKIhbR+Rur0zxUBZBiU5aV+HnMDc97I6iS9N47OIgK0hnn03Klp+XHLs7QNNl+zBVl8/+cNZ74/cRS8KLUAUimGHAGKowtHkAK3BrxbeggE0JbivW8fLnaenYqWbMN1WPwkkizL0SKo0SKZZ/qizHnhoReztcjgWyQ/YFVKDy+Hqgy5yqyNnHxVMK04s6mF14AFttq1LMjm9V9aUMP11A02zCVFVknC5Z0SQ+2IfaLGoUK2+iBdZViLoJXFjopK6SlslJxbrc+FxQ8vyjn1pt71tTxudMgpOCVZpkOZipCl1LaItiXy5vsHTm2a3e19G/XN+WLx1Oyh5Mpkw+4NCCBVYzBQxMsRPyU5eQzU5MmoneZKAL1+5MQoCyD65szhax81rR3LbZ8SrbJ1DUYUk+16SvzkRaHTrFQdlSK1uluv3lIJf14DbYLkvkNFX/2t+vqofsUtNX2cGGZYFIQp7e+mdOHYiQ0JoC8cfb7b2b4tWDCEKLlAX+0oV4utOrZUGOTkgmxVTFaQtKSOEK3zVb+TbfQ5QrIyJ+totdoD0Sk+rmlR3OuT43nqHmj6FmVlSJ4w8x3X+8lHh+Y2UnOxnjMQe8+evHpJFDu8dotkmVPOBjatplpElakkk+ugqp16tXPPmw11/m81rW6PH95Oc/DvB++hqgaFt6b9gIgNCtgNr+BIblpOxkn84cHTt6eqqSTox86eiC61XEvyPV84uq+UaoXADqT6N+r7BZFvuxR3utS0DNrVi+U70ydG3fxgcB4Y++dnbiw0/YmezMhuNFQWQlFwzz6OwCj/9er2YOpInzKJyyk3UpqM5cLC92e5Kep6wqTGs3OH00tN3+wpAeRW1wePUy2C9FdzBEitBTjNvSyoLTNO0eq/cfQ4Xw/rvzjXc0V8Dt/z5ZNH04+brt1xHSqFpTZ1ubSz4BrEmq82myTBfJOUHukl0WtHTyIF7j6PNwTQfR6ALfx68Sunj3Q/CIxGjwuw45zcoEUc+U7ZeakRKPeq0qw243iDtNqo5bWJ6sejHnf1+k0bFfAx9YJNpURVERgtPAaOr9LgRJiSbzuUSEl2w6eY8++5CaEXkOW6qgncLU+MajH4SWvruqHcwNHq++paBs6d1gKIo1H1jjLvavGL89A5WlTmBdm2q/6e+xS1uktXfzl9lncl8dIEVgUQF+/qxOWBmi+d5sICSCVSqsJORZhaCafAyfiNaSWARvklnp079OEHZvFIxIvHoEkUp9RstKjHbmy8mAh8bXLAEYiV1JMKI68Ya0GQGaoH1npeOvKmhVWtp1Zq5Qau28EFsEqb4lFVWWJC1eI5vbh4LCzK148os5L1LnjEMyde6vYnJv1l0zB6iSTBLmcr0YH6DA0yC6GiQPwTM4ONNdYHYKUeTZmocFSJP1uVmVephdpIQS3s4ogc11O1QHHYJYNtzEXGVtjFtqwsnoht+VeHZ4P1jMMG32Nsnzuesytep8xJOuxex5HBkkil1PCn6/NbiSQOPLWNQtfo8at2B7z99wyKnsF/Vv1peDOKRWptBBP3OE0qmZRy+cb35+qI+IrOfGZ2qn99z6S7yCnMzRYZ/Tq7UW88FWZ+63OArb57XRo3bNrTjcILR+dHsvnpp82Br5w4evFS4OxN+N6QxiTYqIPHN0+JVG0QG4DwEJvqPiDYbIavCVMXyz8dlvnPDq7rujSemzucXQl8oSITBTsOVumTSqSuBuEMw6KS+zaxGUKRUSsraF836V+AAFrTpf2VE8flxaZrLbsc7bd0JFdtJVWXDa9B+BJj/mVOY4mkfb0k+vmxWb4W1nfzW9Mvw0HDCEAADSP0Of/7514+Fl+2CiqCwI1lQbksyLJ99cBLOB2uWRki8E50JW7UwrYWQPX5q9xuvdDS+ej6gVsLoJV100DKjTK/YmtPLgKUkhKZULBtQln3ltwE0HH1g37g9an23HWdxKDIqnPx1G/Tv69uqlqnxHE/JO6ynaaxikT5hknhzSVqWi5tL8ul16dm2O4VN6HVMRBPzR5Mrk027I5yL2IjhFVTCZ1OpTmrBTjf3FXNRUbtJKdHenn4xvSJh2GRI75y9thy7AbmUp5l0qB2ZhvUiyOyx8dVPy5umEq2bjhad4BXy9lBRaJdg9f10psEOv1o0EFRX6TKhmh1AT3wHaqSpNphyE1Bdj/qPy0t8frUDO9IrvPXkPjamcOdj5LUMLZvD3pFQZmp4gJVSir/1qq2pRBksRmCus9oIb2el0rHXEmt07UyFmcPscNWZY+fpRGZTV870cmYfDIpYNEexZlvCNkQBnndfvdnR8/xJsh6f8p6fv7Ke/7xufneR/1lGTfc8bjlUZfrmTyP8lSuXnuVZtYOXoMbUzpEf8v43+F+Wj/obxFAzIgnJvNY6pLhe9QIHCo6nf5Elrv7U+r++eFT3LC05mI+9spM/wM7d6k1pizEDamZ8xzk35Ypo4164aejGU3box2dWL7/3WneGFlPNGNDfO/zm43Hzszm11ybYtsi13HUM1NGPSKHN5cqIVIZyvB1yfO6sDIys5z2RSm7wXEk7m43JowvnTqcX2lwzz1dm8LJkny/rjdN9LBys1quNyvVNCiKnFpZTnv6Se/CEaTArWXufPnETHap6Zgdx6KSN1uUpS1vzA4IoKxUAkgUBbXTlPb2ZPjasdmN3G/X8tNwzBACEEAPxxQxnnrl+OJFkbWLdosSmROlJQWtNoUyrGp8dD3AymslZ2bg3ym769XH4R0fumpHunoPPwvzUnUEVw9p0yTJi0J2geMHvKqXuHUKfnIxWKdYDRy6IoKqnPn6J67YMg8UlPKaS/nuhtTKS3IWO+H1Pzk/Rn+qHsT3ZcHzgE858fTsgfjGROAs22aVYlileK0svgYiDpXLlFmW1E4z2tPPO29Mn+Lc8YfpZTx9/KV3++Pe3iXftFLHMrIwJctvUJHwFNN1VLXZAc9xdvVSC0Y2lajDN3dLrKrJ47fd2kBYFzerhai6jlevWx3B5cWqoaIvJGRkymz5mdKzLvzuUU63Wfc18U//6JXy9UtXrvVcy5a+PxFbBmWiVCm1JfecUQHFai5xiFmtv+52XXc7JG2CoF4DBhNaoJdkNRwK+4sqkOlaBtnLPdpD1sW3XzzNtT7Vu+4W/JYcL74xf7C44hnhNcqCzAu0PTLb6qrolj5Hndpb5TSqosuKoV7LfvJVj+Zto7qy0ZTG5LgONfg70oxEJ7yxy3Wzx5tju//nd75Xd6pWt+/fmH7x+oc7g/EbgWukuqqbDK4jUpthVfqbcoisIsT8W0mSLwvad7F7/Z1zP+T59dC9vnLqyMLltjexxN0Wwlw1LM8sk2yfU7F7ioeuqOQIJrsmKn9yFS0Yj1N6PMp7fzt15m7d4Izn5g7k3HS8a3N7Vb6X8z1nUADpVEWb46IyJ4v/rsyomRXpzjAO3zgyx+J3oxfoyI/3s3PT2dXAM/u2STmbrtQRIO5Dxi9VF6QjQGaeU0Pm5c4wXX5z+iQ2X+/z7IAAus8DcA+/3nj2lZn0hkPmEt8OuWcDpzFwKohaoFV527elsX1iiaBmzKrL0iciNrUAqh+4RamcsVSqm2WqBnnajY0XfpUz06c8nPVuZR22H7gTr0SZeE9rdQdNLzC56Hpwiz0ns+Bmj5K2yTzameTX/vLY3MNqcb2W6Sa+cvT5tNP2rY7Nlrva5IAflCvNJ4nTDG/9KLPMqJEW3Z1Rkf/NsdNcuPuwvcRv/9H54sLS9WvLoiBp2zslp5YIm3LOsef0SxWV4ZoOLYC0CUDlqrceWmrXWL9RReKq61JtwivHa10Lxxb1LHyssiQ3E4VRqmYxy4XIqSRptkrqPu229vzv3zm4Wc8D40unj+Z9g5Yyg/LUNLZJkygyDUo4HZd3R1X+1UbkVnW/qt3ueJOlCktzPaDCShnlhSSfPWnjkMaojLalZfSzqXNc77duobeeobqL94jHzx34OHTdvX1hUVHNHXZj1JF5oe2y6/MdNNi405fcfpbVn5UILwpq8rb/co92kNO1++HSayfP1c2f6/h6/anGb84eyD90S7lgm4bfHDfjmJvYVvfaFaGr7w0u11sSUWqX+YSkhQ+eP8ERtod1MS0eOTN1M3Ttcd/whMxLSkxBknJyquJavs/y04zTQ/ma5Y0Rnr9eIqP9krK/nTrDm0p3M2eNr8++mN/0Heqp/jQ8f7S4ykVRVrchNVZaAHGEghMysjjIy3BHKIufzJxhR9SHdczWfMl+5eRUueC5FHL7EVVHxWqH/UEyLWtXBJDJafpJkKW9yVjmPz965r5Fndd8ciN+4GY98EYc08icnvjW8anu9aZpXbEyN28ElPFChDu22w4n6qgd24KLt7l/SZKSaTjKPc3hQmLeObZNKvnmLVOdR8/uQbe5yN3a3+Mz2N0++wYeznoBp1M7lGDiRY3FNrFcXJ5TEASUcHqLY1LCNUVkkMVmC4IFEHd8T1QXeLPfp3Fu7JaWN342PbOhHe6RmQVDTuTbB7/fjZqe6IuyzAUvJ3UoQa1Xq7oTgzWsoNI0zVJKKYyiMJqGSFuh9P9s7hVO2XiYX+LrR1/odxpuclNkuTExvq0bpyXZluCC44QLoh1PNQCta9TWA4trBXThQGW/qIxA9B9Z8Lh5UfppeTNg0+lImoFpliItTVPK8Kfzp2ur59sXuuv5KZ/2HrVV8e25E/0beRQtOVQsNK1tIffLYIckOyBKyhXzgrv/4tp1TEe8dAF+nZJJ5OQ5jcny5rasoFYnSv7q1Pmttre++1P4lHd8a/qFbr/hmwuWKLJmo9HJUmUewyvXLE2o4QTUC/v6332WjTrXozkOFakkh+/pZUlZxnbXAWXLS52JPM0nujJ97eTLe4YssMU/mfpetth0ex1i+zJb8DMjz5Unnbpza3+ckqySSoedx8uCpEF5EEnrr+deeRg3RVZG92vHvnc1cR3bFa6IM2kWnlPkeV44RSZEKYRkt4tSGGwfrljyPonIc7PMwnY/Nf/f3F1Hz8RvHfidsNtwo9gyClFaBU8dfpzWG1kcgU4zKSbb4yJe7pNtGmWcpaJt2Ya71Hf+4tzvIUKxhiv6Nw5+J5etsaSTZbnteVmayazV8vPFzgIHRml8bLLsdENyTbdgF8C2ZZHd7Xo/Pvt7MF5aA9+tPAQCaCvpPrifLZ48dzBcMlktOJY/NiEuL91UhduSZwQX75kOOZY2KfBMR4Vve70e2a5Nkveq2LY1jYnbiPKrzrn/xCkPpMPx330yYjTwjsE6hXohx7sqea5y+LkrPL9s26YoTMi0hBJA7Ojkew0K+32yXIcMUVLAKT4LHXrE9kp3qXP1ZyfPwuL6wZ2Po/zLjP0nnl9qTE7GNxcWzSAITJmXBtemuX5ApVQLSLVPqI2MVWUMx20qQ+cqsqP/frXRpdrNLUhyjikVZWVOooJ13HfUKsrMzal3YVo19H1QdnHFF+cOXl82SmpOjJXXb9x0Wl5bCHZjuKVh5x3Pf4BL3cA5J069rBfguiZRLfD4fHM/K+J3D576vF/34rHD31/wdm03bnSWeOPHNIrSMLKCXNelKMt0yhT3VWJ749X/50IvciyPorhPprBK2xAUdiOa2DZGSwvLyZWZ0w9yJGyU7wn36ty2cnPjXp3D5+F7blvlfB5+Mn4jE4AAerjngVovPX1sKuztHXMuh8tEY20uiyQrzJVFKgsdyekWcUTUaJCRs41n5ZaQZcQaitcb2UBDUy1yqtqdOhutcmarIzvKMUjNvttNXFf7lqjZqXaKbSIpddoHB/Mdh7I0p6DRoHC5p2qLChmT7dtkJxm5nb7cT1bvZ9On6m7md5M68HDPCJw9CIAACIAACIAACIw4AQigER/gNZ6e8SuzU93FplUmDbexyE5WwlU21X0WHpxDzCLEMokWl4lcT1nKpnFILH/4tWqHXTct5ZSUAcerSgDVESBOV9GqRNeWrLzqf65rjTJJxA33uJkpp3CwrTCnvBnccTkjw/RozG9Qd/EGbbMddli5/vZLJzh3GaJnjYOPw0AABEAABEAABEDgYSIAAfQwjfbwcxXfOjVdXA1Ep9N028tJREGjTWkslRtYkRdEDU+LEdVgnYv6KpvbKgLE3b9VlKe2ya4bqVZ2v7pZqe7/wS/dvLDO369+oKocqNzkWHixXfdKnrtQgSDPdimNInIyQU6YRvttv7CuLyR/c/Y80jqGjzOOAAEQAAEQAAEQAIGHlgAE0EM79J954uLJ89Nx3xSpTLLStJxWmObkTbTpRtQhq90kkbEZAYsUttdU7db1B+Zs2aprfZTjTN1MleMxyolKC586Bc4s2GmVa4jqlLhaBOnjVOVDGFGr2aYsjlVvjMBxKY/TomVa2TgZ1954fno/Ij6YyCAAAiAAAiAAAiAAAmshAAG0FkoP9zHGPzo5e6OXFWZsk5W6thPZZCzIyBCtBiVVT5EVAZStTQDpHiSshCxd/jzQD4TFE0eKuJeHkWc07gYULSwtt23PsPLSbFpWkXZDud0w0z+bmWErSbxAAARAAARAAARAAARAYE0EIIDWhAkH3UbA/HsvzywtZIkjbcdITSPNDCPgIA/3MRi0ROH+H8rbqkqBszhlTrs1qQhR3Zlc2fdyfxmOEun/5nZRmF4hMqcok9emZ9laGXU9mIogAAIgAAIgAAIgAAIbIgABtCF8eHNFwPz1mYOLCRWytLnxIxmyyEkYyrZN/VfX+gzUBgkq2cZXNWQr8sIxTNPJCzLSPPNI+D+eOR88QPa9GGgQAAEQAAEQAAEQAIERIQABNCIDidMAARAAARAAARAAARAAARAYTgACaDgjHAECIAACIAACIAACIAACIDAiBCCARmQgcRogAAIgAAIgAAIgAAIgAALDCUAADWeEI0AABEAABEAABEAABEAABEaEAATQiAwkTgMEQAAEQAAEQAAEQAAEQGA4AQig4YxwBAiAAAiAAAiAAAiAAAiAwIgQgAAakYHEaYAACIAACIAACIAACIAACAwnAAE0nBGOAAEQAAEQAAEQAAEQAAEQGBECEEAjMpA4DRAAARAAARAAARAAARAAgeEEIICGM8IRIAACIAACIAA9ra+4AAAHmUlEQVQCIAACIAACI0IAAmhEBhKnAQIgAAIgAAIgAAIgAAIgMJwABNBwRjgCBEAABEAABEAABEAABEBgRAhAAI3IQOI0QAAEQAAEQAAEQAAEQAAEhhOAABrOCEeAAAiAAAiAAAiAAAiAAAiMCAEIoBEZSJwGCIAACIAACIAACIAACIDAcAIQQMMZ4QgQAAEQAAEQAAEQAAEQAIERIQABNCIDidMAARAAARAAARAAARAAARAYTgACaDgjHAECIAACIAACIAACIAACIDAiBCCARmQgcRogAAIgAAIgAAIgAAIgAALDCUAADWeEI0AABEAABEAABEAABEAABEaEAATQiAwkTgMEQAAEQAAEQAAEQAAEQGA4AQig4YxwBAiAAAiAAAiAAAiAAAiAwIgQgAAakYHEaYAACIAACIAACIAACIAACAwnAAE0nBGOAAEQAAEQAAEQAAEQAAEQGBECEEAjMpA4DRAAARAAARAAARAAARAAgeEEIICGM8IRIAACIAACIAACIAACIAACI0IAAmhEBhKnAQIgAAIgAAIgAAIgAAIgMJwABNBwRjgCBEAABEAABEAABEAABEBgRAhAAI3IQOI0QAAEQAAEQAAEQAAEQAAEhhOAABrOCEeAAAiAAAiAAAiAAAiAAAiMCAEIoBEZSJwGCIAACIAACIAACIAACIDAcAIQQMMZ4QgQAAEQAAEQAAEQAAEQAIERIQABNCIDidMAARAAARAAARAAARAAARAYTgACaDgjHAECIAACIAACIAACIAACIDAiBCCARmQgcRogAAIgAAIgAAIgAAIgAALDCUAADWeEI0AABEAABEAABEAABEAABEaEAATQiAwkTgMEQAAEQAAEQAAEQAAEQGA4AQig4YxwBAiAAAiAAAiAAAiAAAiAwIgQgAAakYHEaYAACIAACIAACIAACIAACAwnAAE0nBGOAAEQAAEQAAEQAAEQAAEQGBECEEAjMpA4DRAAARAAARAAARAAARAAgeEEIICGM8IRIAACIAACIAACIAACIAACI0IAAmhEBhKnAQIgAAIgAAIgAAIgAAIgMJwABNBwRjgCBEAABEAABEAABEAABEBgRAhAAI3IQOI0QAAEQAAEQAAEQAAEQAAEhhOAABrOCEeAAAiAAAiAAAiAAAiAAAiMCAEIoBEZSJwGCIAACIAACIAACIAACIDAcAIQQMMZ4QgQAAEQAAEQAAEQAAEQAIERIQABNCIDidMAARAAARAAARAAARAAARAYTgACaDgjHAECIAACIAACIAACIAACIDAiBCCARmQgcRogAAIgAAIgAAIgAAIgAALDCUAADWeEI0AABEAABEAABEAABEAABEaEAATQiAwkTgMEQAAEQAAEQAAEQAAEQGA4AQig4YxwBAiAAAiAAAiAAAiAAAiAwIgQgAAakYHEaYAACIAACIAACIAACIAACAwnAAE0nBGOAAEQAAEQAAEQAAEQAAEQGBECEEAjMpA4DRAAARAAARAAARAAARAAgeEEIICGM8IRIAACIAACIAACIAACIAACI0IAAmhEBhKnAQIgAAIgAAIgAAIgAAIgMJwABNBwRjgCBEAABEAABEAABEAABEBgRAhAAI3IQOI0QAAEQAAEQAAEQAAEQAAEhhOAABrOCEeAAAiAAAiAAAiAAAiAAAiMCAEIoBEZSJwGCIAACIAACIAACIAACIDAcAIQQMMZ4QgQAAEQAAEQAAEQAAEQAIERIQABNCIDidMAARAAARAAARAAARAAARAYTgACaDgjHAECIAACIAACIAACIAACIDAiBCCARmQgcRogAAIgAAIgAAIgAAIgAALDCUAADWeEI0AABEAABEAABEAABEAABEaEAATQiAwkTgMEQAAEQAAEQAAEQAAEQGA4AQig4YxwBAiAAAiAAAiAAAiAAAiAwIgQgAAakYHEaYAACIAACIAACIAACIAACAwnAAE0nBGOAAEQAAEQAAEQAAEQAAEQGBECEEAjMpA4DRAAARAAARAAARAAARAAgeEEIICGM8IRIAACIAACIAACIAACIAACI0IAAmhEBhKnAQIgAAIgAAIgAAIgAAIgMJwABNBwRjgCBEAABEAABEAABEAABEBgRAhAAI3IQOI0QAAEQAAEQAAEQAAEQAAEhhOAABrOCEeAAAiAAAiAAAiAAAiAAAiMCAEIoBEZSJwGCIAACIAACIAACIAACIDAcAIQQMMZ4QgQAAEQAAEQAAEQAAEQAIERIQABNCIDidMAARAAARAAARAAARAAARAYTgACaDgjHAECIAACIAACIAACIAACIDAiBCCARmQgcRogAAIgAAIgAAIgAAIgAALDCUAADWeEI0AABEAABEAABEAABEAABEaEAATQiAwkTgMEQAAEQAAEQAAEQAAEQGA4AQig4YxwBAiAAAiAAAiAAAiAAAiAwIgQgAAakYHEaYAACIAACIAACIAACIAACAwnAAE0nBGOAAEQAAEQAAEQAAEQAAEQGBECEEAjMpA4DRAAARAAARAAARAAARAAgeEEIICGM8IRIAACIAACIAACIAACIAACI0IAAmhEBhKnAQIgAAIgAAIgAAIgAAIgMJzA/wftS3b5SOlvsgAAAABJRU5ErkJggg==;" parent="1" vertex="1">
                    <mxGeometry x="370" y="180" width="222" height="80.05" as="geometry"/>
                </mxCell>
                <mxCell id="30" value="" style="shape=step;perimeter=stepPerimeter;whiteSpace=wrap;html=1;fixedSize=1;fillColor=#9bbdee;gradientColor=#749263;rotation=90;" parent="1" vertex="1">
                    <mxGeometry x="294" y="324" width="48" height="80" as="geometry"/>
                </mxCell>
                <mxCell id="31" value="" style="shape=step;perimeter=stepPerimeter;whiteSpace=wrap;html=1;fixedSize=1;fillColor=#9bbdee;gradientColor=#749263;rotation=90;" parent="1" vertex="1">
                    <mxGeometry x="297.5" y="294.5" width="41" height="80" as="geometry"/>
                </mxCell>
                <mxCell id="32" value="" style="shape=step;perimeter=stepPerimeter;whiteSpace=wrap;html=1;fixedSize=1;fillColor=#9bbdee;gradientColor=#749263;rotation=90;" parent="1" vertex="1">
                    <mxGeometry x="287.5" y="363.5" width="61" height="80" as="geometry"/>
                </mxCell>
                <mxCell id="33" value="" style="shape=step;perimeter=stepPerimeter;whiteSpace=wrap;html=1;fixedSize=1;fillColor=#9bbdee;gradientColor=#749263;rotation=90;" parent="1" vertex="1">
                    <mxGeometry x="299" y="271" width="38" height="80" as="geometry"/>
                </mxCell>
            </root>
        </mxGraphModel>
    </diagram>
</mxfile>